<svg width="850" height="200" viewBox="0 0 850 200" fill="none" xmlns="http://www.w3.org/2000/svg">
<rect width="850" height="200" fill="#343647"/>
<path d="M124.812 67.3438C123.969 74.5625 121.297 80.1406 116.797 84.0781C112.328 87.9844 106.375 89.9375 98.9375 89.9375C90.875 89.9375 84.4062 87.0469 79.5312 81.2656C74.6875 75.4844 72.2656 67.75 72.2656 58.0625V51.5C72.2656 45.1562 73.3906 39.5781 75.6406 34.7656C77.9219 29.9531 81.1406 26.2656 85.2969 23.7031C89.4531 21.1094 94.2656 19.8125 99.7344 19.8125C106.984 19.8125 112.797 21.8437 117.172 25.9062C121.547 29.9375 124.094 35.5312 124.812 42.6875H115.766C114.984 37.25 113.281 33.3125 110.656 30.875C108.062 28.4375 104.422 27.2188 99.7344 27.2188C93.9844 27.2188 89.4688 29.3437 86.1875 33.5938C82.9375 37.8438 81.3125 43.8906 81.3125 51.7344V58.3438C81.3125 65.75 82.8594 71.6406 85.9531 76.0156C89.0469 80.3906 93.375 82.5781 98.9375 82.5781C103.938 82.5781 107.766 81.4531 110.422 79.2031C113.109 76.9219 114.891 72.9688 115.766 67.3438H124.812ZM167.094 89C166.594 88 166.188 86.2188 165.875 83.6562C161.844 87.8438 157.031 89.9375 151.438 89.9375C146.438 89.9375 142.328 88.5312 139.109 85.7188C135.922 82.875 134.328 79.2812 134.328 74.9375C134.328 69.6562 136.328 65.5625 140.328 62.6562C144.359 59.7188 150.016 58.25 157.297 58.25H165.734V54.2656C165.734 51.2344 164.828 48.8281 163.016 47.0469C161.203 45.2344 158.531 44.3281 155 44.3281C151.906 44.3281 149.312 45.1094 147.219 46.6719C145.125 48.2344 144.078 50.125 144.078 52.3438H135.359C135.359 49.8125 136.25 47.375 138.031 45.0312C139.844 42.6562 142.281 40.7812 145.344 39.4062C148.438 38.0312 151.828 37.3438 155.516 37.3438C161.359 37.3438 165.938 38.8125 169.25 41.75C172.562 44.6562 174.281 48.6719 174.406 53.7969V77.1406C174.406 81.7969 175 85.5 176.188 88.25V89H167.094ZM152.703 82.3906C155.422 82.3906 158 81.6875 160.438 80.2812C162.875 78.875 164.641 77.0469 165.734 74.7969V64.3906H158.938C148.312 64.3906 143 67.5 143 73.7188C143 76.4375 143.906 78.5625 145.719 80.0938C147.531 81.625 149.859 82.3906 152.703 82.3906ZM217.531 75.5469C217.531 73.2031 216.641 71.3906 214.859 70.1094C213.109 68.7969 210.031 67.6719 205.625 66.7344C201.25 65.7969 197.766 64.6719 195.172 63.3594C192.609 62.0469 190.703 60.4844 189.453 58.6719C188.234 56.8594 187.625 54.7031 187.625 52.2031C187.625 48.0469 189.375 44.5312 192.875 41.6562C196.406 38.7812 200.906 37.3438 206.375 37.3438C212.125 37.3438 216.781 38.8281 220.344 41.7969C223.938 44.7656 225.734 48.5625 225.734 53.1875H217.016C217.016 50.8125 216 48.7656 213.969 47.0469C211.969 45.3281 209.438 44.4688 206.375 44.4688C203.219 44.4688 200.75 45.1562 198.969 46.5312C197.188 47.9062 196.297 49.7031 196.297 51.9219C196.297 54.0156 197.125 55.5938 198.781 56.6562C200.438 57.7188 203.422 58.7344 207.734 59.7031C212.078 60.6719 215.594 61.8281 218.281 63.1719C220.969 64.5156 222.953 66.1406 224.234 68.0469C225.547 69.9219 226.203 72.2188 226.203 74.9375C226.203 79.4688 224.391 83.1094 220.766 85.8594C217.141 88.5781 212.438 89.9375 206.656 89.9375C202.594 89.9375 199 89.2188 195.875 87.7812C192.75 86.3438 190.297 84.3438 188.516 81.7812C186.766 79.1875 185.891 76.3906 185.891 73.3906H194.562C194.719 76.2969 195.875 78.6094 198.031 80.3281C200.219 82.0156 203.094 82.8594 206.656 82.8594C209.938 82.8594 212.562 82.2031 214.531 80.8906C216.531 79.5469 217.531 77.7656 217.531 75.5469ZM280.344 64.2031C280.344 71.9219 278.578 78.1406 275.047 82.8594C271.516 87.5781 266.734 89.9375 260.703 89.9375C254.547 89.9375 249.703 87.9844 246.172 84.0781V108.5H237.5V38.2812H245.422L245.844 43.9062C249.375 39.5312 254.281 37.3438 260.562 37.3438C266.656 37.3438 271.469 39.6406 275 44.2344C278.562 48.8281 280.344 55.2188 280.344 63.4062V64.2031ZM271.672 63.2188C271.672 57.5 270.453 52.9844 268.016 49.6719C265.578 46.3594 262.234 44.7031 257.984 44.7031C252.734 44.7031 248.797 47.0312 246.172 51.6875V75.9219C248.766 80.5469 252.734 82.8594 258.078 82.8594C262.234 82.8594 265.531 81.2188 267.969 77.9375C270.438 74.625 271.672 69.7188 271.672 63.2188ZM312.453 89.9375C305.578 89.9375 299.984 87.6875 295.672 83.1875C291.359 78.6562 289.203 72.6094 289.203 65.0469V63.4531C289.203 58.4219 290.156 53.9375 292.062 50C294 46.0312 296.688 42.9375 300.125 40.7188C303.594 38.4688 307.344 37.3438 311.375 37.3438C317.969 37.3438 323.094 39.5156 326.75 43.8594C330.406 48.2031 332.234 54.4219 332.234 62.5156V66.125H297.875C298 71.125 299.453 75.1719 302.234 78.2656C305.047 81.3281 308.609 82.8594 312.922 82.8594C315.984 82.8594 318.578 82.2344 320.703 80.9844C322.828 79.7344 324.688 78.0781 326.281 76.0156L331.578 80.1406C327.328 86.6719 320.953 89.9375 312.453 89.9375ZM311.375 44.4688C307.875 44.4688 304.938 45.75 302.562 48.3125C300.188 50.8438 298.719 54.4062 298.156 59H323.562V58.3438C323.312 53.9375 322.125 50.5312 320 48.125C317.875 45.6875 315 44.4688 311.375 44.4688ZM366.828 46.0625C365.516 45.8438 364.094 45.7344 362.562 45.7344C356.875 45.7344 353.016 48.1562 350.984 53V89H342.312V38.2812H350.75L350.891 44.1406C353.734 39.6094 357.766 37.3438 362.984 37.3438C364.672 37.3438 365.953 37.5625 366.828 38V46.0625ZM423.359 28.1562H401.422V89H392.469V28.1562H370.578V20.75H423.359V28.1562ZM440.797 44.4219C444.641 39.7031 449.641 37.3438 455.797 37.3438C466.516 37.3438 471.922 43.3906 472.016 55.4844V89H463.344V55.4375C463.312 51.7812 462.469 49.0781 460.812 47.3281C459.188 45.5781 456.641 44.7031 453.172 44.7031C450.359 44.7031 447.891 45.4531 445.766 46.9531C443.641 48.4531 441.984 50.4219 440.797 52.8594V89H432.125V17H440.797V44.4219ZM506.047 89.9375C499.172 89.9375 493.578 87.6875 489.266 83.1875C484.953 78.6562 482.797 72.6094 482.797 65.0469V63.4531C482.797 58.4219 483.75 53.9375 485.656 50C487.594 46.0312 490.281 42.9375 493.719 40.7188C497.188 38.4688 500.938 37.3438 504.969 37.3438C511.562 37.3438 516.688 39.5156 520.344 43.8594C524 48.2031 525.828 54.4219 525.828 62.5156V66.125H491.469C491.594 71.125 493.047 75.1719 495.828 78.2656C498.641 81.3281 502.203 82.8594 506.516 82.8594C509.578 82.8594 512.172 82.2344 514.297 80.9844C516.422 79.7344 518.281 78.0781 519.875 76.0156L525.172 80.1406C520.922 86.6719 514.547 89.9375 506.047 89.9375ZM504.969 44.4688C501.469 44.4688 498.531 45.75 496.156 48.3125C493.781 50.8438 492.312 54.4062 491.75 59H517.156V58.3438C516.906 53.9375 515.719 50.5312 513.594 48.125C511.469 45.6875 508.594 44.4688 504.969 44.4688ZM587.656 80.0469C585.344 83.3594 582.109 85.8438 577.953 87.5C573.828 89.125 569.016 89.9375 563.516 89.9375C557.953 89.9375 553.016 88.6406 548.703 86.0469C544.391 83.4219 541.047 79.7031 538.672 74.8906C536.328 70.0781 535.125 64.5 535.062 58.1562V52.2031C535.062 41.9219 537.453 33.9531 542.234 28.2969C547.047 22.6406 553.797 19.8125 562.484 19.8125C569.609 19.8125 575.344 21.6406 579.688 25.2969C584.031 28.9219 586.688 34.0781 587.656 40.7656H578.656C576.969 31.7344 571.594 27.2188 562.531 27.2188C556.5 27.2188 551.922 29.3437 548.797 33.5938C545.703 37.8125 544.141 43.9375 544.109 51.9688V57.5469C544.109 65.2031 545.859 71.2969 549.359 75.8281C552.859 80.3281 557.594 82.5781 563.562 82.5781C566.938 82.5781 569.891 82.2031 572.422 81.4531C574.953 80.7031 577.047 79.4375 578.703 77.6562V62.3281H562.906V55.0156H587.656V80.0469ZM610.016 44.4219C613.859 39.7031 618.859 37.3438 625.016 37.3438C635.734 37.3438 641.141 43.3906 641.234 55.4844V89H632.562V55.4375C632.531 51.7812 631.688 49.0781 630.031 47.3281C628.406 45.5781 625.859 44.7031 622.391 44.7031C619.578 44.7031 617.109 45.4531 614.984 46.9531C612.859 48.4531 611.203 50.4219 610.016 52.8594V89H601.344V17H610.016V44.4219ZM651.922 63.1719C651.922 58.2031 652.891 53.7344 654.828 49.7656C656.797 45.7969 659.516 42.7344 662.984 40.5781C666.484 38.4219 670.469 37.3438 674.938 37.3438C681.844 37.3438 687.422 39.7344 691.672 44.5156C695.953 49.2969 698.094 55.6562 698.094 63.5938V64.2031C698.094 69.1406 697.141 73.5781 695.234 77.5156C693.359 81.4219 690.656 84.4688 687.125 86.6562C683.625 88.8438 679.594 89.9375 675.031 89.9375C668.156 89.9375 662.578 87.5469 658.297 82.7656C654.047 77.9844 651.922 71.6562 651.922 63.7812V63.1719ZM660.641 64.2031C660.641 69.8281 661.938 74.3438 664.531 77.75C667.156 81.1562 670.656 82.8594 675.031 82.8594C679.438 82.8594 682.938 81.1406 685.531 77.7031C688.125 74.2344 689.422 69.3906 689.422 63.1719C689.422 57.6094 688.094 53.1094 685.438 49.6719C682.812 46.2031 679.312 44.4688 674.938 44.4688C670.656 44.4688 667.203 46.1719 664.578 49.5781C661.953 52.9844 660.641 57.8594 660.641 64.2031ZM738.5 75.5469C738.5 73.2031 737.609 71.3906 735.828 70.1094C734.078 68.7969 731 67.6719 726.594 66.7344C722.219 65.7969 718.734 64.6719 716.141 63.3594C713.578 62.0469 711.672 60.4844 710.422 58.6719C709.203 56.8594 708.594 54.7031 708.594 52.2031C708.594 48.0469 710.344 44.5312 713.844 41.6562C717.375 38.7812 721.875 37.3438 727.344 37.3438C733.094 37.3438 737.75 38.8281 741.312 41.7969C744.906 44.7656 746.703 48.5625 746.703 53.1875H737.984C737.984 50.8125 736.969 48.7656 734.938 47.0469C732.938 45.3281 730.406 44.4688 727.344 44.4688C724.188 44.4688 721.719 45.1562 719.938 46.5312C718.156 47.9062 717.266 49.7031 717.266 51.9219C717.266 54.0156 718.094 55.5938 719.75 56.6562C721.406 57.7188 724.391 58.7344 728.703 59.7031C733.047 60.6719 736.562 61.8281 739.25 63.1719C741.938 64.5156 743.922 66.1406 745.203 68.0469C746.516 69.9219 747.172 72.2188 747.172 74.9375C747.172 79.4688 745.359 83.1094 741.734 85.8594C738.109 88.5781 733.406 89.9375 727.625 89.9375C723.562 89.9375 719.969 89.2188 716.844 87.7812C713.719 86.3438 711.266 84.3438 709.484 81.7812C707.734 79.1875 706.859 76.3906 706.859 73.3906H715.531C715.688 76.2969 716.844 78.6094 719 80.3281C721.188 82.0156 724.062 82.8594 727.625 82.8594C730.906 82.8594 733.531 82.2031 735.5 80.8906C737.5 79.5469 738.5 77.7656 738.5 75.5469ZM770.234 26V38.2812H779.703V44.9844H770.234V76.4375C770.234 78.4688 770.656 80 771.5 81.0312C772.344 82.0312 773.781 82.5312 775.812 82.5312C776.812 82.5312 778.188 82.3438 779.938 81.9688V89C777.656 89.625 775.438 89.9375 773.281 89.9375C769.406 89.9375 766.484 88.7656 764.516 86.4219C762.547 84.0781 761.562 80.75 761.562 76.4375V44.9844H752.328V38.2812H761.562V26H770.234Z" fill="#BBBBBB"/>
<path d="M205.977 131.697H195.236V143H191.861V117.406H207.717V120.184H195.236V128.938H205.977V131.697ZM219.986 126.898C219.494 126.816 218.961 126.775 218.387 126.775C216.254 126.775 214.807 127.684 214.045 129.5V143H210.793V123.98H213.957L214.01 126.178C215.076 124.479 216.588 123.629 218.545 123.629C219.178 123.629 219.658 123.711 219.986 123.875V126.898ZM221.779 133.314C221.779 131.451 222.143 129.775 222.869 128.287C223.607 126.799 224.627 125.65 225.928 124.842C227.24 124.033 228.734 123.629 230.41 123.629C233 123.629 235.092 124.525 236.686 126.318C238.291 128.111 239.094 130.496 239.094 133.473V133.701C239.094 135.553 238.736 137.217 238.021 138.693C237.318 140.158 236.305 141.301 234.98 142.121C233.668 142.941 232.156 143.352 230.445 143.352C227.867 143.352 225.775 142.455 224.17 140.662C222.576 138.869 221.779 136.496 221.779 133.543V133.314ZM225.049 133.701C225.049 135.811 225.535 137.504 226.508 138.781C227.492 140.059 228.805 140.697 230.445 140.697C232.098 140.697 233.41 140.053 234.383 138.764C235.355 137.463 235.842 135.646 235.842 133.314C235.842 131.229 235.344 129.541 234.348 128.252C233.363 126.951 232.051 126.301 230.41 126.301C228.805 126.301 227.51 126.939 226.525 128.217C225.541 129.494 225.049 131.322 225.049 133.701ZM246.248 123.98L246.354 126.371C247.807 124.543 249.705 123.629 252.049 123.629C256.068 123.629 258.096 125.896 258.131 130.432V143H254.879V130.414C254.867 129.043 254.551 128.029 253.93 127.373C253.32 126.717 252.365 126.389 251.064 126.389C250.01 126.389 249.084 126.67 248.287 127.232C247.49 127.795 246.869 128.533 246.424 129.447V143H243.172V123.98H246.248ZM267.447 119.375V123.98H270.998V126.494H267.447V138.289C267.447 139.051 267.605 139.625 267.922 140.012C268.238 140.387 268.777 140.574 269.539 140.574C269.914 140.574 270.43 140.504 271.086 140.363V143C270.23 143.234 269.398 143.352 268.59 143.352C267.137 143.352 266.041 142.912 265.303 142.033C264.564 141.154 264.195 139.906 264.195 138.289V126.494H260.732V123.98H264.195V119.375H267.447ZM282.705 143.352C280.127 143.352 278.029 142.508 276.412 140.82C274.795 139.121 273.986 136.854 273.986 134.018V133.42C273.986 131.533 274.344 129.852 275.059 128.375C275.785 126.887 276.793 125.727 278.082 124.895C279.383 124.051 280.789 123.629 282.301 123.629C284.773 123.629 286.695 124.443 288.066 126.072C289.438 127.701 290.123 130.033 290.123 133.068V134.422H277.238C277.285 136.297 277.83 137.814 278.873 138.975C279.928 140.123 281.264 140.697 282.881 140.697C284.029 140.697 285.002 140.463 285.799 139.994C286.596 139.525 287.293 138.904 287.891 138.131L289.877 139.678C288.283 142.127 285.893 143.352 282.705 143.352ZM282.301 126.301C280.988 126.301 279.887 126.781 278.996 127.742C278.105 128.691 277.555 130.027 277.344 131.75H286.871V131.504C286.777 129.852 286.332 128.574 285.535 127.672C284.738 126.758 283.66 126.301 282.301 126.301ZM296.979 123.98L297.084 126.371C298.537 124.543 300.436 123.629 302.779 123.629C306.799 123.629 308.826 125.896 308.861 130.432V143H305.609V130.414C305.598 129.043 305.281 128.029 304.66 127.373C304.051 126.717 303.096 126.389 301.795 126.389C300.74 126.389 299.814 126.67 299.018 127.232C298.221 127.795 297.6 128.533 297.154 129.447V143H293.902V123.98H296.979ZM312.975 133.332C312.975 130.414 313.666 128.07 315.049 126.301C316.432 124.52 318.242 123.629 320.48 123.629C322.707 123.629 324.471 124.391 325.771 125.914V116H329.023V143H326.035L325.877 140.961C324.576 142.555 322.766 143.352 320.445 143.352C318.242 143.352 316.443 142.449 315.049 140.645C313.666 138.84 312.975 136.484 312.975 133.578V133.332ZM316.227 133.701C316.227 135.857 316.672 137.545 317.562 138.764C318.453 139.982 319.684 140.592 321.254 140.592C323.316 140.592 324.822 139.666 325.771 137.814V129.078C324.799 127.285 323.305 126.389 321.289 126.389C319.695 126.389 318.453 127.004 317.562 128.234C316.672 129.465 316.227 131.287 316.227 133.701ZM342.225 133.332C342.225 130.414 342.916 128.07 344.299 126.301C345.682 124.52 347.492 123.629 349.73 123.629C351.957 123.629 353.721 124.391 355.021 125.914V116H358.273V143H355.285L355.127 140.961C353.826 142.555 352.016 143.352 349.695 143.352C347.492 143.352 345.693 142.449 344.299 140.645C342.916 138.84 342.225 136.484 342.225 133.578V133.332ZM345.477 133.701C345.477 135.857 345.922 137.545 346.812 138.764C347.703 139.982 348.934 140.592 350.504 140.592C352.566 140.592 354.072 139.666 355.021 137.814V129.078C354.049 127.285 352.555 126.389 350.539 126.389C348.945 126.389 347.703 127.004 346.812 128.234C345.922 129.465 345.477 131.287 345.477 133.701ZM371.229 143.352C368.65 143.352 366.553 142.508 364.936 140.82C363.318 139.121 362.51 136.854 362.51 134.018V133.42C362.51 131.533 362.867 129.852 363.582 128.375C364.309 126.887 365.316 125.727 366.605 124.895C367.906 124.051 369.312 123.629 370.824 123.629C373.297 123.629 375.219 124.443 376.59 126.072C377.961 127.701 378.646 130.033 378.646 133.068V134.422H365.762C365.809 136.297 366.354 137.814 367.396 138.975C368.451 140.123 369.787 140.697 371.404 140.697C372.553 140.697 373.525 140.463 374.322 139.994C375.119 139.525 375.816 138.904 376.414 138.131L378.4 139.678C376.807 142.127 374.416 143.352 371.229 143.352ZM370.824 126.301C369.512 126.301 368.41 126.781 367.52 127.742C366.629 128.691 366.078 130.027 365.867 131.75H375.395V131.504C375.301 129.852 374.855 128.574 374.059 127.672C373.262 126.758 372.184 126.301 370.824 126.301ZM388.455 138.588L393.166 123.98H396.488L389.668 143H387.189L380.299 123.98H383.621L388.455 138.588ZM407.264 143.352C404.686 143.352 402.588 142.508 400.971 140.82C399.354 139.121 398.545 136.854 398.545 134.018V133.42C398.545 131.533 398.902 129.852 399.617 128.375C400.344 126.887 401.352 125.727 402.641 124.895C403.941 124.051 405.348 123.629 406.859 123.629C409.332 123.629 411.254 124.443 412.625 126.072C413.996 127.701 414.682 130.033 414.682 133.068V134.422H401.797C401.844 136.297 402.389 137.814 403.432 138.975C404.486 140.123 405.822 140.697 407.439 140.697C408.588 140.697 409.561 140.463 410.357 139.994C411.154 139.525 411.852 138.904 412.449 138.131L414.436 139.678C412.842 142.127 410.451 143.352 407.264 143.352ZM406.859 126.301C405.547 126.301 404.445 126.781 403.555 127.742C402.664 128.691 402.113 130.027 401.902 131.75H411.43V131.504C411.336 129.852 410.891 128.574 410.094 127.672C409.297 126.758 408.219 126.301 406.859 126.301ZM421.994 143H418.742V116H421.994V143ZM426.354 133.314C426.354 131.451 426.717 129.775 427.443 128.287C428.182 126.799 429.201 125.65 430.502 124.842C431.814 124.033 433.309 123.629 434.984 123.629C437.574 123.629 439.666 124.525 441.26 126.318C442.865 128.111 443.668 130.496 443.668 133.473V133.701C443.668 135.553 443.311 137.217 442.596 138.693C441.893 140.158 440.879 141.301 439.555 142.121C438.242 142.941 436.73 143.352 435.02 143.352C432.441 143.352 430.35 142.455 428.744 140.662C427.15 138.869 426.354 136.496 426.354 133.543V133.314ZM429.623 133.701C429.623 135.811 430.109 137.504 431.082 138.781C432.066 140.059 433.379 140.697 435.02 140.697C436.672 140.697 437.984 140.053 438.957 138.764C439.93 137.463 440.416 135.646 440.416 133.314C440.416 131.229 439.918 129.541 438.922 128.252C437.938 126.951 436.625 126.301 434.984 126.301C433.379 126.301 432.084 126.939 431.1 128.217C430.115 129.494 429.623 131.322 429.623 133.701ZM463.812 133.701C463.812 136.596 463.15 138.928 461.826 140.697C460.502 142.467 458.709 143.352 456.447 143.352C454.139 143.352 452.322 142.619 450.998 141.154V150.312H447.746V123.98H450.717L450.875 126.09C452.199 124.449 454.039 123.629 456.395 123.629C458.68 123.629 460.484 124.49 461.809 126.213C463.145 127.936 463.812 130.332 463.812 133.402V133.701ZM460.561 133.332C460.561 131.188 460.104 129.494 459.189 128.252C458.275 127.01 457.021 126.389 455.428 126.389C453.459 126.389 451.982 127.262 450.998 129.008V138.096C451.971 139.83 453.459 140.697 455.463 140.697C457.021 140.697 458.258 140.082 459.172 138.852C460.098 137.609 460.561 135.77 460.561 133.332ZM475.854 143.352C473.275 143.352 471.178 142.508 469.561 140.82C467.943 139.121 467.135 136.854 467.135 134.018V133.42C467.135 131.533 467.492 129.852 468.207 128.375C468.934 126.887 469.941 125.727 471.23 124.895C472.531 124.051 473.938 123.629 475.449 123.629C477.922 123.629 479.844 124.443 481.215 126.072C482.586 127.701 483.271 130.033 483.271 133.068V134.422H470.387C470.434 136.297 470.979 137.814 472.021 138.975C473.076 140.123 474.412 140.697 476.029 140.697C477.178 140.697 478.15 140.463 478.947 139.994C479.744 139.525 480.441 138.904 481.039 138.131L483.025 139.678C481.432 142.127 479.041 143.352 475.854 143.352ZM475.449 126.301C474.137 126.301 473.035 126.781 472.145 127.742C471.254 128.691 470.703 130.027 470.492 131.75H480.02V131.504C479.926 129.852 479.48 128.574 478.684 127.672C477.887 126.758 476.809 126.301 475.449 126.301ZM496.244 126.898C495.752 126.816 495.219 126.775 494.645 126.775C492.512 126.775 491.064 127.684 490.303 129.5V143H487.051V123.98H490.215L490.268 126.178C491.334 124.479 492.846 123.629 494.803 123.629C495.436 123.629 495.916 123.711 496.244 123.875V126.898ZM507.494 136.127C507.494 134.896 507.834 133.766 508.514 132.734C509.205 131.703 510.518 130.502 512.451 129.131C511.314 127.748 510.553 126.635 510.166 125.791C509.779 124.947 509.586 124.109 509.586 123.277C509.586 121.332 510.16 119.809 511.309 118.707C512.457 117.605 514.016 117.055 515.984 117.055C517.742 117.055 519.195 117.57 520.344 118.602C521.492 119.621 522.066 120.91 522.066 122.469C522.066 123.5 521.803 124.455 521.275 125.334C520.76 126.201 519.852 127.115 518.551 128.076L516.67 129.465L522.365 136.268C523.162 134.744 523.561 133.051 523.561 131.188H526.496C526.496 134.176 525.775 136.654 524.334 138.623L527.99 143H524.088L522.383 140.979C521.516 141.752 520.496 142.344 519.324 142.754C518.164 143.152 516.98 143.352 515.773 143.352C513.277 143.352 511.273 142.689 509.762 141.365C508.25 140.041 507.494 138.295 507.494 136.127ZM515.773 140.697C517.496 140.697 519.072 140.041 520.502 138.729L514.262 131.258L513.682 131.68C511.725 133.121 510.746 134.604 510.746 136.127C510.746 137.51 511.191 138.617 512.082 139.449C512.984 140.281 514.215 140.697 515.773 140.697ZM512.838 123.172C512.838 124.297 513.529 125.703 514.912 127.391L516.986 125.932C517.783 125.369 518.328 124.836 518.621 124.332C518.914 123.816 519.061 123.195 519.061 122.469C519.061 121.684 518.768 121.033 518.182 120.518C517.596 119.99 516.857 119.727 515.967 119.727C515.006 119.727 514.244 120.055 513.682 120.711C513.119 121.355 512.838 122.176 512.838 123.172ZM547.555 131.592C544.66 130.76 542.551 129.74 541.227 128.533C539.914 127.314 539.258 125.814 539.258 124.033C539.258 122.018 540.061 120.354 541.666 119.041C543.283 117.717 545.381 117.055 547.959 117.055C549.717 117.055 551.281 117.395 552.652 118.074C554.035 118.754 555.102 119.691 555.852 120.887C556.613 122.082 556.994 123.389 556.994 124.807H553.602C553.602 123.26 553.109 122.047 552.125 121.168C551.141 120.277 549.752 119.832 547.959 119.832C546.295 119.832 544.994 120.201 544.057 120.939C543.131 121.666 542.668 122.68 542.668 123.98C542.668 125.023 543.107 125.908 543.986 126.635C544.877 127.35 546.383 128.006 548.504 128.604C550.637 129.201 552.301 129.863 553.496 130.59C554.703 131.305 555.594 132.143 556.168 133.104C556.754 134.064 557.047 135.195 557.047 136.496C557.047 138.57 556.238 140.234 554.621 141.488C553.004 142.73 550.842 143.352 548.135 143.352C546.377 143.352 544.736 143.018 543.213 142.35C541.689 141.67 540.512 140.744 539.68 139.572C538.859 138.4 538.449 137.07 538.449 135.582H541.842C541.842 137.129 542.41 138.354 543.547 139.256C544.695 140.146 546.225 140.592 548.135 140.592C549.916 140.592 551.281 140.229 552.23 139.502C553.18 138.775 553.654 137.785 553.654 136.531C553.654 135.277 553.215 134.311 552.336 133.631C551.457 132.939 549.863 132.26 547.555 131.592ZM565.291 119.375V123.98H568.842V126.494H565.291V138.289C565.291 139.051 565.449 139.625 565.766 140.012C566.082 140.387 566.621 140.574 567.383 140.574C567.758 140.574 568.273 140.504 568.93 140.363V143C568.074 143.234 567.242 143.352 566.434 143.352C564.98 143.352 563.885 142.912 563.146 142.033C562.408 141.154 562.039 139.906 562.039 138.289V126.494H558.576V123.98H562.039V119.375H565.291ZM584.398 141.119C583.133 142.607 581.275 143.352 578.826 143.352C576.799 143.352 575.252 142.766 574.186 141.594C573.131 140.41 572.598 138.664 572.586 136.355V123.98H575.838V136.268C575.838 139.15 577.01 140.592 579.354 140.592C581.838 140.592 583.49 139.666 584.311 137.814V123.98H587.562V143H584.469L584.398 141.119ZM591.729 133.332C591.729 130.414 592.42 128.07 593.803 126.301C595.186 124.52 596.996 123.629 599.234 123.629C601.461 123.629 603.225 124.391 604.525 125.914V116H607.777V143H604.789L604.631 140.961C603.33 142.555 601.52 143.352 599.199 143.352C596.996 143.352 595.197 142.449 593.803 140.645C592.42 138.84 591.729 136.484 591.729 133.578V133.332ZM594.98 133.701C594.98 135.857 595.426 137.545 596.316 138.764C597.207 139.982 598.438 140.592 600.008 140.592C602.07 140.592 603.576 139.666 604.525 137.814V129.078C603.553 127.285 602.059 126.389 600.043 126.389C598.449 126.389 597.207 127.004 596.316 128.234C595.426 129.465 594.98 131.287 594.98 133.701ZM620.732 143.352C618.154 143.352 616.057 142.508 614.439 140.82C612.822 139.121 612.014 136.854 612.014 134.018V133.42C612.014 131.533 612.371 129.852 613.086 128.375C613.812 126.887 614.82 125.727 616.109 124.895C617.41 124.051 618.816 123.629 620.328 123.629C622.801 123.629 624.723 124.443 626.094 126.072C627.465 127.701 628.15 130.033 628.15 133.068V134.422H615.266C615.312 136.297 615.857 137.814 616.9 138.975C617.955 140.123 619.291 140.697 620.908 140.697C622.057 140.697 623.029 140.463 623.826 139.994C624.623 139.525 625.32 138.904 625.918 138.131L627.904 139.678C626.311 142.127 623.92 143.352 620.732 143.352ZM620.328 126.301C619.016 126.301 617.914 126.781 617.023 127.742C616.133 128.691 615.582 130.027 615.371 131.75H624.898V131.504C624.805 129.852 624.359 128.574 623.562 127.672C622.766 126.758 621.688 126.301 620.328 126.301ZM635.006 123.98L635.111 126.371C636.564 124.543 638.463 123.629 640.807 123.629C644.826 123.629 646.854 125.896 646.889 130.432V143H643.637V130.414C643.625 129.043 643.309 128.029 642.688 127.373C642.078 126.717 641.123 126.389 639.822 126.389C638.768 126.389 637.842 126.67 637.045 127.232C636.248 127.795 635.627 128.533 635.182 129.447V143H631.93V123.98H635.006ZM656.205 119.375V123.98H659.756V126.494H656.205V138.289C656.205 139.051 656.363 139.625 656.68 140.012C656.996 140.387 657.535 140.574 658.297 140.574C658.672 140.574 659.188 140.504 659.844 140.363V143C658.988 143.234 658.156 143.352 657.348 143.352C655.895 143.352 654.799 142.912 654.061 142.033C653.322 141.154 652.953 139.906 652.953 138.289V126.494H649.49V123.98H652.953V119.375H656.205Z" fill="#DDDDDD"/>
</svg>
