<svg width="1500" height="350" viewBox="0 0 1500 350" fill="none" xmlns="http://www.w3.org/2000/svg">
<rect width="1500" height="350" fill="#343647"/>
<path d="M365.057 138.108C364.382 147.441 360.926 154.788 354.691 160.149C348.496 165.511 340.315 168.191 330.148 168.191C319.029 168.191 310.272 164.458 303.878 156.992C297.524 149.486 294.347 139.201 294.347 126.135V120.833C294.347 112.493 295.816 105.146 298.755 98.792C301.694 92.4378 305.883 87.5729 311.324 84.1973C316.805 80.7819 323.159 79.0742 330.387 79.0742C340.395 79.0742 348.456 81.7549 354.572 87.1162C360.688 92.4775 364.223 100.003 365.176 109.693H347.305C346.868 104.094 345.299 100.043 342.599 97.541C339.938 94.9993 335.867 93.7285 330.387 93.7285C324.43 93.7285 319.962 95.873 316.983 100.162C314.045 104.411 312.535 111.024 312.456 119.999V126.552C312.456 135.924 313.866 142.775 316.686 147.104C319.545 151.432 324.033 153.597 330.148 153.597C335.669 153.597 339.779 152.346 342.479 149.844C345.22 147.302 346.788 143.39 347.186 138.108H365.057ZM413.011 167C412.216 165.451 411.641 163.525 411.283 161.222C407.113 165.868 401.692 168.191 395.021 168.191C388.706 168.191 383.464 166.365 379.294 162.711C375.164 159.057 373.099 154.451 373.099 148.891C373.099 142.06 375.62 136.818 380.664 133.164C385.747 129.51 393.075 127.664 402.646 127.624H410.568V123.931C410.568 120.952 409.794 118.569 408.245 116.782C406.736 114.995 404.333 114.102 401.037 114.102C398.138 114.102 395.854 114.797 394.187 116.187C392.558 117.576 391.744 119.483 391.744 121.905H374.528C374.528 118.172 375.68 114.717 377.983 111.54C380.287 108.363 383.543 105.881 387.753 104.094C391.963 102.267 396.688 101.354 401.931 101.354C409.873 101.354 416.168 103.359 420.814 107.37C425.501 111.341 427.844 116.941 427.844 124.169V152.107C427.883 158.223 428.737 162.85 430.405 165.987V167H413.011ZM398.773 155.026C401.315 155.026 403.658 154.47 405.803 153.358C407.947 152.207 409.536 150.678 410.568 148.771V137.691H404.135C395.517 137.691 390.93 140.67 390.374 146.627L390.314 147.64C390.314 149.784 391.069 151.551 392.578 152.941C394.087 154.331 396.152 155.026 398.773 155.026ZM475.977 149.188C475.977 147.084 474.924 145.436 472.819 144.244C470.754 143.013 467.418 141.921 462.812 140.968C447.482 137.751 439.817 131.238 439.817 121.429C439.817 115.71 442.18 110.944 446.906 107.132C451.672 103.28 457.887 101.354 465.552 101.354C473.733 101.354 480.266 103.28 485.15 107.132C490.075 110.984 492.537 115.988 492.537 122.144H475.321C475.321 119.681 474.527 117.656 472.938 116.067C471.35 114.439 468.868 113.625 465.492 113.625C462.593 113.625 460.349 114.28 458.761 115.591C457.172 116.901 456.378 118.569 456.378 120.595C456.378 122.501 457.271 124.05 459.059 125.241C460.885 126.393 463.943 127.406 468.232 128.279C472.521 129.113 476.135 130.066 479.074 131.139C488.169 134.475 492.716 140.253 492.716 148.474C492.716 154.351 490.194 159.117 485.15 162.771C480.107 166.384 473.594 168.191 465.611 168.191C460.21 168.191 455.405 167.238 451.195 165.332C447.025 163.386 443.749 160.745 441.366 157.409C438.983 154.034 437.792 150.4 437.792 146.508H454.114C454.273 149.566 455.405 151.909 457.51 153.537C459.615 155.165 462.434 155.979 465.969 155.979C469.265 155.979 471.747 155.364 473.415 154.133C475.123 152.862 475.977 151.214 475.977 149.188ZM561.877 135.368C561.877 145.297 559.613 153.259 555.086 159.256C550.598 165.213 544.522 168.191 536.857 168.191C530.344 168.191 525.082 165.928 521.071 161.4V191.781H503.855V102.545H519.82L520.416 108.859C524.586 103.855 530.027 101.354 536.738 101.354C544.681 101.354 550.856 104.292 555.265 110.17C559.673 116.048 561.877 124.149 561.877 134.475V135.368ZM544.661 134.117C544.661 128.12 543.589 123.494 541.444 120.237C539.34 116.981 536.262 115.353 532.211 115.353C526.81 115.353 523.097 117.418 521.071 121.548V147.938C523.176 152.187 526.929 154.312 532.33 154.312C540.551 154.312 544.661 147.58 544.661 134.117ZM602.266 168.191C592.814 168.191 585.109 165.292 579.152 159.494C573.235 153.696 570.276 145.972 570.276 136.321V134.653C570.276 128.18 571.527 122.402 574.029 117.318C576.531 112.195 580.066 108.264 584.633 105.523C589.24 102.743 594.482 101.354 600.359 101.354C609.176 101.354 616.106 104.133 621.149 109.693C626.233 115.253 628.774 123.136 628.774 133.343V140.372H587.73C588.286 144.582 589.954 147.957 592.734 150.499C595.554 153.041 599.108 154.312 603.397 154.312C610.03 154.312 615.212 151.909 618.945 147.104L627.404 156.575C624.823 160.229 621.328 163.088 616.92 165.153C612.512 167.179 607.627 168.191 602.266 168.191ZM600.3 115.293C596.884 115.293 594.104 116.445 591.96 118.748C589.855 121.051 588.505 124.348 587.909 128.637H611.856V127.267C611.777 123.454 610.744 120.515 608.759 118.45C606.773 116.345 603.953 115.293 600.3 115.293ZM674.822 118.688C672.479 118.371 670.414 118.212 668.627 118.212C662.114 118.212 657.845 120.416 655.819 124.824V167H638.604V102.545H654.866L655.343 110.229C658.798 104.312 663.583 101.354 669.699 101.354C671.605 101.354 673.393 101.612 675.061 102.128L674.822 118.688ZM749.583 94.7412H723.015V167H705.144V94.7412H678.933V80.2656H749.583V94.7412ZM775.496 109.574C780.063 104.094 785.802 101.354 792.712 101.354C806.691 101.354 813.78 109.475 813.979 125.718V167H796.763V126.194C796.763 122.501 795.968 119.781 794.38 118.033C792.791 116.246 790.15 115.353 786.457 115.353C781.413 115.353 777.76 117.299 775.496 121.19V167H758.28V75.5H775.496V109.574ZM856.631 168.191C847.179 168.191 839.475 165.292 833.518 159.494C827.6 153.696 824.642 145.972 824.642 136.321V134.653C824.642 128.18 825.893 122.402 828.395 117.318C830.896 112.195 834.431 108.264 838.998 105.523C843.605 102.743 848.847 101.354 854.725 101.354C863.541 101.354 870.471 104.133 875.515 109.693C880.598 115.253 883.14 123.136 883.14 133.343V140.372H842.096C842.652 144.582 844.32 147.957 847.1 150.499C849.919 153.041 853.474 154.312 857.763 154.312C864.395 154.312 869.577 151.909 873.311 147.104L881.77 156.575C879.188 160.229 875.693 163.088 871.285 165.153C866.877 167.179 861.992 168.191 856.631 168.191ZM854.665 115.293C851.25 115.293 848.47 116.445 846.325 118.748C844.22 121.051 842.87 124.348 842.274 128.637H866.222V127.267C866.142 123.454 865.11 120.515 863.124 118.45C861.138 116.345 858.319 115.293 854.665 115.293ZM962.726 156.039C959.509 159.891 954.962 162.89 949.084 165.034C943.206 167.139 936.693 168.191 929.545 168.191C922.039 168.191 915.447 166.563 909.768 163.307C904.128 160.01 899.76 155.245 896.662 149.01C893.604 142.775 892.035 135.448 891.956 127.028V121.131C891.956 112.473 893.406 104.987 896.305 98.6729C899.243 92.3187 903.453 87.4736 908.934 84.1377C914.454 80.762 920.907 79.0742 928.294 79.0742C938.58 79.0742 946.622 81.5365 952.42 86.4609C958.218 91.3457 961.653 98.4743 962.726 107.847H945.331C944.537 102.882 942.77 99.2487 940.029 96.9453C937.329 94.6419 933.596 93.4902 928.83 93.4902C922.754 93.4902 918.127 95.7738 914.95 100.341C911.773 104.908 910.165 111.699 910.125 120.714V126.254C910.125 135.348 911.853 142.219 915.308 146.865C918.763 151.512 923.826 153.835 930.498 153.835C937.21 153.835 941.995 152.405 944.854 149.546V134.594H928.592V121.429H962.726V156.039ZM992.928 109.574C997.495 104.094 1003.23 101.354 1010.14 101.354C1024.12 101.354 1031.21 109.475 1031.41 125.718V167H1014.19V126.194C1014.19 122.501 1013.4 119.781 1011.81 118.033C1010.22 116.246 1007.58 115.353 1003.89 115.353C998.845 115.353 995.191 117.299 992.928 121.19V167H975.712V75.5H992.928V109.574ZM1041.72 134.177C1041.72 127.783 1042.95 122.084 1045.41 117.08C1047.87 112.076 1051.41 108.204 1056.01 105.464C1060.66 102.724 1066.04 101.354 1072.16 101.354C1080.85 101.354 1087.94 104.014 1093.42 109.336C1098.94 114.658 1102.02 121.885 1102.66 131.02L1102.78 135.428C1102.78 145.316 1100.02 153.259 1094.5 159.256C1088.97 165.213 1081.57 168.191 1072.28 168.191C1062.98 168.191 1055.56 165.213 1050 159.256C1044.48 153.299 1041.72 145.197 1041.72 134.951V134.177ZM1058.93 135.428C1058.93 141.544 1060.08 146.23 1062.39 149.486C1064.69 152.703 1067.99 154.312 1072.28 154.312C1076.45 154.312 1079.7 152.723 1082.04 149.546C1084.39 146.329 1085.56 141.206 1085.56 134.177C1085.56 128.18 1084.39 123.534 1082.04 120.237C1079.7 116.941 1076.41 115.293 1072.16 115.293C1067.95 115.293 1064.69 116.941 1062.39 120.237C1060.08 123.494 1058.93 128.557 1058.93 135.428ZM1148.29 149.188C1148.29 147.084 1147.23 145.436 1145.13 144.244C1143.06 143.013 1139.73 141.921 1135.12 140.968C1119.79 137.751 1112.13 131.238 1112.13 121.429C1112.13 115.71 1114.49 110.944 1119.22 107.132C1123.98 103.28 1130.2 101.354 1137.86 101.354C1146.04 101.354 1152.58 103.28 1157.46 107.132C1162.39 110.984 1164.85 115.988 1164.85 122.144H1147.63C1147.63 119.681 1146.84 117.656 1145.25 116.067C1143.66 114.439 1141.18 113.625 1137.8 113.625C1134.9 113.625 1132.66 114.28 1131.07 115.591C1129.48 116.901 1128.69 118.569 1128.69 120.595C1128.69 122.501 1129.58 124.05 1131.37 125.241C1133.2 126.393 1136.25 127.406 1140.54 128.279C1144.83 129.113 1148.45 130.066 1151.38 131.139C1160.48 134.475 1165.03 140.253 1165.03 148.474C1165.03 154.351 1162.5 159.117 1157.46 162.771C1152.42 166.384 1145.9 168.191 1137.92 168.191C1132.52 168.191 1127.72 167.238 1123.51 165.332C1119.34 163.386 1116.06 160.745 1113.68 157.409C1111.29 154.034 1110.1 150.4 1110.1 146.508H1126.42C1126.58 149.566 1127.72 151.909 1129.82 153.537C1131.93 155.165 1134.74 155.979 1138.28 155.979C1141.58 155.979 1144.06 155.364 1145.73 154.133C1147.43 152.862 1148.29 151.214 1148.29 149.188ZM1196.78 86.6992V102.545H1207.8V115.174H1196.78V147.342C1196.78 149.725 1197.23 151.432 1198.15 152.465C1199.06 153.497 1200.81 154.014 1203.39 154.014C1205.3 154.014 1206.98 153.875 1208.45 153.597V166.643C1205.08 167.675 1201.6 168.191 1198.03 168.191C1185.96 168.191 1179.8 162.095 1179.56 149.903V115.174H1170.15V102.545H1179.56V86.6992H1196.78Z" fill="white"/>
<path d="M286.031 253.406H268.031V272H258.656V226.5H288.281V234.094H268.031V245.844H286.031V253.406ZM311.312 246.656C310.083 246.49 309 246.406 308.062 246.406C304.646 246.406 302.406 247.562 301.344 249.875V272H292.312V238.188H300.844L301.094 242.219C302.906 239.115 305.417 237.562 308.625 237.562C309.625 237.562 310.562 237.698 311.438 237.969L311.312 246.656ZM313.156 254.781C313.156 251.427 313.802 248.438 315.094 245.812C316.385 243.188 318.24 241.156 320.656 239.719C323.094 238.281 325.917 237.562 329.125 237.562C333.688 237.562 337.406 238.958 340.281 241.75C343.177 244.542 344.792 248.333 345.125 253.125L345.188 255.438C345.188 260.625 343.74 264.792 340.844 267.938C337.948 271.062 334.062 272.625 329.188 272.625C324.312 272.625 320.417 271.062 317.5 267.938C314.604 264.812 313.156 260.562 313.156 255.188V254.781ZM322.188 255.438C322.188 258.646 322.792 261.104 324 262.812C325.208 264.5 326.938 265.344 329.188 265.344C331.375 265.344 333.083 264.51 334.312 262.844C335.542 261.156 336.156 258.469 336.156 254.781C336.156 251.635 335.542 249.198 334.312 247.469C333.083 245.74 331.354 244.875 329.125 244.875C326.917 244.875 325.208 245.74 324 247.469C322.792 249.177 322.188 251.833 322.188 255.438ZM359.062 238.188L359.344 242.094C361.76 239.073 365 237.562 369.062 237.562C372.646 237.562 375.312 238.615 377.062 240.719C378.812 242.823 379.708 245.969 379.75 250.156V272H370.719V250.375C370.719 248.458 370.302 247.073 369.469 246.219C368.635 245.344 367.25 244.906 365.312 244.906C362.771 244.906 360.865 245.99 359.594 248.156V272H350.562V238.188H359.062ZM397.438 229.875V238.188H403.219V244.812H397.438V261.688C397.438 262.938 397.677 263.833 398.156 264.375C398.635 264.917 399.552 265.188 400.906 265.188C401.906 265.188 402.792 265.115 403.562 264.969V271.812C401.792 272.354 399.969 272.625 398.094 272.625C391.76 272.625 388.531 269.427 388.406 263.031V244.812H383.469V238.188H388.406V229.875H397.438ZM423.812 272.625C418.854 272.625 414.812 271.104 411.688 268.062C408.583 265.021 407.031 260.969 407.031 255.906V255.031C407.031 251.635 407.688 248.604 409 245.938C410.312 243.25 412.167 241.188 414.562 239.75C416.979 238.292 419.729 237.562 422.812 237.562C427.438 237.562 431.073 239.021 433.719 241.938C436.385 244.854 437.719 248.99 437.719 254.344V258.031H416.188C416.479 260.24 417.354 262.01 418.812 263.344C420.292 264.677 422.156 265.344 424.406 265.344C427.885 265.344 430.604 264.083 432.562 261.562L437 266.531C435.646 268.448 433.812 269.948 431.5 271.031C429.188 272.094 426.625 272.625 423.812 272.625ZM422.781 244.875C420.99 244.875 419.531 245.479 418.406 246.688C417.302 247.896 416.594 249.625 416.281 251.875H428.844V251.156C428.802 249.156 428.26 247.615 427.219 246.531C426.177 245.427 424.698 244.875 422.781 244.875ZM451.188 238.188L451.469 242.094C453.885 239.073 457.125 237.562 461.188 237.562C464.771 237.562 467.438 238.615 469.188 240.719C470.938 242.823 471.833 245.969 471.875 250.156V272H462.844V250.375C462.844 248.458 462.427 247.073 461.594 246.219C460.76 245.344 459.375 244.906 457.438 244.906C454.896 244.906 452.99 245.99 451.719 248.156V272H442.688V238.188H451.188ZM477.344 254.844C477.344 249.573 478.521 245.375 480.875 242.25C483.25 239.125 486.49 237.562 490.594 237.562C493.885 237.562 496.604 238.792 498.75 241.25V224H507.812V272H499.656L499.219 268.406C496.969 271.219 494.073 272.625 490.531 272.625C486.552 272.625 483.354 271.062 480.938 267.938C478.542 264.792 477.344 260.427 477.344 254.844ZM486.375 255.5C486.375 258.667 486.927 261.094 488.031 262.781C489.135 264.469 490.74 265.312 492.844 265.312C495.635 265.312 497.604 264.135 498.75 261.781V248.438C497.625 246.083 495.677 244.906 492.906 244.906C488.552 244.906 486.375 248.438 486.375 255.5ZM566.781 258.875L572.906 226.5H582.25L572.156 272H562.719L555.312 241.562L547.906 272H538.469L528.375 226.5H537.719L543.875 258.812L551.375 226.5H559.312L566.781 258.875ZM601.312 272.625C596.354 272.625 592.312 271.104 589.188 268.062C586.083 265.021 584.531 260.969 584.531 255.906V255.031C584.531 251.635 585.188 248.604 586.5 245.938C587.812 243.25 589.667 241.188 592.062 239.75C594.479 238.292 597.229 237.562 600.312 237.562C604.938 237.562 608.573 239.021 611.219 241.938C613.885 244.854 615.219 248.99 615.219 254.344V258.031H593.688C593.979 260.24 594.854 262.01 596.312 263.344C597.792 264.677 599.656 265.344 601.906 265.344C605.385 265.344 608.104 264.083 610.062 261.562L614.5 266.531C613.146 268.448 611.312 269.948 609 271.031C606.688 272.094 604.125 272.625 601.312 272.625ZM600.281 244.875C598.49 244.875 597.031 245.479 595.906 246.688C594.802 247.896 594.094 249.625 593.781 251.875H606.344V251.156C606.302 249.156 605.76 247.615 604.719 246.531C603.677 245.427 602.198 244.875 600.281 244.875ZM650.844 255.406C650.844 260.823 649.688 265.052 647.375 268.094C645.062 271.115 641.833 272.625 637.688 272.625C634.021 272.625 631.094 271.219 628.906 268.406L628.5 272H620.375V224H629.406V241.219C631.49 238.781 634.229 237.562 637.625 237.562C641.75 237.562 644.979 239.083 647.312 242.125C649.667 245.146 650.844 249.406 650.844 254.906V255.406ZM641.812 254.75C641.812 251.333 641.271 248.844 640.188 247.281C639.104 245.698 637.49 244.906 635.344 244.906C632.469 244.906 630.49 246.083 629.406 248.438V261.781C630.51 264.156 632.51 265.344 635.406 265.344C638.323 265.344 640.24 263.906 641.156 261.031C641.594 259.656 641.812 257.562 641.812 254.75ZM670.969 254.844C670.969 249.573 672.146 245.375 674.5 242.25C676.875 239.125 680.115 237.562 684.219 237.562C687.51 237.562 690.229 238.792 692.375 241.25V224H701.438V272H693.281L692.844 268.406C690.594 271.219 687.698 272.625 684.156 272.625C680.177 272.625 676.979 271.062 674.562 267.938C672.167 264.792 670.969 260.427 670.969 254.844ZM680 255.5C680 258.667 680.552 261.094 681.656 262.781C682.76 264.469 684.365 265.312 686.469 265.312C689.26 265.312 691.229 264.135 692.375 261.781V248.438C691.25 246.083 689.302 244.906 686.531 244.906C682.177 244.906 680 248.438 680 255.5ZM724 272.625C719.042 272.625 715 271.104 711.875 268.062C708.771 265.021 707.219 260.969 707.219 255.906V255.031C707.219 251.635 707.875 248.604 709.188 245.938C710.5 243.25 712.354 241.188 714.75 239.75C717.167 238.292 719.917 237.562 723 237.562C727.625 237.562 731.26 239.021 733.906 241.938C736.573 244.854 737.906 248.99 737.906 254.344V258.031H716.375C716.667 260.24 717.542 262.01 719 263.344C720.479 264.677 722.344 265.344 724.594 265.344C728.073 265.344 730.792 264.083 732.75 261.562L737.188 266.531C735.833 268.448 734 269.948 731.688 271.031C729.375 272.094 726.812 272.625 724 272.625ZM722.969 244.875C721.177 244.875 719.719 245.479 718.594 246.688C717.49 247.896 716.781 249.625 716.469 251.875H729.031V251.156C728.99 249.156 728.448 247.615 727.406 246.531C726.365 245.427 724.885 244.875 722.969 244.875ZM755.281 260.969L761.562 238.188H771L759.594 272H750.969L739.562 238.188H749L755.281 260.969ZM790.125 272.625C785.167 272.625 781.125 271.104 778 268.062C774.896 265.021 773.344 260.969 773.344 255.906V255.031C773.344 251.635 774 248.604 775.312 245.938C776.625 243.25 778.479 241.188 780.875 239.75C783.292 238.292 786.042 237.562 789.125 237.562C793.75 237.562 797.385 239.021 800.031 241.938C802.698 244.854 804.031 248.99 804.031 254.344V258.031H782.5C782.792 260.24 783.667 262.01 785.125 263.344C786.604 264.677 788.469 265.344 790.719 265.344C794.198 265.344 796.917 264.083 798.875 261.562L803.312 266.531C801.958 268.448 800.125 269.948 797.812 271.031C795.5 272.094 792.938 272.625 790.125 272.625ZM789.094 244.875C787.302 244.875 785.844 245.479 784.719 246.688C783.615 247.896 782.906 249.625 782.594 251.875H795.156V251.156C795.115 249.156 794.573 247.615 793.531 246.531C792.49 245.427 791.01 244.875 789.094 244.875ZM818.719 272H809.656V224H818.719V272ZM824.781 254.781C824.781 251.427 825.427 248.438 826.719 245.812C828.01 243.188 829.865 241.156 832.281 239.719C834.719 238.281 837.542 237.562 840.75 237.562C845.312 237.562 849.031 238.958 851.906 241.75C854.802 244.542 856.417 248.333 856.75 253.125L856.812 255.438C856.812 260.625 855.365 264.792 852.469 267.938C849.573 271.062 845.688 272.625 840.812 272.625C835.938 272.625 832.042 271.062 829.125 267.938C826.229 264.812 824.781 260.562 824.781 255.188V254.781ZM833.812 255.438C833.812 258.646 834.417 261.104 835.625 262.812C836.833 264.5 838.562 265.344 840.812 265.344C843 265.344 844.708 264.51 845.938 262.844C847.167 261.156 847.781 258.469 847.781 254.781C847.781 251.635 847.167 249.198 845.938 247.469C844.708 245.74 842.979 244.875 840.75 244.875C838.542 244.875 836.833 245.74 835.625 247.469C834.417 249.177 833.812 251.833 833.812 255.438ZM892.812 255.406C892.812 260.615 891.625 264.792 889.25 267.938C886.896 271.062 883.708 272.625 879.688 272.625C876.271 272.625 873.51 271.438 871.406 269.062V285H862.375V238.188H870.75L871.062 241.5C873.25 238.875 876.104 237.562 879.625 237.562C883.792 237.562 887.031 239.104 889.344 242.188C891.656 245.271 892.812 249.521 892.812 254.938V255.406ZM883.781 254.75C883.781 251.604 883.219 249.177 882.094 247.469C880.99 245.76 879.375 244.906 877.25 244.906C874.417 244.906 872.469 245.99 871.406 248.156V262C872.51 264.229 874.479 265.344 877.312 265.344C881.625 265.344 883.781 261.812 883.781 254.75ZM914 272.625C909.042 272.625 905 271.104 901.875 268.062C898.771 265.021 897.219 260.969 897.219 255.906V255.031C897.219 251.635 897.875 248.604 899.188 245.938C900.5 243.25 902.354 241.188 904.75 239.75C907.167 238.292 909.917 237.562 913 237.562C917.625 237.562 921.26 239.021 923.906 241.938C926.573 244.854 927.906 248.99 927.906 254.344V258.031H906.375C906.667 260.24 907.542 262.01 909 263.344C910.479 264.677 912.344 265.344 914.594 265.344C918.073 265.344 920.792 264.083 922.75 261.562L927.188 266.531C925.833 268.448 924 269.948 921.688 271.031C919.375 272.094 916.812 272.625 914 272.625ZM912.969 244.875C911.177 244.875 909.719 245.479 908.594 246.688C907.49 247.896 906.781 249.625 906.469 251.875H919.031V251.156C918.99 249.156 918.448 247.615 917.406 246.531C916.365 245.427 914.885 244.875 912.969 244.875ZM952.062 246.656C950.833 246.49 949.75 246.406 948.812 246.406C945.396 246.406 943.156 247.562 942.094 249.875V272H933.062V238.188H941.594L941.844 242.219C943.656 239.115 946.167 237.562 949.375 237.562C950.375 237.562 951.312 237.698 952.188 237.969L952.062 246.656ZM971.125 259.75C971.125 257.646 971.708 255.698 972.875 253.906C974.062 252.115 976.229 250.125 979.375 247.938C978.021 246.125 976.958 244.427 976.188 242.844C975.417 241.24 975.031 239.573 975.031 237.844C975.031 234.302 976.146 231.427 978.375 229.219C980.625 226.99 983.646 225.875 987.438 225.875C990.833 225.875 993.615 226.885 995.781 228.906C997.969 230.927 999.062 233.448 999.062 236.469C999.062 240.094 997.229 243.292 993.562 246.062L990.062 248.594L997.906 257.719C999.135 255.302 999.75 252.635 999.75 249.719H1007.44C1007.44 255.635 1006.07 260.427 1003.34 264.094L1010.16 272H999.906L997.562 269.312C994.208 271.521 990.354 272.625 986 272.625C981.5 272.625 977.896 271.448 975.188 269.094C972.479 266.719 971.125 263.604 971.125 259.75ZM986.438 265.375C988.604 265.375 990.656 264.771 992.594 263.562L983.625 253.188L982.969 253.656C981.115 255.24 980.188 257.104 980.188 259.25C980.188 261.062 980.76 262.542 981.906 263.688C983.073 264.812 984.583 265.375 986.438 265.375ZM983.125 237.719C983.125 239.281 984.042 241.25 985.875 243.625L988.281 242.031C989.51 241.24 990.354 240.469 990.812 239.719C991.292 238.969 991.531 238.073 991.531 237.031C991.531 235.99 991.146 235.083 990.375 234.312C989.604 233.542 988.615 233.156 987.406 233.156C986.115 233.156 985.073 233.573 984.281 234.406C983.51 235.24 983.125 236.344 983.125 237.719ZM1048.62 262.656C1048.62 261.552 1048.07 260.688 1046.97 260.062C1045.89 259.417 1044.14 258.844 1041.72 258.344C1033.68 256.656 1029.66 253.24 1029.66 248.094C1029.66 245.094 1030.9 242.594 1033.38 240.594C1035.88 238.573 1039.14 237.562 1043.16 237.562C1047.45 237.562 1050.88 238.573 1053.44 240.594C1056.02 242.615 1057.31 245.24 1057.31 248.469H1048.28C1048.28 247.177 1047.86 246.115 1047.03 245.281C1046.2 244.427 1044.9 244 1043.12 244C1041.6 244 1040.43 244.344 1039.59 245.031C1038.76 245.719 1038.34 246.594 1038.34 247.656C1038.34 248.656 1038.81 249.469 1039.75 250.094C1040.71 250.698 1042.31 251.229 1044.56 251.688C1046.81 252.125 1048.71 252.625 1050.25 253.188C1055.02 254.938 1057.41 257.969 1057.41 262.281C1057.41 265.365 1056.08 267.865 1053.44 269.781C1050.79 271.677 1047.38 272.625 1043.19 272.625C1040.35 272.625 1037.83 272.125 1035.62 271.125C1033.44 270.104 1031.72 268.719 1030.47 266.969C1029.22 265.198 1028.59 263.292 1028.59 261.25H1037.16C1037.24 262.854 1037.83 264.083 1038.94 264.938C1040.04 265.792 1041.52 266.219 1043.38 266.219C1045.1 266.219 1046.41 265.896 1047.28 265.25C1048.18 264.583 1048.62 263.719 1048.62 262.656ZM1074.06 229.875V238.188H1079.84V244.812H1074.06V261.688C1074.06 262.938 1074.3 263.833 1074.78 264.375C1075.26 264.917 1076.18 265.188 1077.53 265.188C1078.53 265.188 1079.42 265.115 1080.19 264.969V271.812C1078.42 272.354 1076.59 272.625 1074.72 272.625C1068.39 272.625 1065.16 269.427 1065.03 263.031V244.812H1060.09V238.188H1065.03V229.875H1074.06ZM1105.12 268.562C1102.9 271.271 1099.81 272.625 1095.88 272.625C1092.25 272.625 1089.48 271.583 1087.56 269.5C1085.67 267.417 1084.7 264.365 1084.66 260.344V238.188H1093.69V260.031C1093.69 263.552 1095.29 265.312 1098.5 265.312C1101.56 265.312 1103.67 264.25 1104.81 262.125V238.188H1113.88V272H1105.38L1105.12 268.562ZM1119.28 254.844C1119.28 249.573 1120.46 245.375 1122.81 242.25C1125.19 239.125 1128.43 237.562 1132.53 237.562C1135.82 237.562 1138.54 238.792 1140.69 241.25V224H1149.75V272H1141.59L1141.16 268.406C1138.91 271.219 1136.01 272.625 1132.47 272.625C1128.49 272.625 1125.29 271.062 1122.88 267.938C1120.48 264.792 1119.28 260.427 1119.28 254.844ZM1128.31 255.5C1128.31 258.667 1128.86 261.094 1129.97 262.781C1131.07 264.469 1132.68 265.312 1134.78 265.312C1137.57 265.312 1139.54 264.135 1140.69 261.781V248.438C1139.56 246.083 1137.61 244.906 1134.84 244.906C1130.49 244.906 1128.31 248.438 1128.31 255.5ZM1172.31 272.625C1167.35 272.625 1163.31 271.104 1160.19 268.062C1157.08 265.021 1155.53 260.969 1155.53 255.906V255.031C1155.53 251.635 1156.19 248.604 1157.5 245.938C1158.81 243.25 1160.67 241.188 1163.06 239.75C1165.48 238.292 1168.23 237.562 1171.31 237.562C1175.94 237.562 1179.57 239.021 1182.22 241.938C1184.89 244.854 1186.22 248.99 1186.22 254.344V258.031H1164.69C1164.98 260.24 1165.85 262.01 1167.31 263.344C1168.79 264.677 1170.66 265.344 1172.91 265.344C1176.39 265.344 1179.1 264.083 1181.06 261.562L1185.5 266.531C1184.15 268.448 1182.31 269.948 1180 271.031C1177.69 272.094 1175.12 272.625 1172.31 272.625ZM1171.28 244.875C1169.49 244.875 1168.03 245.479 1166.91 246.688C1165.8 247.896 1165.09 249.625 1164.78 251.875H1177.34V251.156C1177.3 249.156 1176.76 247.615 1175.72 246.531C1174.68 245.427 1173.2 244.875 1171.28 244.875ZM1199.69 238.188L1199.97 242.094C1202.39 239.073 1205.62 237.562 1209.69 237.562C1213.27 237.562 1215.94 238.615 1217.69 240.719C1219.44 242.823 1220.33 245.969 1220.38 250.156V272H1211.34V250.375C1211.34 248.458 1210.93 247.073 1210.09 246.219C1209.26 245.344 1207.88 244.906 1205.94 244.906C1203.4 244.906 1201.49 245.99 1200.22 248.156V272H1191.19V238.188H1199.69ZM1238.06 229.875V238.188H1243.84V244.812H1238.06V261.688C1238.06 262.938 1238.3 263.833 1238.78 264.375C1239.26 264.917 1240.18 265.188 1241.53 265.188C1242.53 265.188 1243.42 265.115 1244.19 264.969V271.812C1242.42 272.354 1240.59 272.625 1238.72 272.625C1232.39 272.625 1229.16 269.427 1229.03 263.031V244.812H1224.09V238.188H1229.03V229.875H1238.06Z" fill="#DDDDDD"/>
</svg>
