<svg width="850" height="200" viewBox="0 0 850 200" fill="none" xmlns="http://www.w3.org/2000/svg">
<rect width="850" height="200" fill="#E5E5E5"/>
<rect width="850" height="200" fill="#343647"/>
<path d="M125.125 91.3438C124.281 98.5625 121.609 104.141 117.109 108.078C112.641 111.984 106.688 113.938 99.25 113.938C91.1875 113.938 84.7188 111.047 79.8438 105.266C75 99.4844 72.5781 91.75 72.5781 82.0625V75.5C72.5781 69.1562 73.7031 63.5781 75.9531 58.7656C78.2344 53.9531 81.4531 50.2656 85.6094 47.7031C89.7656 45.1094 94.5781 43.8125 100.047 43.8125C107.297 43.8125 113.109 45.8438 117.484 49.9062C121.859 53.9375 124.406 59.5312 125.125 66.6875H116.078C115.297 61.25 113.594 57.3125 110.969 54.875C108.375 52.4375 104.734 51.2188 100.047 51.2188C94.2969 51.2188 89.7812 53.3438 86.5 57.5938C83.25 61.8438 81.625 67.8906 81.625 75.7344V82.3438C81.625 89.75 83.1719 95.6406 86.2656 100.016C89.3594 104.391 93.6875 106.578 99.25 106.578C104.25 106.578 108.078 105.453 110.734 103.203C113.422 100.922 115.203 96.9688 116.078 91.3438H125.125ZM167.406 113C166.906 112 166.5 110.219 166.188 107.656C162.156 111.844 157.344 113.938 151.75 113.938C146.75 113.938 142.641 112.531 139.422 109.719C136.234 106.875 134.641 103.281 134.641 98.9375C134.641 93.6562 136.641 89.5625 140.641 86.6562C144.672 83.7188 150.328 82.25 157.609 82.25H166.047V78.2656C166.047 75.2344 165.141 72.8281 163.328 71.0469C161.516 69.2344 158.844 68.3281 155.312 68.3281C152.219 68.3281 149.625 69.1094 147.531 70.6719C145.438 72.2344 144.391 74.125 144.391 76.3438H135.672C135.672 73.8125 136.562 71.375 138.344 69.0312C140.156 66.6562 142.594 64.7812 145.656 63.4062C148.75 62.0312 152.141 61.3438 155.828 61.3438C161.672 61.3438 166.25 62.8125 169.562 65.75C172.875 68.6562 174.594 72.6719 174.719 77.7969V101.141C174.719 105.797 175.312 109.5 176.5 112.25V113H167.406ZM153.016 106.391C155.734 106.391 158.312 105.688 160.75 104.281C163.188 102.875 164.953 101.047 166.047 98.7969V88.3906H159.25C148.625 88.3906 143.312 91.5 143.312 97.7188C143.312 100.438 144.219 102.562 146.031 104.094C147.844 105.625 150.172 106.391 153.016 106.391ZM217.844 99.5469C217.844 97.2031 216.953 95.3906 215.172 94.1094C213.422 92.7969 210.344 91.6719 205.938 90.7344C201.562 89.7969 198.078 88.6719 195.484 87.3594C192.922 86.0469 191.016 84.4844 189.766 82.6719C188.547 80.8594 187.938 78.7031 187.938 76.2031C187.938 72.0469 189.688 68.5312 193.188 65.6562C196.719 62.7812 201.219 61.3438 206.688 61.3438C212.438 61.3438 217.094 62.8281 220.656 65.7969C224.25 68.7656 226.047 72.5625 226.047 77.1875H217.328C217.328 74.8125 216.312 72.7656 214.281 71.0469C212.281 69.3281 209.75 68.4688 206.688 68.4688C203.531 68.4688 201.062 69.1562 199.281 70.5312C197.5 71.9062 196.609 73.7031 196.609 75.9219C196.609 78.0156 197.438 79.5938 199.094 80.6562C200.75 81.7188 203.734 82.7344 208.047 83.7031C212.391 84.6719 215.906 85.8281 218.594 87.1719C221.281 88.5156 223.266 90.1406 224.547 92.0469C225.859 93.9219 226.516 96.2188 226.516 98.9375C226.516 103.469 224.703 107.109 221.078 109.859C217.453 112.578 212.75 113.938 206.969 113.938C202.906 113.938 199.312 113.219 196.188 111.781C193.062 110.344 190.609 108.344 188.828 105.781C187.078 103.188 186.203 100.391 186.203 97.3906H194.875C195.031 100.297 196.188 102.609 198.344 104.328C200.531 106.016 203.406 106.859 206.969 106.859C210.25 106.859 212.875 106.203 214.844 104.891C216.844 103.547 217.844 101.766 217.844 99.5469ZM280.656 88.2031C280.656 95.9219 278.891 102.141 275.359 106.859C271.828 111.578 267.047 113.938 261.016 113.938C254.859 113.938 250.016 111.984 246.484 108.078V132.5H237.812V62.2812H245.734L246.156 67.9062C249.688 63.5312 254.594 61.3438 260.875 61.3438C266.969 61.3438 271.781 63.6406 275.312 68.2344C278.875 72.8281 280.656 79.2188 280.656 87.4062V88.2031ZM271.984 87.2188C271.984 81.5 270.766 76.9844 268.328 73.6719C265.891 70.3594 262.547 68.7031 258.297 68.7031C253.047 68.7031 249.109 71.0312 246.484 75.6875V99.9219C249.078 104.547 253.047 106.859 258.391 106.859C262.547 106.859 265.844 105.219 268.281 101.938C270.75 98.625 271.984 93.7188 271.984 87.2188ZM312.766 113.938C305.891 113.938 300.297 111.688 295.984 107.188C291.672 102.656 289.516 96.6094 289.516 89.0469V87.4531C289.516 82.4219 290.469 77.9375 292.375 74C294.312 70.0312 297 66.9375 300.438 64.7188C303.906 62.4688 307.656 61.3438 311.688 61.3438C318.281 61.3438 323.406 63.5156 327.062 67.8594C330.719 72.2031 332.547 78.4219 332.547 86.5156V90.125H298.188C298.312 95.125 299.766 99.1719 302.547 102.266C305.359 105.328 308.922 106.859 313.234 106.859C316.297 106.859 318.891 106.234 321.016 104.984C323.141 103.734 325 102.078 326.594 100.016L331.891 104.141C327.641 110.672 321.266 113.938 312.766 113.938ZM311.688 68.4688C308.188 68.4688 305.25 69.75 302.875 72.3125C300.5 74.8438 299.031 78.4062 298.469 83H323.875V82.3438C323.625 77.9375 322.438 74.5312 320.312 72.125C318.188 69.6875 315.312 68.4688 311.688 68.4688ZM367.141 70.0625C365.828 69.8438 364.406 69.7344 362.875 69.7344C357.188 69.7344 353.328 72.1562 351.297 77V113H342.625V62.2812H351.062L351.203 68.1406C354.047 63.6094 358.078 61.3438 363.297 61.3438C364.984 61.3438 366.266 61.5625 367.141 62V70.0625ZM423.672 52.1562H401.734V113H392.781V52.1562H370.891V44.75H423.672V52.1562ZM441.109 68.4219C444.953 63.7031 449.953 61.3438 456.109 61.3438C466.828 61.3438 472.234 67.3906 472.328 79.4844V113H463.656V79.4375C463.625 75.7812 462.781 73.0781 461.125 71.3281C459.5 69.5781 456.953 68.7031 453.484 68.7031C450.672 68.7031 448.203 69.4531 446.078 70.9531C443.953 72.4531 442.297 74.4219 441.109 76.8594V113H432.438V41H441.109V68.4219ZM506.359 113.938C499.484 113.938 493.891 111.688 489.578 107.188C485.266 102.656 483.109 96.6094 483.109 89.0469V87.4531C483.109 82.4219 484.062 77.9375 485.969 74C487.906 70.0312 490.594 66.9375 494.031 64.7188C497.5 62.4688 501.25 61.3438 505.281 61.3438C511.875 61.3438 517 63.5156 520.656 67.8594C524.312 72.2031 526.141 78.4219 526.141 86.5156V90.125H491.781C491.906 95.125 493.359 99.1719 496.141 102.266C498.953 105.328 502.516 106.859 506.828 106.859C509.891 106.859 512.484 106.234 514.609 104.984C516.734 103.734 518.594 102.078 520.188 100.016L525.484 104.141C521.234 110.672 514.859 113.938 506.359 113.938ZM505.281 68.4688C501.781 68.4688 498.844 69.75 496.469 72.3125C494.094 74.8438 492.625 78.4062 492.062 83H517.469V82.3438C517.219 77.9375 516.031 74.5312 513.906 72.125C511.781 69.6875 508.906 68.4688 505.281 68.4688ZM587.969 104.047C585.656 107.359 582.422 109.844 578.266 111.5C574.141 113.125 569.328 113.938 563.828 113.938C558.266 113.938 553.328 112.641 549.016 110.047C544.703 107.422 541.359 103.703 538.984 98.8906C536.641 94.0781 535.438 88.5 535.375 82.1562V76.2031C535.375 65.9219 537.766 57.9531 542.547 52.2969C547.359 46.6406 554.109 43.8125 562.797 43.8125C569.922 43.8125 575.656 45.6406 580 49.2969C584.344 52.9219 587 58.0781 587.969 64.7656H578.969C577.281 55.7344 571.906 51.2188 562.844 51.2188C556.812 51.2188 552.234 53.3438 549.109 57.5938C546.016 61.8125 544.453 67.9375 544.422 75.9688V81.5469C544.422 89.2031 546.172 95.2969 549.672 99.8281C553.172 104.328 557.906 106.578 563.875 106.578C567.25 106.578 570.203 106.203 572.734 105.453C575.266 104.703 577.359 103.438 579.016 101.656V86.3281H563.219V79.0156H587.969V104.047ZM610.328 68.4219C614.172 63.7031 619.172 61.3438 625.328 61.3438C636.047 61.3438 641.453 67.3906 641.547 79.4844V113H632.875V79.4375C632.844 75.7812 632 73.0781 630.344 71.3281C628.719 69.5781 626.172 68.7031 622.703 68.7031C619.891 68.7031 617.422 69.4531 615.297 70.9531C613.172 72.4531 611.516 74.4219 610.328 76.8594V113H601.656V41H610.328V68.4219ZM652.234 87.1719C652.234 82.2031 653.203 77.7344 655.141 73.7656C657.109 69.7969 659.828 66.7344 663.297 64.5781C666.797 62.4219 670.781 61.3438 675.25 61.3438C682.156 61.3438 687.734 63.7344 691.984 68.5156C696.266 73.2969 698.406 79.6562 698.406 87.5938V88.2031C698.406 93.1406 697.453 97.5781 695.547 101.516C693.672 105.422 690.969 108.469 687.438 110.656C683.938 112.844 679.906 113.938 675.344 113.938C668.469 113.938 662.891 111.547 658.609 106.766C654.359 101.984 652.234 95.6562 652.234 87.7812V87.1719ZM660.953 88.2031C660.953 93.8281 662.25 98.3438 664.844 101.75C667.469 105.156 670.969 106.859 675.344 106.859C679.75 106.859 683.25 105.141 685.844 101.703C688.438 98.2344 689.734 93.3906 689.734 87.1719C689.734 81.6094 688.406 77.1094 685.75 73.6719C683.125 70.2031 679.625 68.4688 675.25 68.4688C670.969 68.4688 667.516 70.1719 664.891 73.5781C662.266 76.9844 660.953 81.8594 660.953 88.2031ZM738.812 99.5469C738.812 97.2031 737.922 95.3906 736.141 94.1094C734.391 92.7969 731.312 91.6719 726.906 90.7344C722.531 89.7969 719.047 88.6719 716.453 87.3594C713.891 86.0469 711.984 84.4844 710.734 82.6719C709.516 80.8594 708.906 78.7031 708.906 76.2031C708.906 72.0469 710.656 68.5312 714.156 65.6562C717.688 62.7812 722.188 61.3438 727.656 61.3438C733.406 61.3438 738.062 62.8281 741.625 65.7969C745.219 68.7656 747.016 72.5625 747.016 77.1875H738.297C738.297 74.8125 737.281 72.7656 735.25 71.0469C733.25 69.3281 730.719 68.4688 727.656 68.4688C724.5 68.4688 722.031 69.1562 720.25 70.5312C718.469 71.9062 717.578 73.7031 717.578 75.9219C717.578 78.0156 718.406 79.5938 720.062 80.6562C721.719 81.7188 724.703 82.7344 729.016 83.7031C733.359 84.6719 736.875 85.8281 739.562 87.1719C742.25 88.5156 744.234 90.1406 745.516 92.0469C746.828 93.9219 747.484 96.2188 747.484 98.9375C747.484 103.469 745.672 107.109 742.047 109.859C738.422 112.578 733.719 113.938 727.938 113.938C723.875 113.938 720.281 113.219 717.156 111.781C714.031 110.344 711.578 108.344 709.797 105.781C708.047 103.188 707.172 100.391 707.172 97.3906H715.844C716 100.297 717.156 102.609 719.312 104.328C721.5 106.016 724.375 106.859 727.938 106.859C731.219 106.859 733.844 106.203 735.812 104.891C737.812 103.547 738.812 101.766 738.812 99.5469ZM770.547 50V62.2812H780.016V68.9844H770.547V100.438C770.547 102.469 770.969 104 771.812 105.031C772.656 106.031 774.094 106.531 776.125 106.531C777.125 106.531 778.5 106.344 780.25 105.969V113C777.969 113.625 775.75 113.938 773.594 113.938C769.719 113.938 766.797 112.766 764.828 110.422C762.859 108.078 761.875 104.75 761.875 100.438V68.9844H752.641V62.2812H761.875V50H770.547Z" fill="#DDDDDD"/>
<path d="M201.086 163.697H190.346V175H186.971V149.406H202.826V152.184H190.346V160.938H201.086V163.697ZM215.096 158.898C214.604 158.816 214.07 158.775 213.496 158.775C211.363 158.775 209.916 159.684 209.154 161.5V175H205.902V155.98H209.066L209.119 158.178C210.186 156.479 211.697 155.629 213.654 155.629C214.287 155.629 214.768 155.711 215.096 155.875V158.898ZM216.889 165.314C216.889 163.451 217.252 161.775 217.979 160.287C218.717 158.799 219.736 157.65 221.037 156.842C222.35 156.033 223.844 155.629 225.52 155.629C228.109 155.629 230.201 156.525 231.795 158.318C233.4 160.111 234.203 162.496 234.203 165.473V165.701C234.203 167.553 233.846 169.217 233.131 170.693C232.428 172.158 231.414 173.301 230.09 174.121C228.777 174.941 227.266 175.352 225.555 175.352C222.977 175.352 220.885 174.455 219.279 172.662C217.686 170.869 216.889 168.496 216.889 165.543V165.314ZM220.158 165.701C220.158 167.811 220.645 169.504 221.617 170.781C222.602 172.059 223.914 172.697 225.555 172.697C227.207 172.697 228.52 172.053 229.492 170.764C230.465 169.463 230.951 167.646 230.951 165.314C230.951 163.229 230.453 161.541 229.457 160.252C228.473 158.951 227.16 158.301 225.52 158.301C223.914 158.301 222.619 158.939 221.635 160.217C220.65 161.494 220.158 163.322 220.158 165.701ZM241.357 155.98L241.463 158.371C242.916 156.543 244.814 155.629 247.158 155.629C251.178 155.629 253.205 157.896 253.24 162.432V175H249.988V162.414C249.977 161.043 249.66 160.029 249.039 159.373C248.43 158.717 247.475 158.389 246.174 158.389C245.119 158.389 244.193 158.67 243.396 159.232C242.6 159.795 241.979 160.533 241.533 161.447V175H238.281V155.98H241.357ZM262.557 151.375V155.98H266.107V158.494H262.557V170.289C262.557 171.051 262.715 171.625 263.031 172.012C263.348 172.387 263.887 172.574 264.648 172.574C265.023 172.574 265.539 172.504 266.195 172.363V175C265.34 175.234 264.508 175.352 263.699 175.352C262.246 175.352 261.15 174.912 260.412 174.033C259.674 173.154 259.305 171.906 259.305 170.289V158.494H255.842V155.98H259.305V151.375H262.557ZM277.814 175.352C275.236 175.352 273.139 174.508 271.521 172.82C269.904 171.121 269.096 168.854 269.096 166.018V165.42C269.096 163.533 269.453 161.852 270.168 160.375C270.895 158.887 271.902 157.727 273.191 156.895C274.492 156.051 275.898 155.629 277.41 155.629C279.883 155.629 281.805 156.443 283.176 158.072C284.547 159.701 285.232 162.033 285.232 165.068V166.422H272.348C272.395 168.297 272.939 169.814 273.982 170.975C275.037 172.123 276.373 172.697 277.99 172.697C279.139 172.697 280.111 172.463 280.908 171.994C281.705 171.525 282.402 170.904 283 170.131L284.986 171.678C283.393 174.127 281.002 175.352 277.814 175.352ZM277.41 158.301C276.098 158.301 274.996 158.781 274.105 159.742C273.215 160.691 272.664 162.027 272.453 163.75H281.98V163.504C281.887 161.852 281.441 160.574 280.645 159.672C279.848 158.758 278.77 158.301 277.41 158.301ZM292.088 155.98L292.193 158.371C293.646 156.543 295.545 155.629 297.889 155.629C301.908 155.629 303.936 157.896 303.971 162.432V175H300.719V162.414C300.707 161.043 300.391 160.029 299.77 159.373C299.16 158.717 298.205 158.389 296.904 158.389C295.85 158.389 294.924 158.67 294.127 159.232C293.33 159.795 292.709 160.533 292.264 161.447V175H289.012V155.98H292.088ZM308.084 165.332C308.084 162.414 308.775 160.07 310.158 158.301C311.541 156.52 313.352 155.629 315.59 155.629C317.816 155.629 319.58 156.391 320.881 157.914V148H324.133V175H321.145L320.986 172.961C319.686 174.555 317.875 175.352 315.555 175.352C313.352 175.352 311.553 174.449 310.158 172.645C308.775 170.84 308.084 168.484 308.084 165.578V165.332ZM311.336 165.701C311.336 167.857 311.781 169.545 312.672 170.764C313.562 171.982 314.793 172.592 316.363 172.592C318.426 172.592 319.932 171.666 320.881 169.814V161.078C319.908 159.285 318.414 158.389 316.398 158.389C314.805 158.389 313.562 159.004 312.672 160.234C311.781 161.465 311.336 163.287 311.336 165.701ZM337.334 165.332C337.334 162.414 338.025 160.07 339.408 158.301C340.791 156.52 342.602 155.629 344.84 155.629C347.066 155.629 348.83 156.391 350.131 157.914V148H353.383V175H350.395L350.236 172.961C348.936 174.555 347.125 175.352 344.805 175.352C342.602 175.352 340.803 174.449 339.408 172.645C338.025 170.84 337.334 168.484 337.334 165.578V165.332ZM340.586 165.701C340.586 167.857 341.031 169.545 341.922 170.764C342.812 171.982 344.043 172.592 345.613 172.592C347.676 172.592 349.182 171.666 350.131 169.814V161.078C349.158 159.285 347.664 158.389 345.648 158.389C344.055 158.389 342.812 159.004 341.922 160.234C341.031 161.465 340.586 163.287 340.586 165.701ZM366.338 175.352C363.76 175.352 361.662 174.508 360.045 172.82C358.428 171.121 357.619 168.854 357.619 166.018V165.42C357.619 163.533 357.977 161.852 358.691 160.375C359.418 158.887 360.426 157.727 361.715 156.895C363.016 156.051 364.422 155.629 365.934 155.629C368.406 155.629 370.328 156.443 371.699 158.072C373.07 159.701 373.756 162.033 373.756 165.068V166.422H360.871C360.918 168.297 361.463 169.814 362.506 170.975C363.561 172.123 364.896 172.697 366.514 172.697C367.662 172.697 368.635 172.463 369.432 171.994C370.229 171.525 370.926 170.904 371.523 170.131L373.51 171.678C371.916 174.127 369.525 175.352 366.338 175.352ZM365.934 158.301C364.621 158.301 363.52 158.781 362.629 159.742C361.738 160.691 361.188 162.027 360.977 163.75H370.504V163.504C370.41 161.852 369.965 160.574 369.168 159.672C368.371 158.758 367.293 158.301 365.934 158.301ZM383.564 170.588L388.275 155.98H391.598L384.777 175H382.299L375.408 155.98H378.73L383.564 170.588ZM402.373 175.352C399.795 175.352 397.697 174.508 396.08 172.82C394.463 171.121 393.654 168.854 393.654 166.018V165.42C393.654 163.533 394.012 161.852 394.727 160.375C395.453 158.887 396.461 157.727 397.75 156.895C399.051 156.051 400.457 155.629 401.969 155.629C404.441 155.629 406.363 156.443 407.734 158.072C409.105 159.701 409.791 162.033 409.791 165.068V166.422H396.906C396.953 168.297 397.498 169.814 398.541 170.975C399.596 172.123 400.932 172.697 402.549 172.697C403.697 172.697 404.67 172.463 405.467 171.994C406.264 171.525 406.961 170.904 407.559 170.131L409.545 171.678C407.951 174.127 405.561 175.352 402.373 175.352ZM401.969 158.301C400.656 158.301 399.555 158.781 398.664 159.742C397.773 160.691 397.223 162.027 397.012 163.75H406.539V163.504C406.445 161.852 406 160.574 405.203 159.672C404.406 158.758 403.328 158.301 401.969 158.301ZM417.104 175H413.852V148H417.104V175ZM421.463 165.314C421.463 163.451 421.826 161.775 422.553 160.287C423.291 158.799 424.311 157.65 425.611 156.842C426.924 156.033 428.418 155.629 430.094 155.629C432.684 155.629 434.775 156.525 436.369 158.318C437.975 160.111 438.777 162.496 438.777 165.473V165.701C438.777 167.553 438.42 169.217 437.705 170.693C437.002 172.158 435.988 173.301 434.664 174.121C433.352 174.941 431.84 175.352 430.129 175.352C427.551 175.352 425.459 174.455 423.854 172.662C422.26 170.869 421.463 168.496 421.463 165.543V165.314ZM424.732 165.701C424.732 167.811 425.219 169.504 426.191 170.781C427.176 172.059 428.488 172.697 430.129 172.697C431.781 172.697 433.094 172.053 434.066 170.764C435.039 169.463 435.525 167.646 435.525 165.314C435.525 163.229 435.027 161.541 434.031 160.252C433.047 158.951 431.734 158.301 430.094 158.301C428.488 158.301 427.193 158.939 426.209 160.217C425.225 161.494 424.732 163.322 424.732 165.701ZM458.922 165.701C458.922 168.596 458.26 170.928 456.936 172.697C455.611 174.467 453.818 175.352 451.557 175.352C449.248 175.352 447.432 174.619 446.107 173.154V182.312H442.855V155.98H445.826L445.984 158.09C447.309 156.449 449.148 155.629 451.504 155.629C453.789 155.629 455.594 156.49 456.918 158.213C458.254 159.936 458.922 162.332 458.922 165.402V165.701ZM455.67 165.332C455.67 163.188 455.213 161.494 454.299 160.252C453.385 159.01 452.131 158.389 450.537 158.389C448.568 158.389 447.092 159.262 446.107 161.008V170.096C447.08 171.83 448.568 172.697 450.572 172.697C452.131 172.697 453.367 172.082 454.281 170.852C455.207 169.609 455.67 167.77 455.67 165.332ZM470.963 175.352C468.385 175.352 466.287 174.508 464.67 172.82C463.053 171.121 462.244 168.854 462.244 166.018V165.42C462.244 163.533 462.602 161.852 463.316 160.375C464.043 158.887 465.051 157.727 466.34 156.895C467.641 156.051 469.047 155.629 470.559 155.629C473.031 155.629 474.953 156.443 476.324 158.072C477.695 159.701 478.381 162.033 478.381 165.068V166.422H465.496C465.543 168.297 466.088 169.814 467.131 170.975C468.186 172.123 469.521 172.697 471.139 172.697C472.287 172.697 473.26 172.463 474.057 171.994C474.854 171.525 475.551 170.904 476.148 170.131L478.135 171.678C476.541 174.127 474.15 175.352 470.963 175.352ZM470.559 158.301C469.246 158.301 468.145 158.781 467.254 159.742C466.363 160.691 465.812 162.027 465.602 163.75H475.129V163.504C475.035 161.852 474.59 160.574 473.793 159.672C472.996 158.758 471.918 158.301 470.559 158.301ZM491.354 158.898C490.861 158.816 490.328 158.775 489.754 158.775C487.621 158.775 486.174 159.684 485.412 161.5V175H482.16V155.98H485.324L485.377 158.178C486.443 156.479 487.955 155.629 489.912 155.629C490.545 155.629 491.025 155.711 491.354 155.875V158.898ZM502.604 168.127C502.604 166.896 502.943 165.766 503.623 164.734C504.314 163.703 505.627 162.502 507.561 161.131C506.424 159.748 505.662 158.635 505.275 157.791C504.889 156.947 504.695 156.109 504.695 155.277C504.695 153.332 505.27 151.809 506.418 150.707C507.566 149.605 509.125 149.055 511.094 149.055C512.852 149.055 514.305 149.57 515.453 150.602C516.602 151.621 517.176 152.91 517.176 154.469C517.176 155.5 516.912 156.455 516.385 157.334C515.869 158.201 514.961 159.115 513.66 160.076L511.779 161.465L517.475 168.268C518.271 166.744 518.67 165.051 518.67 163.188H521.605C521.605 166.176 520.885 168.654 519.443 170.623L523.1 175H519.197L517.492 172.979C516.625 173.752 515.605 174.344 514.434 174.754C513.273 175.152 512.09 175.352 510.883 175.352C508.387 175.352 506.383 174.689 504.871 173.365C503.359 172.041 502.604 170.295 502.604 168.127ZM510.883 172.697C512.605 172.697 514.182 172.041 515.611 170.729L509.371 163.258L508.791 163.68C506.834 165.121 505.855 166.604 505.855 168.127C505.855 169.51 506.301 170.617 507.191 171.449C508.094 172.281 509.324 172.697 510.883 172.697ZM507.947 155.172C507.947 156.297 508.639 157.703 510.021 159.391L512.096 157.932C512.893 157.369 513.438 156.836 513.73 156.332C514.023 155.816 514.17 155.195 514.17 154.469C514.17 153.684 513.877 153.033 513.291 152.518C512.705 151.99 511.967 151.727 511.076 151.727C510.115 151.727 509.354 152.055 508.791 152.711C508.229 153.355 507.947 154.176 507.947 155.172ZM545.688 169.955C545.688 169.076 545.354 168.396 544.686 167.916C544.029 167.424 542.875 167.002 541.223 166.65C539.582 166.299 538.275 165.877 537.303 165.385C536.342 164.893 535.627 164.307 535.158 163.627C534.701 162.947 534.473 162.139 534.473 161.201C534.473 159.643 535.129 158.324 536.441 157.246C537.766 156.168 539.453 155.629 541.504 155.629C543.66 155.629 545.406 156.186 546.742 157.299C548.09 158.412 548.764 159.836 548.764 161.57H545.494C545.494 160.68 545.113 159.912 544.352 159.268C543.602 158.623 542.652 158.301 541.504 158.301C540.32 158.301 539.395 158.559 538.727 159.074C538.059 159.59 537.725 160.264 537.725 161.096C537.725 161.881 538.035 162.473 538.656 162.871C539.277 163.27 540.396 163.65 542.014 164.014C543.643 164.377 544.961 164.811 545.969 165.314C546.977 165.818 547.721 166.428 548.201 167.143C548.693 167.846 548.939 168.707 548.939 169.727C548.939 171.426 548.26 172.791 546.9 173.822C545.541 174.842 543.777 175.352 541.609 175.352C540.086 175.352 538.738 175.082 537.566 174.543C536.395 174.004 535.475 173.254 534.807 172.293C534.15 171.32 533.822 170.271 533.822 169.146H537.074C537.133 170.236 537.566 171.104 538.375 171.748C539.195 172.381 540.273 172.697 541.609 172.697C542.84 172.697 543.824 172.451 544.562 171.959C545.312 171.455 545.688 170.787 545.688 169.955ZM557.588 151.375V155.98H561.139V158.494H557.588V170.289C557.588 171.051 557.746 171.625 558.062 172.012C558.379 172.387 558.918 172.574 559.68 172.574C560.055 172.574 560.57 172.504 561.227 172.363V175C560.371 175.234 559.539 175.352 558.73 175.352C557.277 175.352 556.182 174.912 555.443 174.033C554.705 173.154 554.336 171.906 554.336 170.289V158.494H550.873V155.98H554.336V151.375H557.588ZM576.695 173.119C575.43 174.607 573.572 175.352 571.123 175.352C569.096 175.352 567.549 174.766 566.482 173.594C565.428 172.41 564.895 170.664 564.883 168.355V155.98H568.135V168.268C568.135 171.15 569.307 172.592 571.65 172.592C574.135 172.592 575.787 171.666 576.607 169.814V155.98H579.859V175H576.766L576.695 173.119ZM584.025 165.332C584.025 162.414 584.717 160.07 586.1 158.301C587.482 156.52 589.293 155.629 591.531 155.629C593.758 155.629 595.521 156.391 596.822 157.914V148H600.074V175H597.086L596.928 172.961C595.627 174.555 593.816 175.352 591.496 175.352C589.293 175.352 587.494 174.449 586.1 172.645C584.717 170.84 584.025 168.484 584.025 165.578V165.332ZM587.277 165.701C587.277 167.857 587.723 169.545 588.613 170.764C589.504 171.982 590.734 172.592 592.305 172.592C594.367 172.592 595.873 171.666 596.822 169.814V161.078C595.85 159.285 594.355 158.389 592.34 158.389C590.746 158.389 589.504 159.004 588.613 160.234C587.723 161.465 587.277 163.287 587.277 165.701ZM613.029 175.352C610.451 175.352 608.354 174.508 606.736 172.82C605.119 171.121 604.311 168.854 604.311 166.018V165.42C604.311 163.533 604.668 161.852 605.383 160.375C606.109 158.887 607.117 157.727 608.406 156.895C609.707 156.051 611.113 155.629 612.625 155.629C615.098 155.629 617.02 156.443 618.391 158.072C619.762 159.701 620.447 162.033 620.447 165.068V166.422H607.562C607.609 168.297 608.154 169.814 609.197 170.975C610.252 172.123 611.588 172.697 613.205 172.697C614.354 172.697 615.326 172.463 616.123 171.994C616.92 171.525 617.617 170.904 618.215 170.131L620.201 171.678C618.607 174.127 616.217 175.352 613.029 175.352ZM612.625 158.301C611.312 158.301 610.211 158.781 609.32 159.742C608.43 160.691 607.879 162.027 607.668 163.75H617.195V163.504C617.102 161.852 616.656 160.574 615.859 159.672C615.062 158.758 613.984 158.301 612.625 158.301ZM627.303 155.98L627.408 158.371C628.861 156.543 630.76 155.629 633.104 155.629C637.123 155.629 639.15 157.896 639.186 162.432V175H635.934V162.414C635.922 161.043 635.605 160.029 634.984 159.373C634.375 158.717 633.42 158.389 632.119 158.389C631.064 158.389 630.139 158.67 629.342 159.232C628.545 159.795 627.924 160.533 627.479 161.447V175H624.227V155.98H627.303ZM648.502 151.375V155.98H652.053V158.494H648.502V170.289C648.502 171.051 648.66 171.625 648.977 172.012C649.293 172.387 649.832 172.574 650.594 172.574C650.969 172.574 651.484 172.504 652.141 172.363V175C651.285 175.234 650.453 175.352 649.645 175.352C648.191 175.352 647.096 174.912 646.357 174.033C645.619 173.154 645.25 171.906 645.25 170.289V158.494H641.787V155.98H645.25V151.375H648.502Z" fill="#BBBBBB"/>
</svg>
