<svg width="1500" height="500" viewBox="0 0 1500 500" fill="none" xmlns="http://www.w3.org/2000/svg">
<g clip-path="url(#clip0)">
<rect width="1500" height="500" fill="#CBD6E3"/>
<path d="M207.628 269.728C199.564 269.728 192.22 267.856 185.596 264.112C179.068 260.368 173.884 254.896 170.044 247.696C166.204 240.4 164.284 231.664 164.284 221.488C164.284 211.408 166.252 202.672 170.188 195.28C174.124 187.792 179.452 182.08 186.172 178.144C192.892 174.208 200.236 172.24 208.204 172.24C213.868 172.24 219.052 173.392 223.756 175.696C228.556 177.904 232.684 180.784 236.14 184.336L225.628 197.008C223.036 194.512 220.348 192.64 217.564 191.392C214.876 190.048 211.9 189.376 208.636 189.376C204.028 189.376 199.9 190.672 196.252 193.264C192.604 195.76 189.724 199.408 187.612 204.208C185.596 208.912 184.588 214.432 184.588 220.768C184.588 230.656 186.7 238.432 190.924 244.096C195.244 249.76 201.052 252.592 208.348 252.592C215.548 252.592 221.836 249.568 227.212 243.52L237.724 255.904C229.852 265.12 219.82 269.728 207.628 269.728ZM296.343 244.528H266.823L260.487 268H240.327L270.279 173.968H293.751L323.559 268H302.679L296.343 244.528ZM292.311 229.264L289.719 219.616C288.567 215.392 286.839 208.768 284.535 199.744L281.799 189.088H281.223C278.343 201.472 275.799 211.648 273.591 219.616L270.999 229.264H292.311ZM362.635 269.728C356.299 269.728 350.107 268.576 344.059 266.272C338.011 263.872 332.683 260.464 328.075 256.048L339.451 242.512C342.907 245.584 346.699 248.032 350.827 249.856C355.051 251.68 359.131 252.592 363.067 252.592C367.675 252.592 371.179 251.728 373.579 250C376.075 248.176 377.323 245.68 377.323 242.512C377.323 240.496 376.747 238.816 375.595 237.472C374.539 236.128 373.147 235.024 371.419 234.16C369.787 233.296 367.099 232.096 363.355 230.56L350.971 225.232C345.403 222.928 340.843 219.712 337.291 215.584C333.739 211.36 331.963 206.08 331.963 199.744C331.963 194.656 333.355 190.048 336.139 185.92C339.019 181.696 342.955 178.384 347.947 175.984C352.939 173.488 358.555 172.24 364.795 172.24C370.267 172.24 375.643 173.344 380.923 175.552C386.203 177.664 390.763 180.64 394.603 184.48L384.667 197.008C381.403 194.416 378.187 192.496 375.019 191.248C371.851 190 368.443 189.376 364.795 189.376C360.859 189.376 357.739 190.192 355.435 191.824C353.131 193.456 351.979 195.712 351.979 198.592C351.979 200.608 352.555 202.288 353.707 203.632C354.955 204.976 356.443 206.08 358.171 206.944C359.995 207.808 362.779 209.008 366.523 210.544L378.619 215.44C384.667 217.936 389.323 221.248 392.587 225.376C395.851 229.408 397.483 234.592 397.483 240.928C397.483 246.208 396.091 251.056 393.307 255.472C390.523 259.792 386.491 263.248 381.211 265.84C375.931 268.432 369.739 269.728 362.635 269.728ZM413.72 173.968H445.112C456.44 173.968 465.416 176.32 472.04 181.024C478.76 185.632 482.12 193.216 482.12 203.776C482.12 214.144 478.712 221.968 471.896 227.248C465.08 232.528 456.344 235.168 445.688 235.168H433.448V268H413.72V173.968ZM444.392 219.472C456.68 219.472 462.824 214.24 462.824 203.776C462.824 198.784 461.24 195.184 458.072 192.976C455 190.768 450.248 189.664 443.816 189.664H433.448V219.472H444.392ZM498.939 173.968H557.115V190.528H518.667V211.12H551.355V227.68H518.667V251.44H558.555V268H498.939V173.968ZM628.383 268L609.663 233.152H597.135V268H577.407V173.968H610.527C621.471 173.968 630.159 176.224 636.591 180.736C643.023 185.152 646.239 192.496 646.239 202.768C646.239 209.488 644.703 215.152 641.631 219.76C638.559 224.272 634.287 227.632 628.815 229.84L650.559 268H628.383ZM597.135 217.456H608.799C614.751 217.456 619.263 216.256 622.335 213.856C625.407 211.36 626.943 207.664 626.943 202.768C626.943 198.064 625.455 194.704 622.479 192.688C619.503 190.672 614.943 189.664 608.799 189.664H597.135V217.456ZM680.78 190.528H654.572V173.968H726.86V190.528H700.508V268H680.78V190.528ZM741.798 173.968H761.526V210.688H795.798V173.968H815.526V268H795.798V227.968H761.526V268H741.798V173.968ZM838.267 173.968H896.443V190.528H857.995V211.12H890.683V227.68H857.995V251.44H897.883V268H838.267V173.968ZM957.631 269.728C948.895 269.728 941.071 267.856 934.159 264.112C927.343 260.368 921.967 254.896 918.031 247.696C914.095 240.4 912.127 231.664 912.127 221.488C912.127 211.408 914.143 202.672 918.175 195.28C922.207 187.792 927.631 182.08 934.447 178.144C941.359 174.208 949.039 172.24 957.487 172.24C968.911 172.24 978.655 176.272 986.719 184.336L976.351 197.008C973.663 194.512 970.879 192.64 967.999 191.392C965.215 190.048 961.951 189.376 958.207 189.376C950.431 189.376 944.191 192.208 939.487 197.872C934.783 203.44 932.431 211.072 932.431 220.768C932.431 230.944 934.735 238.816 939.343 244.384C943.951 249.856 950.719 252.592 959.647 252.592C961.759 252.592 963.823 252.304 965.839 251.728C967.855 251.152 969.487 250.384 970.735 249.424V231.856H954.463V215.728H988.303V258.352C984.847 261.712 980.431 264.448 975.055 266.56C969.679 268.672 963.871 269.728 957.631 269.728ZM1008.14 173.968H1027.87V210.688H1062.14V173.968H1081.87V268H1062.14V227.968H1027.87V268H1008.14V173.968ZM1142.34 269.728C1133.99 269.728 1126.59 267.76 1120.16 263.824C1113.83 259.888 1108.88 254.224 1105.33 246.832C1101.78 239.344 1100 230.608 1100 220.624C1100 210.544 1101.78 201.904 1105.33 194.704C1108.88 187.408 1113.83 181.84 1120.16 178C1126.59 174.16 1133.99 172.24 1142.34 172.24C1150.69 172.24 1158.03 174.16 1164.37 178C1170.8 181.84 1175.75 187.408 1179.2 194.704C1182.75 202 1184.53 210.64 1184.53 220.624C1184.53 230.608 1182.75 239.344 1179.2 246.832C1175.75 254.224 1170.8 259.888 1164.37 263.824C1158.03 267.76 1150.69 269.728 1142.34 269.728ZM1142.34 252.592C1149.06 252.592 1154.39 249.712 1158.32 243.952C1162.35 238.192 1164.37 230.416 1164.37 220.624C1164.37 210.928 1162.35 203.296 1158.32 197.728C1154.39 192.16 1149.06 189.376 1142.34 189.376C1135.52 189.376 1130.15 192.16 1126.21 197.728C1122.27 203.2 1120.31 210.832 1120.31 220.624C1120.31 230.416 1122.27 238.192 1126.21 243.952C1130.24 249.712 1135.62 252.592 1142.34 252.592ZM1230.99 269.728C1224.66 269.728 1218.47 268.576 1212.42 266.272C1206.37 263.872 1201.04 260.464 1196.43 256.048L1207.81 242.512C1211.27 245.584 1215.06 248.032 1219.19 249.856C1223.41 251.68 1227.49 252.592 1231.43 252.592C1236.03 252.592 1239.54 251.728 1241.94 250C1244.43 248.176 1245.68 245.68 1245.68 242.512C1245.68 240.496 1245.11 238.816 1243.95 237.472C1242.9 236.128 1241.51 235.024 1239.78 234.16C1238.15 233.296 1235.46 232.096 1231.71 230.56L1219.33 225.232C1213.76 222.928 1209.2 219.712 1205.65 215.584C1202.1 211.36 1200.32 206.08 1200.32 199.744C1200.32 194.656 1201.71 190.048 1204.5 185.92C1207.38 181.696 1211.31 178.384 1216.31 175.984C1221.3 173.488 1226.91 172.24 1233.15 172.24C1238.63 172.24 1244 173.344 1249.28 175.552C1254.56 177.664 1259.12 180.64 1262.96 184.48L1253.03 197.008C1249.76 194.416 1246.55 192.496 1243.38 191.248C1240.21 190 1236.8 189.376 1233.15 189.376C1229.22 189.376 1226.1 190.192 1223.79 191.824C1221.49 193.456 1220.34 195.712 1220.34 198.592C1220.34 200.608 1220.91 202.288 1222.07 203.632C1223.31 204.976 1224.8 206.08 1226.53 206.944C1228.35 207.808 1231.14 209.008 1234.88 210.544L1246.98 215.44C1253.03 217.936 1257.68 221.248 1260.95 225.376C1264.21 229.408 1265.84 234.592 1265.84 240.928C1265.84 246.208 1264.45 251.056 1261.67 255.472C1258.88 259.792 1254.85 263.248 1249.57 265.84C1244.29 268.432 1238.1 269.728 1230.99 269.728ZM1297.84 190.528H1271.63V173.968H1343.92V190.528H1317.57V268H1297.84V190.528Z" fill="#33475B"/>
<path d="M466.516 328.953H453.391V340.578H465.531V344.117H453.391V359H449.453V325.391H466.516V328.953ZM496.984 359H492.297L486.672 349.578C486.156 348.703 485.656 347.961 485.172 347.352C484.688 346.727 484.188 346.219 483.672 345.828C483.172 345.438 482.625 345.156 482.031 344.984C481.453 344.797 480.797 344.703 480.062 344.703H476.828V359H472.891V325.391H482.922C484.391 325.391 485.742 325.578 486.977 325.953C488.227 326.312 489.305 326.867 490.211 327.617C491.133 328.367 491.852 329.305 492.367 330.43C492.883 331.539 493.141 332.844 493.141 334.344C493.141 335.516 492.961 336.594 492.602 337.578C492.258 338.547 491.758 339.414 491.102 340.18C490.461 340.945 489.68 341.602 488.758 342.148C487.852 342.68 486.828 343.094 485.688 343.391V343.484C486.25 343.734 486.734 344.023 487.141 344.352C487.562 344.664 487.961 345.039 488.336 345.477C488.711 345.914 489.078 346.414 489.438 346.977C489.812 347.523 490.227 348.164 490.68 348.898L496.984 359ZM476.828 328.953V341.141H482.172C483.156 341.141 484.062 340.992 484.891 340.695C485.734 340.398 486.461 339.977 487.07 339.43C487.68 338.867 488.156 338.188 488.5 337.391C488.844 336.578 489.016 335.672 489.016 334.672C489.016 332.875 488.43 331.477 487.258 330.477C486.102 329.461 484.422 328.953 482.219 328.953H476.828ZM514.703 359.562C509.938 359.562 506.117 357.992 503.242 354.852C500.383 351.711 498.953 347.625 498.953 342.594C498.953 337.188 500.414 332.875 503.336 329.656C506.258 326.438 510.234 324.828 515.266 324.828C519.906 324.828 523.641 326.391 526.469 329.516C529.312 332.641 530.734 336.727 530.734 341.773C530.734 347.258 529.281 351.594 526.375 354.781C523.469 357.969 519.578 359.562 514.703 359.562ZM514.984 328.391C511.453 328.391 508.586 329.664 506.383 332.211C504.18 334.758 503.078 338.102 503.078 342.242C503.078 346.383 504.148 349.719 506.289 352.25C508.445 354.766 511.25 356.023 514.703 356.023C518.391 356.023 521.297 354.82 523.422 352.414C525.547 350.008 526.609 346.641 526.609 342.312C526.609 337.875 525.578 334.445 523.516 332.023C521.453 329.602 518.609 328.391 514.984 328.391ZM564.438 359H559.609L542.312 332.211C541.875 331.539 541.516 330.836 541.234 330.102H541.094C541.219 330.82 541.281 332.359 541.281 334.719V359H537.344V325.391H542.453L559.281 351.758C559.984 352.852 560.438 353.602 560.641 354.008H560.734C560.578 353.039 560.5 351.391 560.5 349.062V325.391H564.438V359ZM593.125 328.953H583.422V359H579.484V328.953H569.805V325.391H593.125V328.953ZM616.234 359H598.422V325.391H615.484V328.953H602.359V340.133H614.5V343.672H602.359V355.438H616.234V359ZM649.797 359H644.969L627.672 332.211C627.234 331.539 626.875 330.836 626.594 330.102H626.453C626.578 330.82 626.641 332.359 626.641 334.719V359H622.703V325.391H627.812L644.641 351.758C645.344 352.852 645.797 353.602 646 354.008H646.094C645.938 353.039 645.859 351.391 645.859 349.062V325.391H649.797V359ZM658.609 359V325.391H667.891C679.734 325.391 685.656 330.852 685.656 341.773C685.656 346.961 684.008 351.133 680.711 354.289C677.43 357.43 673.031 359 667.516 359H658.609ZM662.547 328.953V355.438H667.562C671.969 355.438 675.398 354.258 677.852 351.898C680.305 349.539 681.531 346.195 681.531 341.867C681.531 333.258 676.953 328.953 667.797 328.953H662.547ZM745.281 325.391L735.789 359H731.172L724.258 334.438C723.961 333.391 723.781 332.25 723.719 331.016H723.625C723.531 332.172 723.328 333.297 723.016 334.391L716.055 359H711.484L701.641 325.391H705.977L713.125 351.172C713.422 352.25 713.609 353.375 713.688 354.547H713.805C713.883 353.719 714.125 352.594 714.531 351.172L721.961 325.391H725.734L732.859 351.359C733.109 352.25 733.297 353.297 733.422 354.5H733.516C733.578 353.688 733.789 352.609 734.148 351.266L741.016 325.391H745.281ZM768.109 359H750.297V325.391H767.359V328.953H754.234V340.133H766.375V343.672H754.234V355.438H768.109V359ZM774.578 359V325.391H784.141C787.047 325.391 789.352 326.102 791.055 327.523C792.758 328.945 793.609 330.797 793.609 333.078C793.609 334.984 793.094 336.641 792.062 338.047C791.031 339.453 789.609 340.453 787.797 341.047V341.141C790.062 341.406 791.875 342.266 793.234 343.719C794.594 345.156 795.273 347.031 795.273 349.344C795.273 352.219 794.242 354.547 792.18 356.328C790.117 358.109 787.516 359 784.375 359H774.578ZM778.516 328.953V339.805H782.547C784.703 339.805 786.398 339.289 787.633 338.258C788.867 337.211 789.484 335.742 789.484 333.852C789.484 330.586 787.336 328.953 783.039 328.953H778.516ZM778.516 343.344V355.438H783.859C786.172 355.438 787.961 354.891 789.227 353.797C790.508 352.703 791.148 351.203 791.148 349.297C791.148 345.328 788.445 343.344 783.039 343.344H778.516ZM815.266 359V325.391H824.547C836.391 325.391 842.312 330.852 842.312 341.773C842.312 346.961 840.664 351.133 837.367 354.289C834.086 357.43 829.688 359 824.172 359H815.266ZM819.203 328.953V355.438H824.219C828.625 355.438 832.055 354.258 834.508 351.898C836.961 349.539 838.188 346.195 838.188 341.867C838.188 333.258 833.609 328.953 824.453 328.953H819.203ZM866.734 359H848.922V325.391H865.984V328.953H852.859V340.133H865V343.672H852.859V355.438H866.734V359ZM898.188 325.391L885.742 359H881.406L869.219 325.391H873.602L882.906 352.039C883.203 352.898 883.43 353.891 883.586 355.016H883.68C883.805 354.078 884.062 353.07 884.453 351.992L893.945 325.391H898.188ZM920.828 359H903.016V325.391H920.078V328.953H906.953V340.133H919.094V343.672H906.953V355.438H920.828V359ZM944.734 359H927.297V325.391H931.234V355.438H944.734V359ZM961.797 359.562C957.031 359.562 953.211 357.992 950.336 354.852C947.477 351.711 946.047 347.625 946.047 342.594C946.047 337.188 947.508 332.875 950.43 329.656C953.352 326.438 957.328 324.828 962.359 324.828C967 324.828 970.734 326.391 973.562 329.516C976.406 332.641 977.828 336.727 977.828 341.773C977.828 347.258 976.375 351.594 973.469 354.781C970.562 357.969 966.672 359.562 961.797 359.562ZM962.078 328.391C958.547 328.391 955.68 329.664 953.477 332.211C951.273 334.758 950.172 338.102 950.172 342.242C950.172 346.383 951.242 349.719 953.383 352.25C955.539 354.766 958.344 356.023 961.797 356.023C965.484 356.023 968.391 354.82 970.516 352.414C972.641 350.008 973.703 346.641 973.703 342.312C973.703 337.875 972.672 334.445 970.609 332.023C968.547 329.602 965.703 328.391 962.078 328.391ZM988.375 346.297V359H984.438V325.391H993.672C997.266 325.391 1000.05 326.266 1002.02 328.016C1004 329.766 1004.99 332.234 1004.99 335.422C1004.99 338.609 1003.89 341.219 1001.69 343.25C999.5 345.281 996.539 346.297 992.805 346.297H988.375ZM988.375 328.953V342.734H992.5C995.219 342.734 997.289 342.117 998.711 340.883C1000.15 339.633 1000.87 337.875 1000.87 335.609C1000.87 331.172 998.242 328.953 992.992 328.953H988.375ZM1029.16 359H1011.34V325.391H1028.41V328.953H1015.28V340.133H1027.42V343.672H1015.28V355.438H1029.16V359ZM1059.72 359H1055.03L1049.41 349.578C1048.89 348.703 1048.39 347.961 1047.91 347.352C1047.42 346.727 1046.92 346.219 1046.41 345.828C1045.91 345.438 1045.36 345.156 1044.77 344.984C1044.19 344.797 1043.53 344.703 1042.8 344.703H1039.56V359H1035.62V325.391H1045.66C1047.12 325.391 1048.48 325.578 1049.71 325.953C1050.96 326.312 1052.04 326.867 1052.95 327.617C1053.87 328.367 1054.59 329.305 1055.1 330.43C1055.62 331.539 1055.88 332.844 1055.88 334.344C1055.88 335.516 1055.7 336.594 1055.34 337.578C1054.99 338.547 1054.49 339.414 1053.84 340.18C1053.2 340.945 1052.41 341.602 1051.49 342.148C1050.59 342.68 1049.56 343.094 1048.42 343.391V343.484C1048.98 343.734 1049.47 344.023 1049.88 344.352C1050.3 344.664 1050.7 345.039 1051.07 345.477C1051.45 345.914 1051.81 346.414 1052.17 346.977C1052.55 347.523 1052.96 348.164 1053.41 348.898L1059.72 359ZM1039.56 328.953V341.141H1044.91C1045.89 341.141 1046.8 340.992 1047.62 340.695C1048.47 340.398 1049.2 339.977 1049.8 339.43C1050.41 338.867 1050.89 338.188 1051.23 337.391C1051.58 336.578 1051.75 335.672 1051.75 334.672C1051.75 332.875 1051.16 331.477 1049.99 330.477C1048.84 329.461 1047.16 328.953 1044.95 328.953H1039.56Z" fill="#45596D"/>
<circle cx="36" cy="475" r="75" fill="#33475B"/>
<circle cx="1464" cy="26" r="75" transform="rotate(180 1464 26)" fill="#33475B"/>
</g>
<defs>
<clipPath id="clip0">
<rect width="1500" height="500" fill="white"/>
</clipPath>
</defs>
</svg>
