<svg width="170" height="30" viewBox="0 0 170 30" fill="none" xmlns="http://www.w3.org/2000/svg">
<rect width="170" height="30" fill="#A63428"/>
<path d="M49.7534 16.9482C49.7534 16.6439 49.646 16.4111 49.4312 16.25C49.2163 16.0853 48.8296 15.9134 48.271 15.7344C47.7124 15.5518 47.2702 15.3727 46.9443 15.1973C46.0563 14.7174 45.6123 14.0711 45.6123 13.2583C45.6123 12.8358 45.7305 12.4598 45.9668 12.1304C46.2067 11.7974 46.5487 11.5378 46.9927 11.3516C47.4403 11.1654 47.9416 11.0723 48.4966 11.0723C49.0552 11.0723 49.5529 11.1743 49.9897 11.3784C50.4266 11.5789 50.765 11.8636 51.0049 12.2324C51.2484 12.6012 51.3701 13.0202 51.3701 13.4893H49.7588C49.7588 13.1312 49.646 12.8537 49.4204 12.6567C49.1948 12.4562 48.8779 12.356 48.4697 12.356C48.0758 12.356 47.7697 12.4401 47.5513 12.6084C47.3328 12.7731 47.2236 12.9915 47.2236 13.2637C47.2236 13.5179 47.3507 13.731 47.605 13.9028C47.8628 14.0747 48.2406 14.2358 48.7383 14.3862C49.6549 14.6619 50.3228 15.0039 50.7417 15.4121C51.1606 15.8203 51.3701 16.3288 51.3701 16.9375C51.3701 17.6143 51.1141 18.146 50.6021 18.5327C50.09 18.9159 49.4007 19.1074 48.5342 19.1074C47.9326 19.1074 47.3848 18.9982 46.8906 18.7798C46.3965 18.5578 46.0187 18.2552 45.7573 17.8721C45.4995 17.4889 45.3706 17.0449 45.3706 16.54H46.9873C46.9873 17.403 47.5029 17.8345 48.5342 17.8345C48.9173 17.8345 49.2163 17.7575 49.4312 17.6035C49.646 17.446 49.7534 17.2275 49.7534 16.9482ZM58.8306 19H57.2192V15.6484H54.0771V19H52.4658V11.1797H54.0771V14.3486H57.2192V11.1797H58.8306V19ZM66.667 15.2671C66.667 16.0369 66.5309 16.7119 66.2588 17.292C65.9867 17.8721 65.5964 18.3197 65.0879 18.6348C64.583 18.9499 64.0029 19.1074 63.3477 19.1074C62.6995 19.1074 62.1213 18.9517 61.6128 18.6401C61.1043 18.3286 60.7104 17.8846 60.4312 17.3081C60.1519 16.728 60.0104 16.062 60.0068 15.3101V14.9233C60.0068 14.1535 60.1447 13.4767 60.4204 12.8931C60.6997 12.3058 61.0918 11.8564 61.5967 11.5449C62.1051 11.2298 62.6852 11.0723 63.3369 11.0723C63.9886 11.0723 64.5669 11.2298 65.0718 11.5449C65.5802 11.8564 65.9723 12.3058 66.248 12.8931C66.5273 13.4767 66.667 14.1517 66.667 14.918V15.2671ZM65.0342 14.9126C65.0342 14.0926 64.8874 13.4696 64.5938 13.0435C64.3001 12.6174 63.8812 12.4043 63.3369 12.4043C62.7962 12.4043 62.3791 12.6156 62.0854 13.0381C61.7918 13.457 61.6432 14.0729 61.6396 14.8857V15.2671C61.6396 16.0656 61.7865 16.6851 62.0801 17.1255C62.3737 17.5659 62.7962 17.7861 63.3477 17.7861C63.8883 17.7861 64.3037 17.5749 64.5938 17.1523C64.8838 16.7262 65.0306 16.1068 65.0342 15.2939V14.9126ZM74.2617 15.2671C74.2617 16.0369 74.1257 16.7119 73.8535 17.292C73.5814 17.8721 73.1911 18.3197 72.6826 18.6348C72.1777 18.9499 71.5977 19.1074 70.9424 19.1074C70.2943 19.1074 69.716 18.9517 69.2075 18.6401C68.6991 18.3286 68.3052 17.8846 68.0259 17.3081C67.7466 16.728 67.6051 16.062 67.6016 15.3101V14.9233C67.6016 14.1535 67.7394 13.4767 68.0151 12.8931C68.2944 12.3058 68.6865 11.8564 69.1914 11.5449C69.6999 11.2298 70.2799 11.0723 70.9316 11.0723C71.5833 11.0723 72.1616 11.2298 72.6665 11.5449C73.175 11.8564 73.5671 12.3058 73.8428 12.8931C74.1221 13.4767 74.2617 14.1517 74.2617 14.918V15.2671ZM72.6289 14.9126C72.6289 14.0926 72.4821 13.4696 72.1885 13.0435C71.8949 12.6174 71.4759 12.4043 70.9316 12.4043C70.391 12.4043 69.9738 12.6156 69.6802 13.0381C69.3866 13.457 69.238 14.0729 69.2344 14.8857V15.2671C69.2344 16.0656 69.3812 16.6851 69.6748 17.1255C69.9684 17.5659 70.391 17.7861 70.9424 17.7861C71.4831 17.7861 71.8984 17.5749 72.1885 17.1523C72.4785 16.7262 72.6253 16.1068 72.6289 15.2939V14.9126ZM80.8574 12.4849H78.4619V19H76.8506V12.4849H74.4873V11.1797H80.8574V12.4849ZM86.3037 11.1797L88.3125 16.8516L90.3105 11.1797H92.4268V19H90.8101V16.8623L90.9712 13.1724L88.8604 19H87.7539L85.6484 13.1777L85.8096 16.8623V19H84.1982V11.1797H86.3037ZM98.5391 15.6108H95.4453V17.7056H99.0762V19H93.834V11.1797H99.0654V12.4849H95.4453V14.3486H98.5391V15.6108ZM107.176 17.3887H104.351L103.813 19H102.1L105.011 11.1797H106.504L109.432 19H107.718L107.176 17.3887ZM104.786 16.0835H106.741L105.758 13.1562L104.786 16.0835ZM116.521 19H114.91L111.773 13.8545V19H110.162V11.1797H111.773L114.916 16.3359V11.1797H116.521V19ZM125.373 15.6108H122.279V17.7056H125.91V19H120.668V11.1797H125.899V12.4849H122.279V14.3486H125.373V15.6108ZM128.961 11.1797L130.97 16.8516L132.968 11.1797H135.084V19H133.467V16.8623L133.628 13.1724L131.518 19H130.411L128.306 13.1777L128.467 16.8623V19H126.855V11.1797H128.961ZM141.003 17.3887H138.178L137.641 19H135.927L138.838 11.1797H140.332L143.259 19H141.545L141.003 17.3887ZM138.613 16.0835H140.568L139.585 13.1562L138.613 16.0835ZM145.703 19H144.091V11.1797H145.703V19ZM148.812 17.7056H152.234V19H147.201V11.1797H148.812V17.7056Z" fill="white"/>
<path d="M35.6211 12.4531C35.7734 12.332 36 12.4453 36 12.6367V20.625C36 21.6602 35.1602 22.5 34.125 22.5H17.875C16.8398 22.5 16 21.6602 16 20.625V12.6406C16 12.4453 16.2227 12.3359 16.3789 12.457C17.2539 13.1367 18.4141 14 22.3984 16.8945C23.2227 17.4961 24.6133 18.7617 26 18.7539C27.3945 18.7656 28.8125 17.4727 29.6055 16.8945C33.5898 14 34.7461 13.1328 35.6211 12.4531ZM26 17.5C26.9063 17.5156 28.2109 16.3594 28.8672 15.8828C34.0508 12.1211 34.4453 11.793 35.6406 10.8555C35.8672 10.6797 36 10.4063 36 10.1172V9.375C36 8.33984 35.1602 7.5 34.125 7.5H17.875C16.8398 7.5 16 8.33984 16 9.375V10.1172C16 10.4063 16.1328 10.6758 16.3594 10.8555C17.5547 11.7891 17.9492 12.1211 23.1328 15.8828C23.7891 16.3594 25.0937 17.5156 26 17.5Z" fill="white"/>
</svg>
