<svg width="170" height="30" viewBox="0 0 170 30" fill="none" xmlns="http://www.w3.org/2000/svg">
<rect width="170" height="30" fill="#A63428"/>
<path d="M40.6177 18.5752C40.6177 18.2155 40.4907 17.9404 40.2368 17.75C39.9829 17.5553 39.5259 17.3522 38.8657 17.1406C38.2056 16.9248 37.6829 16.7132 37.2979 16.5059C36.2484 15.9388 35.7236 15.175 35.7236 14.2144C35.7236 13.715 35.8633 13.2707 36.1426 12.8813C36.4261 12.4878 36.8302 12.181 37.355 11.9609C37.884 11.7409 38.4764 11.6309 39.1323 11.6309C39.7925 11.6309 40.3807 11.7515 40.897 11.9927C41.4132 12.2297 41.8132 12.5661 42.0967 13.002C42.3844 13.4378 42.5283 13.9329 42.5283 14.4873H40.624C40.624 14.0641 40.4907 13.7362 40.2241 13.5034C39.9575 13.2664 39.583 13.1479 39.1006 13.1479C38.6351 13.1479 38.2733 13.2474 38.0151 13.4463C37.757 13.641 37.6279 13.8991 37.6279 14.2207C37.6279 14.5212 37.7782 14.7729 38.0786 14.9761C38.3833 15.1792 38.8298 15.3696 39.418 15.5474C40.5013 15.8732 41.2905 16.2773 41.7856 16.7598C42.2808 17.2422 42.5283 17.8431 42.5283 18.5625C42.5283 19.3623 42.2257 19.9907 41.6206 20.4478C41.0155 20.9006 40.2008 21.127 39.1768 21.127C38.4658 21.127 37.8184 20.9979 37.2344 20.7397C36.6504 20.4774 36.2039 20.1198 35.895 19.667C35.5903 19.2142 35.438 18.6895 35.438 18.0928H37.3486C37.3486 19.1126 37.958 19.6226 39.1768 19.6226C39.6296 19.6226 39.9829 19.5316 40.2368 19.3496C40.4907 19.1634 40.6177 18.9053 40.6177 18.5752ZM51.3452 21H49.4409V17.0391H45.7275V21H43.8232V11.7578H45.7275V15.5029H49.4409V11.7578H51.3452V21ZM60.6064 16.5884C60.6064 17.4982 60.4456 18.2959 60.124 18.9814C59.8024 19.667 59.3411 20.196 58.7402 20.5684C58.1436 20.9408 57.458 21.127 56.6836 21.127C55.9176 21.127 55.2342 20.9429 54.6333 20.5747C54.0324 20.2065 53.5669 19.6818 53.2368 19.0005C52.9067 18.3149 52.7396 17.5278 52.7354 16.6392V16.1821C52.7354 15.2723 52.8983 14.4725 53.2241 13.7827C53.5542 13.0887 54.0176 12.5576 54.6143 12.1895C55.2152 11.8171 55.9007 11.6309 56.6709 11.6309C57.4411 11.6309 58.1245 11.8171 58.7212 12.1895C59.3221 12.5576 59.7855 13.0887 60.1113 13.7827C60.4414 14.4725 60.6064 15.2702 60.6064 16.1758V16.5884ZM58.6768 16.1694C58.6768 15.2004 58.5033 14.464 58.1562 13.9604C57.8092 13.4569 57.3141 13.2051 56.6709 13.2051C56.0319 13.2051 55.5389 13.4548 55.1919 13.9541C54.8449 14.4492 54.6693 15.1771 54.665 16.1377V16.5884C54.665 17.5321 54.8385 18.2642 55.1855 18.7847C55.5326 19.3052 56.0319 19.5654 56.6836 19.5654C57.3226 19.5654 57.8135 19.3158 58.1562 18.8164C58.499 18.3128 58.6725 17.5807 58.6768 16.6201V16.1694ZM69.582 16.5884C69.582 17.4982 69.4212 18.2959 69.0996 18.9814C68.778 19.667 68.3167 20.196 67.7158 20.5684C67.1191 20.9408 66.4336 21.127 65.6592 21.127C64.8932 21.127 64.2098 20.9429 63.6089 20.5747C63.008 20.2065 62.5425 19.6818 62.2124 19.0005C61.8823 18.3149 61.7152 17.5278 61.7109 16.6392V16.1821C61.7109 15.2723 61.8739 14.4725 62.1997 13.7827C62.5298 13.0887 62.9932 12.5576 63.5898 12.1895C64.1908 11.8171 64.8763 11.6309 65.6465 11.6309C66.4167 11.6309 67.1001 11.8171 67.6968 12.1895C68.2977 12.5576 68.7611 13.0887 69.0869 13.7827C69.417 14.4725 69.582 15.2702 69.582 16.1758V16.5884ZM67.6523 16.1694C67.6523 15.2004 67.4788 14.464 67.1318 13.9604C66.7848 13.4569 66.2897 13.2051 65.6465 13.2051C65.0075 13.2051 64.5145 13.4548 64.1675 13.9541C63.8205 14.4492 63.6449 15.1771 63.6406 16.1377V16.5884C63.6406 17.5321 63.8141 18.2642 64.1611 18.7847C64.5081 19.3052 65.0075 19.5654 65.6592 19.5654C66.2982 19.5654 66.7891 19.3158 67.1318 18.8164C67.4746 18.3128 67.6481 17.5807 67.6523 16.6201V16.1694ZM77.377 13.3003H74.5459V21H72.6416V13.3003H69.8486V11.7578H77.377V13.3003ZM83.8135 11.7578L86.1875 18.4609L88.5488 11.7578H91.0498V21H89.1392V18.4736L89.3296 14.1128L86.835 21H85.5273L83.0391 14.1191L83.2295 18.4736V21H81.3252V11.7578H83.8135ZM98.2734 16.9946H94.6172V19.4702H98.9082V21H92.7129V11.7578H98.8955V13.3003H94.6172V15.5029H98.2734V16.9946ZM108.48 19.0957H105.142L104.507 21H102.482L105.922 11.7578H107.687L111.146 21H109.122L108.48 19.0957ZM105.656 17.5532H107.966L106.805 14.0938L105.656 17.5532ZM119.525 21H117.621L113.914 14.9189V21H112.01V11.7578H113.914L117.627 17.8516V11.7578H119.525V21ZM129.986 16.9946H126.33V19.4702H130.621V21H124.426V11.7578H130.608V13.3003H126.33V15.5029H129.986V16.9946ZM134.227 11.7578L136.601 18.4609L138.962 11.7578H141.463V21H139.552V18.4736L139.743 14.1128L137.248 21H135.94L133.452 14.1191L133.643 18.4736V21H131.738V11.7578H134.227ZM148.458 19.0957H145.119L144.484 21H142.459L145.9 11.7578H147.665L151.124 21H149.099L148.458 19.0957ZM145.633 17.5532H147.944L146.782 14.0938L145.633 17.5532ZM154.012 21H152.108V11.7578H154.012V21ZM157.688 19.4702H161.731V21H155.783V11.7578H157.688V19.4702Z" fill="white"/>
<path d="M27.6211 12.4531C27.7734 12.332 28 12.4453 28 12.6367V20.625C28 21.6602 27.1602 22.5 26.125 22.5H9.875C8.83984 22.5 8 21.6602 8 20.625V12.6406C8 12.4453 8.22266 12.3359 8.37891 12.457C9.25391 13.1367 10.4141 14 14.3984 16.8945C15.2227 17.4961 16.6133 18.7617 18 18.7539C19.3945 18.7656 20.8125 17.4727 21.6055 16.8945C25.5898 14 26.7461 13.1328 27.6211 12.4531ZM18 17.5C18.9063 17.5156 20.2109 16.3594 20.8672 15.8828C26.0508 12.1211 26.4453 11.793 27.6406 10.8555C27.8672 10.6797 28 10.4063 28 10.1172V9.375C28 8.33984 27.1602 7.5 26.125 7.5H9.875C8.83984 7.5 8 8.33984 8 9.375V10.1172C8 10.4063 8.13281 10.6758 8.35937 10.8555C9.55469 11.7891 9.94922 12.1211 15.1328 15.8828C15.7891 16.3594 17.0937 17.5156 18 17.5Z" fill="white"/>
</svg>
