<svg width="170" height="30" viewBox="0 0 170 30" fill="none" xmlns="http://www.w3.org/2000/svg">
<rect width="170" height="30" fill="#A63428"/>
<path d="M39.6177 16.5752C39.6177 16.2155 39.4907 15.9404 39.2368 15.75C38.9829 15.5553 38.5259 15.3522 37.8657 15.1406C37.2056 14.9248 36.6829 14.7132 36.2979 14.5059C35.2484 13.9388 34.7236 13.175 34.7236 12.2144C34.7236 11.715 34.8633 11.2707 35.1426 10.8813C35.4261 10.4878 35.8302 10.181 36.355 9.96094C36.884 9.74089 37.4764 9.63086 38.1323 9.63086C38.7925 9.63086 39.3807 9.75146 39.897 9.99268C40.4132 10.2297 40.8132 10.5661 41.0967 11.002C41.3844 11.4378 41.5283 11.9329 41.5283 12.4873H39.624C39.624 12.0641 39.4907 11.7362 39.2241 11.5034C38.9575 11.2664 38.583 11.1479 38.1006 11.1479C37.6351 11.1479 37.2733 11.2474 37.0151 11.4463C36.757 11.641 36.6279 11.8991 36.6279 12.2207C36.6279 12.5212 36.7782 12.7729 37.0786 12.9761C37.3833 13.1792 37.8298 13.3696 38.418 13.5474C39.5013 13.8732 40.2905 14.2773 40.7856 14.7598C41.2808 15.2422 41.5283 15.8431 41.5283 16.5625C41.5283 17.3623 41.2257 17.9907 40.6206 18.4478C40.0155 18.9006 39.2008 19.127 38.1768 19.127C37.4658 19.127 36.8184 18.9979 36.2344 18.7397C35.6504 18.4774 35.2039 18.1198 34.895 17.667C34.5903 17.2142 34.438 16.6895 34.438 16.0928H36.3486C36.3486 17.1126 36.958 17.6226 38.1768 17.6226C38.6296 17.6226 38.9829 17.5316 39.2368 17.3496C39.4907 17.1634 39.6177 16.9053 39.6177 16.5752ZM50.3452 19H48.4409V15.0391H44.7275V19H42.8232V9.75781H44.7275V13.5029H48.4409V9.75781H50.3452V19ZM59.6064 14.5884C59.6064 15.4982 59.4456 16.2959 59.124 16.9814C58.8024 17.667 58.3411 18.196 57.7402 18.5684C57.1436 18.9408 56.458 19.127 55.6836 19.127C54.9176 19.127 54.2342 18.9429 53.6333 18.5747C53.0324 18.2065 52.5669 17.6818 52.2368 17.0005C51.9067 16.3149 51.7396 15.5278 51.7354 14.6392V14.1821C51.7354 13.2723 51.8983 12.4725 52.2241 11.7827C52.5542 11.0887 53.0176 10.5576 53.6143 10.1895C54.2152 9.81706 54.9007 9.63086 55.6709 9.63086C56.4411 9.63086 57.1245 9.81706 57.7212 10.1895C58.3221 10.5576 58.7855 11.0887 59.1113 11.7827C59.4414 12.4725 59.6064 13.2702 59.6064 14.1758V14.5884ZM57.6768 14.1694C57.6768 13.2004 57.5033 12.464 57.1562 11.9604C56.8092 11.4569 56.3141 11.2051 55.6709 11.2051C55.0319 11.2051 54.5389 11.4548 54.1919 11.9541C53.8449 12.4492 53.6693 13.1771 53.665 14.1377V14.5884C53.665 15.5321 53.8385 16.2642 54.1855 16.7847C54.5326 17.3052 55.0319 17.5654 55.6836 17.5654C56.3226 17.5654 56.8135 17.3158 57.1562 16.8164C57.499 16.3128 57.6725 15.5807 57.6768 14.6201V14.1694ZM68.582 14.5884C68.582 15.4982 68.4212 16.2959 68.0996 16.9814C67.778 17.667 67.3167 18.196 66.7158 18.5684C66.1191 18.9408 65.4336 19.127 64.6592 19.127C63.8932 19.127 63.2098 18.9429 62.6089 18.5747C62.008 18.2065 61.5425 17.6818 61.2124 17.0005C60.8823 16.3149 60.7152 15.5278 60.7109 14.6392V14.1821C60.7109 13.2723 60.8739 12.4725 61.1997 11.7827C61.5298 11.0887 61.9932 10.5576 62.5898 10.1895C63.1908 9.81706 63.8763 9.63086 64.6465 9.63086C65.4167 9.63086 66.1001 9.81706 66.6968 10.1895C67.2977 10.5576 67.7611 11.0887 68.0869 11.7827C68.417 12.4725 68.582 13.2702 68.582 14.1758V14.5884ZM66.6523 14.1694C66.6523 13.2004 66.4788 12.464 66.1318 11.9604C65.7848 11.4569 65.2897 11.2051 64.6465 11.2051C64.0075 11.2051 63.5145 11.4548 63.1675 11.9541C62.8205 12.4492 62.6449 13.1771 62.6406 14.1377V14.5884C62.6406 15.5321 62.8141 16.2642 63.1611 16.7847C63.5081 17.3052 64.0075 17.5654 64.6592 17.5654C65.2982 17.5654 65.7891 17.3158 66.1318 16.8164C66.4746 16.3128 66.6481 15.5807 66.6523 14.6201V14.1694ZM76.377 11.3003H73.5459V19H71.6416V11.3003H68.8486V9.75781H76.377V11.3003ZM82.8135 9.75781L85.1875 16.4609L87.5488 9.75781H90.0498V19H88.1392V16.4736L88.3296 12.1128L85.835 19H84.5273L82.0391 12.1191L82.2295 16.4736V19H80.3252V9.75781H82.8135ZM97.2734 14.9946H93.6172V17.4702H97.9082V19H91.7129V9.75781H97.8955V11.3003H93.6172V13.5029H97.2734V14.9946ZM107.48 17.0957H104.142L103.507 19H101.482L104.922 9.75781H106.687L110.146 19H108.122L107.48 17.0957ZM104.656 15.5532H106.966L105.805 12.0938L104.656 15.5532ZM118.525 19H116.621L112.914 12.9189V19H111.01V9.75781H112.914L116.627 15.8516V9.75781H118.525V19ZM128.986 14.9946H125.33V17.4702H129.621V19H123.426V9.75781H129.608V11.3003H125.33V13.5029H128.986V14.9946ZM133.227 9.75781L135.601 16.4609L137.962 9.75781H140.463V19H138.552V16.4736L138.743 12.1128L136.248 19H134.94L132.452 12.1191L132.643 16.4736V19H130.738V9.75781H133.227ZM147.458 17.0957H144.119L143.484 19H141.459L144.9 9.75781H146.665L150.124 19H148.099L147.458 17.0957ZM144.633 15.5532H146.944L145.782 12.0938L144.633 15.5532ZM153.012 19H151.108V9.75781H153.012V19ZM156.688 17.4702H160.731V19H154.783V9.75781H156.688V17.4702Z" fill="white"/>
<path fill-rule="evenodd" clip-rule="evenodd" d="M9.0625 9.44375C9.18852 8.89155 9.49832 8.39852 9.94115 8.04539C10.384 7.69225 10.9336 7.49996 11.5 7.5H26.5C27.0664 7.49996 27.616 7.69225 28.0588 8.04539C28.5017 8.39852 28.8115 8.89155 28.9375 9.44375L19 15.5175L9.0625 9.44375ZM9 10.8713V19.7512L16.2537 15.3038L9 10.8713ZM17.4513 16.0375L9.23875 21.0713C9.44166 21.4991 9.76191 21.8605 10.1622 22.1135C10.5625 22.3664 11.0265 22.5005 11.5 22.5H26.5C26.9735 22.5001 27.4372 22.3658 27.8373 22.1126C28.2374 21.8595 28.5574 21.4979 28.76 21.07L20.5475 16.0363L19 16.9825L17.4513 16.0363V16.0375ZM21.7462 15.305L29 19.7512V10.8713L21.7462 15.3038V15.305Z" fill="white"/>
</svg>
