<svg width="200" height="35" viewBox="0 0 200 35" fill="none" xmlns="http://www.w3.org/2000/svg">
<rect width="200" height="35" fill="#A63428"/>
<path d="M46.4819 20.2021C46.4819 19.7871 46.3354 19.4697 46.0425 19.25C45.7495 19.0254 45.2222 18.791 44.4604 18.5469C43.6987 18.2979 43.0957 18.0537 42.6514 17.8145C41.4404 17.1602 40.835 16.2788 40.835 15.1704C40.835 14.5942 40.9961 14.0815 41.3184 13.6323C41.6455 13.1782 42.1118 12.8242 42.7173 12.5703C43.3276 12.3164 44.0112 12.1895 44.7681 12.1895C45.5298 12.1895 46.2085 12.3286 46.8042 12.6069C47.3999 12.8804 47.8613 13.2686 48.1885 13.7715C48.5205 14.2744 48.6865 14.8457 48.6865 15.4854H46.4893C46.4893 14.9971 46.3354 14.6187 46.0278 14.3501C45.7202 14.0767 45.2881 13.9399 44.7314 13.9399C44.1943 13.9399 43.7769 14.0547 43.479 14.2842C43.1812 14.5088 43.0322 14.8066 43.0322 15.1777C43.0322 15.5244 43.2056 15.8149 43.5522 16.0493C43.9038 16.2837 44.4189 16.5034 45.0977 16.7085C46.3477 17.0845 47.2583 17.5508 47.8296 18.1074C48.4009 18.6641 48.6865 19.3574 48.6865 20.1875C48.6865 21.1104 48.3374 21.8354 47.6392 22.3628C46.9409 22.8853 46.001 23.1465 44.8193 23.1465C43.999 23.1465 43.252 22.9976 42.5781 22.6997C41.9043 22.397 41.3892 21.9844 41.0327 21.4619C40.6812 20.9395 40.5054 20.334 40.5054 19.6455H42.71C42.71 20.8223 43.4131 21.4106 44.8193 21.4106C45.3418 21.4106 45.7495 21.3057 46.0425 21.0957C46.3354 20.8809 46.4819 20.583 46.4819 20.2021ZM58.8599 23H56.6626V18.4297H52.3779V23H50.1807V12.3359H52.3779V16.6572H56.6626V12.3359H58.8599V23ZM69.5459 17.9097C69.5459 18.9595 69.3604 19.8799 68.9893 20.6709C68.6182 21.4619 68.0859 22.0723 67.3926 22.502C66.7041 22.9316 65.9131 23.1465 65.0195 23.1465C64.1357 23.1465 63.3472 22.9341 62.6538 22.5093C61.9604 22.0845 61.4233 21.479 61.0425 20.6929C60.6616 19.9019 60.4688 18.9937 60.4639 17.9683V17.4409C60.4639 16.3911 60.6519 15.4683 61.0278 14.6724C61.4087 13.8716 61.9434 13.2588 62.6318 12.834C63.3252 12.4043 64.1162 12.1895 65.0049 12.1895C65.8936 12.1895 66.6821 12.4043 67.3706 12.834C68.064 13.2588 68.5986 13.8716 68.9746 14.6724C69.3555 15.4683 69.5459 16.3887 69.5459 17.4336V17.9097ZM67.3193 17.4263C67.3193 16.3081 67.1191 15.4585 66.7188 14.8774C66.3184 14.2964 65.7471 14.0059 65.0049 14.0059C64.2676 14.0059 63.6987 14.2939 63.2983 14.8701C62.8979 15.4414 62.6953 16.2812 62.6904 17.3896V17.9097C62.6904 18.9985 62.8906 19.8433 63.291 20.4438C63.6914 21.0444 64.2676 21.3447 65.0195 21.3447C65.7568 21.3447 66.3232 21.0566 66.7188 20.4805C67.1143 19.8994 67.3145 19.0547 67.3193 17.9463V17.4263ZM79.9023 17.9097C79.9023 18.9595 79.7168 19.8799 79.3457 20.6709C78.9746 21.4619 78.4424 22.0723 77.749 22.502C77.0605 22.9316 76.2695 23.1465 75.376 23.1465C74.4922 23.1465 73.7036 22.9341 73.0103 22.5093C72.3169 22.0845 71.7798 21.479 71.3989 20.6929C71.0181 19.9019 70.8252 18.9937 70.8203 17.9683V17.4409C70.8203 16.3911 71.0083 15.4683 71.3843 14.6724C71.7651 13.8716 72.2998 13.2588 72.9883 12.834C73.6816 12.4043 74.4727 12.1895 75.3613 12.1895C76.25 12.1895 77.0386 12.4043 77.7271 12.834C78.4204 13.2588 78.9551 13.8716 79.3311 14.6724C79.7119 15.4683 79.9023 16.3887 79.9023 17.4336V17.9097ZM77.6758 17.4263C77.6758 16.3081 77.4756 15.4585 77.0752 14.8774C76.6748 14.2964 76.1035 14.0059 75.3613 14.0059C74.624 14.0059 74.0552 14.2939 73.6548 14.8701C73.2544 15.4414 73.0518 16.2812 73.0469 17.3896V17.9097C73.0469 18.9985 73.2471 19.8433 73.6475 20.4438C74.0479 21.0444 74.624 21.3447 75.376 21.3447C76.1133 21.3447 76.6797 21.0566 77.0752 20.4805C77.4707 19.8994 77.6709 19.0547 77.6758 17.9463V17.4263ZM88.8965 14.1157H85.6299V23H83.4326V14.1157H80.21V12.3359H88.8965V14.1157ZM96.3232 12.3359L99.0625 20.0703L101.787 12.3359H104.673V23H102.468V20.085L102.688 15.0532L99.8096 23H98.3008L95.4297 15.0605L95.6494 20.085V23H93.4521V12.3359H96.3232ZM113.008 18.3784H108.789V21.2349H113.74V23H106.592V12.3359H113.726V14.1157H108.789V16.6572H113.008V18.3784ZM124.785 20.8027H120.933L120.2 23H117.864L121.833 12.3359H123.87L127.861 23H125.525L124.785 20.8027ZM121.526 19.0229H124.192L122.852 15.0312L121.526 19.0229ZM137.529 23H135.332L131.055 15.9834V23H128.857V12.3359H131.055L135.339 19.3672V12.3359H137.529V23ZM149.6 18.3784H145.381V21.2349H150.332V23H143.184V12.3359H150.317V14.1157H145.381V16.6572H149.6V18.3784ZM154.492 12.3359L157.231 20.0703L159.956 12.3359H162.842V23H160.637V20.085L160.857 15.0532L157.979 23H156.47L153.599 15.0605L153.818 20.085V23H151.621V12.3359H154.492ZM170.913 20.8027H167.061L166.328 23H163.992L167.961 12.3359H169.998L173.989 23H171.653L170.913 20.8027ZM167.654 19.0229H170.32L168.979 15.0312L167.654 19.0229ZM177.322 23H175.125V12.3359H177.322V23ZM181.562 21.2349H186.228V23H179.365V12.3359H181.562V21.2349Z" fill="white"/>
<path fill-rule="evenodd" clip-rule="evenodd" d="M10.0625 11.4438C10.1885 10.8916 10.4983 10.3985 10.9412 10.0454C11.384 9.69225 11.9336 9.49996 12.5 9.5H27.5C28.0664 9.49996 28.616 9.69225 29.0588 10.0454C29.5017 10.3985 29.8115 10.8916 29.9375 11.4438L20 17.5175L10.0625 11.4438ZM10 12.8713V21.7512L17.2537 17.3038L10 12.8713ZM18.4513 18.0375L10.2387 23.0713C10.4417 23.4991 10.7619 23.8605 11.1622 24.1135C11.5625 24.3664 12.0265 24.5005 12.5 24.5H27.5C27.9735 24.5001 28.4372 24.3658 28.8373 24.1126C29.2374 23.8595 29.5574 23.4979 29.76 23.07L21.5475 18.0363L20 18.9825L18.4513 18.0363V18.0375ZM22.7462 17.305L30 21.7512V12.8713L22.7462 17.3038V17.305Z" fill="white"/>
</svg>
