<svg width="170" height="30" viewBox="0 0 170 30" fill="none" xmlns="http://www.w3.org/2000/svg">
<rect width="170" height="30" fill="#007EC6"/>
<path d="M49.8252 19V9.75781H53.0625C54.1839 9.75781 55.0345 9.97363 55.6143 10.4053C56.194 10.8327 56.4839 11.4611 56.4839 12.2905C56.4839 12.7433 56.3675 13.1432 56.1348 13.4902C55.902 13.833 55.5783 14.0848 55.1636 14.2456C55.6375 14.3641 56.0099 14.6032 56.2808 14.9629C56.5558 15.3226 56.6934 15.7627 56.6934 16.2832C56.6934 17.1719 56.4098 17.8447 55.8428 18.3018C55.2757 18.7588 54.4674 18.9915 53.418 19H49.8252ZM51.7295 14.9756V17.4702H53.3608C53.8094 17.4702 54.1585 17.3644 54.4082 17.1528C54.6621 16.937 54.7891 16.6408 54.7891 16.2642C54.7891 15.4178 54.3511 14.9883 53.4751 14.9756H51.7295ZM51.7295 13.6299H53.1387C54.0993 13.613 54.5796 13.23 54.5796 12.481C54.5796 12.062 54.4569 11.7616 54.2114 11.5796C53.9702 11.3934 53.5872 11.3003 53.0625 11.3003H51.7295V13.6299ZM63.6885 14.9946H60.0322V17.4702H64.3232V19H58.1279V9.75781H64.3105V11.3003H60.0322V13.5029H63.6885V14.9946ZM67.3447 17.4702H71.3882V19H65.4404V9.75781H67.3447V17.4702ZM79.3926 17.832C79.0498 18.2425 78.5653 18.562 77.939 18.7905C77.3127 19.0148 76.6187 19.127 75.8569 19.127C75.0571 19.127 74.3547 18.9535 73.7495 18.6064C73.1486 18.2552 72.6831 17.7474 72.353 17.083C72.0272 16.4186 71.86 15.6379 71.8516 14.7407V14.1123C71.8516 13.1898 72.006 12.3921 72.3149 11.7192C72.6281 11.0422 73.0767 10.5259 73.6606 10.1704C74.2489 9.81071 74.9365 9.63086 75.7236 9.63086C76.8197 9.63086 77.6766 9.89323 78.2944 10.418C78.9123 10.9385 79.2783 11.6981 79.3926 12.6968H77.5391C77.4544 12.1678 77.2661 11.7806 76.9741 11.5352C76.6864 11.2897 76.2886 11.167 75.7808 11.167C75.1333 11.167 74.6403 11.4103 74.3018 11.897C73.9632 12.3836 73.7918 13.1073 73.7876 14.0679V14.6582C73.7876 15.6273 73.9717 16.3594 74.3398 16.8545C74.708 17.3496 75.2476 17.5972 75.9585 17.5972C76.6737 17.5972 77.1836 17.4448 77.4883 17.1401V15.5469H75.7554V14.144H79.3926V17.832ZM82.9663 19H81.062V9.75781H82.9663V19ZM91.7324 9.75781V15.8452C91.7324 16.8566 91.415 17.6564 90.7803 18.2446C90.1497 18.8328 89.2865 19.127 88.1904 19.127C87.1113 19.127 86.2544 18.8413 85.6196 18.27C84.9849 17.6987 84.6611 16.9137 84.6484 15.915V9.75781H86.5527V15.8579C86.5527 16.4631 86.6966 16.9053 86.9844 17.1846C87.2764 17.4596 87.6784 17.5972 88.1904 17.5972C89.2611 17.5972 89.8049 17.0343 89.8218 15.9087V9.75781H91.7324ZM95.7822 9.75781L98.1562 16.4609L100.518 9.75781H103.019V19H101.108V16.4736L101.298 12.1128L98.8037 19H97.4961L95.0078 12.1191L95.1982 16.4736V19H93.2939V9.75781H95.7822ZM105.037 21.3169L104.079 20.8154L104.307 20.4028C104.591 19.8866 104.737 19.3724 104.745 18.8604V17.4385H106.294L106.288 18.708C106.283 19.1777 106.165 19.6517 105.932 20.1299C105.699 20.6081 105.401 21.0037 105.037 21.3169ZM118.405 17.832C118.062 18.2425 117.578 18.562 116.952 18.7905C116.325 19.0148 115.631 19.127 114.87 19.127C114.07 19.127 113.367 18.9535 112.762 18.6064C112.161 18.2552 111.696 17.7474 111.366 17.083C111.04 16.4186 110.873 15.6379 110.864 14.7407V14.1123C110.864 13.1898 111.019 12.3921 111.328 11.7192C111.641 11.0422 112.089 10.5259 112.673 10.1704C113.262 9.81071 113.949 9.63086 114.736 9.63086C115.832 9.63086 116.689 9.89323 117.307 10.418C117.925 10.9385 118.291 11.6981 118.405 12.6968H116.552C116.467 12.1678 116.279 11.7806 115.987 11.5352C115.699 11.2897 115.301 11.167 114.793 11.167C114.146 11.167 113.653 11.4103 113.314 11.897C112.976 12.3836 112.805 13.1073 112.8 14.0679V14.6582C112.8 15.6273 112.984 16.3594 113.353 16.8545C113.721 17.3496 114.26 17.5972 114.971 17.5972C115.686 17.5972 116.196 17.4448 116.501 17.1401V15.5469H114.768V14.144H118.405V17.832ZM125.515 14.9946H121.858V17.4702H126.149V19H119.954V9.75781H126.137V11.3003H121.858V13.5029H125.515V14.9946ZM134.782 19H132.878L129.171 12.9189V19H127.267V9.75781H129.171L132.884 15.8516V9.75781H134.782V19ZM143.212 11.3003H140.381V19H138.477V11.3003H135.684V9.75781H143.212V11.3003Z" fill="white"/>
<g clip-path="url(#clip0)">
<path fill-rule="evenodd" clip-rule="evenodd" d="M29 10.0001C29.0001 9.03793 29.2778 8.09618 29.7999 7.28789C30.3219 6.4796 31.0661 5.83911 31.9431 5.44328C32.8202 5.04745 33.7928 4.91309 34.7443 5.05632C35.6958 5.19955 36.5857 5.61429 37.3074 6.25077C38.029 6.88725 38.5517 7.71843 38.8126 8.64459C39.0736 9.57075 39.0617 10.5525 38.7786 11.4721C38.4954 12.3917 37.9529 13.2101 37.2161 13.829C36.4794 14.4479 35.5797 14.8411 34.625 14.9614V21.8751C34.625 22.0409 34.5592 22.1999 34.4419 22.3171C34.3247 22.4343 34.1658 22.5001 34 22.5001C33.8342 22.5001 33.6753 22.4343 33.5581 22.3171C33.4408 22.1999 33.375 22.0409 33.375 21.8751V14.9626C32.1662 14.8104 31.0546 14.2219 30.249 13.3079C29.4434 12.3939 28.9993 11.2172 29 9.9989V10.0001ZM32.1163 20.7176C32.1434 20.8811 32.1045 21.0486 32.0081 21.1834C31.9118 21.3181 31.7659 21.4091 31.6025 21.4364C30.7125 21.5839 30.0025 21.8051 29.5338 22.0526C29.3616 22.1354 29.2051 22.2475 29.0713 22.3839C29.041 22.4169 29.0169 22.455 29 22.4964V22.5001L29.0025 22.5101C29.0074 22.5247 29.0141 22.5385 29.0225 22.5514C29.0718 22.6237 29.1331 22.6871 29.2038 22.7389C29.41 22.9014 29.7475 23.0764 30.22 23.2326C31.1587 23.5451 32.495 23.7501 34 23.7501C35.505 23.7501 36.8413 23.5464 37.78 23.2326C38.2525 23.0751 38.59 22.9014 38.7962 22.7389C38.8673 22.6872 38.929 22.6238 38.9787 22.5514C38.9867 22.5385 38.993 22.5246 38.9975 22.5101L39 22.5001V22.4951C38.9831 22.4537 38.959 22.4156 38.9287 22.3826C38.7949 22.2467 38.6384 22.135 38.4662 22.0526C37.9962 21.8051 37.2875 21.5839 36.3975 21.4364C36.3146 21.4252 36.2348 21.3974 36.1628 21.3548C36.0908 21.3121 36.0282 21.2554 35.9785 21.1881C35.9288 21.1208 35.8932 21.0442 35.8737 20.9628C35.8541 20.8815 35.8512 20.797 35.8649 20.7145C35.8786 20.632 35.9088 20.5531 35.9536 20.4824C35.9984 20.4117 36.0569 20.3508 36.1257 20.3032C36.1945 20.2556 36.2721 20.2222 36.354 20.2052C36.4359 20.1881 36.5204 20.1877 36.6025 20.2039C37.565 20.3626 38.4175 20.6139 39.0487 20.9464C39.625 21.2501 40.25 21.7501 40.25 22.5001C40.25 23.0326 39.925 23.4401 39.57 23.7214C39.2075 24.0064 38.72 24.2376 38.175 24.4189C37.0775 24.7851 35.6013 25.0001 34 25.0001C32.3987 25.0001 30.9225 24.7851 29.825 24.4189C29.28 24.2376 28.7925 24.0064 28.43 23.7214C28.075 23.4401 27.75 23.0326 27.75 22.5001C27.75 21.7514 28.375 21.2501 28.9512 20.9464C29.5825 20.6139 30.435 20.3626 31.3975 20.2039C31.5609 20.1768 31.7284 20.2157 31.8632 20.312C31.998 20.4083 32.089 20.5542 32.1163 20.7176Z" fill="white"/>
</g>
<defs>
<clipPath id="clip0">
<rect width="20" height="20" fill="white" transform="translate(24 5)"/>
</clipPath>
</defs>
</svg>
