<svg width="170" height="30" viewBox="0 0 170 30" fill="none" xmlns="http://www.w3.org/2000/svg">
<rect width="170" height="30" fill="#007EC6"/>
<path d="M50.8252 19V9.75781H54.0625C55.1839 9.75781 56.0345 9.97363 56.6143 10.4053C57.194 10.8327 57.4839 11.4611 57.4839 12.2905C57.4839 12.7433 57.3675 13.1432 57.1348 13.4902C56.902 13.833 56.5783 14.0848 56.1636 14.2456C56.6375 14.3641 57.0099 14.6032 57.2808 14.9629C57.5558 15.3226 57.6934 15.7627 57.6934 16.2832C57.6934 17.1719 57.4098 17.8447 56.8428 18.3018C56.2757 18.7588 55.4674 18.9915 54.418 19H50.8252ZM52.7295 14.9756V17.4702H54.3608C54.8094 17.4702 55.1585 17.3644 55.4082 17.1528C55.6621 16.937 55.7891 16.6408 55.7891 16.2642C55.7891 15.4178 55.3511 14.9883 54.4751 14.9756H52.7295ZM52.7295 13.6299H54.1387C55.0993 13.613 55.5796 13.23 55.5796 12.481C55.5796 12.062 55.4569 11.7616 55.2114 11.5796C54.9702 11.3934 54.5872 11.3003 54.0625 11.3003H52.7295V13.6299ZM64.6885 14.9946H61.0322V17.4702H65.3232V19H59.1279V9.75781H65.3105V11.3003H61.0322V13.5029H64.6885V14.9946ZM68.3447 17.4702H72.3882V19H66.4404V9.75781H68.3447V17.4702ZM80.3926 17.832C80.0498 18.2425 79.5653 18.562 78.939 18.7905C78.3127 19.0148 77.6187 19.127 76.8569 19.127C76.0571 19.127 75.3547 18.9535 74.7495 18.6064C74.1486 18.2552 73.6831 17.7474 73.353 17.083C73.0272 16.4186 72.86 15.6379 72.8516 14.7407V14.1123C72.8516 13.1898 73.006 12.3921 73.3149 11.7192C73.6281 11.0422 74.0767 10.5259 74.6606 10.1704C75.2489 9.81071 75.9365 9.63086 76.7236 9.63086C77.8197 9.63086 78.6766 9.89323 79.2944 10.418C79.9123 10.9385 80.2783 11.6981 80.3926 12.6968H78.5391C78.4544 12.1678 78.2661 11.7806 77.9741 11.5352C77.6864 11.2897 77.2886 11.167 76.7808 11.167C76.1333 11.167 75.6403 11.4103 75.3018 11.897C74.9632 12.3836 74.7918 13.1073 74.7876 14.0679V14.6582C74.7876 15.6273 74.9717 16.3594 75.3398 16.8545C75.708 17.3496 76.2476 17.5972 76.9585 17.5972C77.6737 17.5972 78.1836 17.4448 78.4883 17.1401V15.5469H76.7554V14.144H80.3926V17.832ZM83.9663 19H82.062V9.75781H83.9663V19ZM92.7324 9.75781V15.8452C92.7324 16.8566 92.415 17.6564 91.7803 18.2446C91.1497 18.8328 90.2865 19.127 89.1904 19.127C88.1113 19.127 87.2544 18.8413 86.6196 18.27C85.9849 17.6987 85.6611 16.9137 85.6484 15.915V9.75781H87.5527V15.8579C87.5527 16.4631 87.6966 16.9053 87.9844 17.1846C88.2764 17.4596 88.6784 17.5972 89.1904 17.5972C90.2611 17.5972 90.8049 17.0343 90.8218 15.9087V9.75781H92.7324ZM96.7822 9.75781L99.1562 16.4609L101.518 9.75781H104.019V19H102.108V16.4736L102.298 12.1128L99.8037 19H98.4961L96.0078 12.1191L96.1982 16.4736V19H94.2939V9.75781H96.7822ZM106.037 21.3169L105.079 20.8154L105.307 20.4028C105.591 19.8866 105.737 19.3724 105.745 18.8604V17.4385H107.294L107.288 18.708C107.283 19.1777 107.165 19.6517 106.932 20.1299C106.699 20.6081 106.401 21.0037 106.037 21.3169ZM119.405 17.832C119.062 18.2425 118.578 18.562 117.952 18.7905C117.325 19.0148 116.631 19.127 115.87 19.127C115.07 19.127 114.367 18.9535 113.762 18.6064C113.161 18.2552 112.696 17.7474 112.366 17.083C112.04 16.4186 111.873 15.6379 111.864 14.7407V14.1123C111.864 13.1898 112.019 12.3921 112.328 11.7192C112.641 11.0422 113.089 10.5259 113.673 10.1704C114.262 9.81071 114.949 9.63086 115.736 9.63086C116.832 9.63086 117.689 9.89323 118.307 10.418C118.925 10.9385 119.291 11.6981 119.405 12.6968H117.552C117.467 12.1678 117.279 11.7806 116.987 11.5352C116.699 11.2897 116.301 11.167 115.793 11.167C115.146 11.167 114.653 11.4103 114.314 11.897C113.976 12.3836 113.805 13.1073 113.8 14.0679V14.6582C113.8 15.6273 113.984 16.3594 114.353 16.8545C114.721 17.3496 115.26 17.5972 115.971 17.5972C116.686 17.5972 117.196 17.4448 117.501 17.1401V15.5469H115.768V14.144H119.405V17.832ZM126.515 14.9946H122.858V17.4702H127.149V19H120.954V9.75781H127.137V11.3003H122.858V13.5029H126.515V14.9946ZM135.782 19H133.878L130.171 12.9189V19H128.267V9.75781H130.171L133.884 15.8516V9.75781H135.782V19ZM144.212 11.3003H141.381V19H139.477V11.3003H136.684V9.75781H144.212V11.3003Z" fill="white"/>
<g clip-path="url(#clip0)">
<path d="M30.7292 24.5965C25.0535 16.3684 24 15.5239 24 12.5C24 8.35785 27.3579 5 31.5 5C35.6421 5 39 8.35785 39 12.5C39 15.5239 37.9465 16.3684 32.2708 24.5965C31.8983 25.1345 31.1016 25.1345 30.7292 24.5965ZM31.5 15.625C33.2259 15.625 34.625 14.2259 34.625 12.5C34.625 10.7741 33.2259 9.375 31.5 9.375C29.7741 9.375 28.375 10.7741 28.375 12.5C28.375 14.2259 29.7741 15.625 31.5 15.625Z" fill="white"/>
</g>
<defs>
<clipPath id="clip0">
<rect width="15" height="20" fill="white" transform="translate(24 5)"/>
</clipPath>
</defs>
</svg>
