<svg width="170" height="35" viewBox="0 0 170 35" fill="none" xmlns="http://www.w3.org/2000/svg">
<rect width="170" height="35" fill="#007EC6"/>
<path d="M40.0156 23V11.625H44C45.3802 11.625 46.4271 11.8906 47.1406 12.4219C47.8542 12.9479 48.2109 13.7214 48.2109 14.7422C48.2109 15.2995 48.0677 15.7917 47.7812 16.2188C47.4948 16.6406 47.0964 16.9505 46.5859 17.1484C47.1693 17.2943 47.6276 17.5885 47.9609 18.0312C48.2995 18.474 48.4688 19.0156 48.4688 19.6562C48.4688 20.75 48.1198 21.5781 47.4219 22.1406C46.724 22.7031 45.7292 22.9896 44.4375 23H40.0156ZM42.3594 18.0469V21.1172H44.3672C44.9193 21.1172 45.349 20.987 45.6562 20.7266C45.9688 20.4609 46.125 20.0964 46.125 19.6328C46.125 18.5911 45.5859 18.0625 44.5078 18.0469H42.3594ZM42.3594 16.3906H44.0938C45.276 16.3698 45.8672 15.8984 45.8672 14.9766C45.8672 14.4609 45.7161 14.0911 45.4141 13.8672C45.1172 13.638 44.6458 13.5234 44 13.5234H42.3594V16.3906ZM57.0781 18.0703H52.5781V21.1172H57.8594V23H50.2344V11.625H57.8438V13.5234H52.5781V16.2344H57.0781V18.0703ZM61.5781 21.1172H66.5547V23H59.2344V11.625H61.5781V21.1172ZM76.4062 21.5625C75.9844 22.0677 75.388 22.4609 74.6172 22.7422C73.8464 23.0182 72.9922 23.1562 72.0547 23.1562C71.0703 23.1562 70.2057 22.9427 69.4609 22.5156C68.7214 22.0833 68.1484 21.4583 67.7422 20.6406C67.3411 19.8229 67.1354 18.862 67.125 17.7578V16.9844C67.125 15.849 67.3151 14.8672 67.6953 14.0391C68.0807 13.2057 68.6328 12.5703 69.3516 12.1328C70.0755 11.6901 70.9219 11.4688 71.8906 11.4688C73.2396 11.4688 74.2943 11.7917 75.0547 12.4375C75.8151 13.0781 76.2656 14.013 76.4062 15.2422H74.125C74.0208 14.5911 73.7891 14.1146 73.4297 13.8125C73.0755 13.5104 72.5859 13.3594 71.9609 13.3594C71.1641 13.3594 70.5573 13.6589 70.1406 14.2578C69.724 14.8568 69.513 15.7474 69.5078 16.9297V17.6562C69.5078 18.849 69.7344 19.75 70.1875 20.3594C70.6406 20.9688 71.3047 21.2734 72.1797 21.2734C73.0599 21.2734 73.6875 21.0859 74.0625 20.7109V18.75H71.9297V17.0234H76.4062V21.5625ZM80.8047 23H78.4609V11.625H80.8047V23ZM91.5938 11.625V19.1172C91.5938 20.362 91.2031 21.3464 90.4219 22.0703C89.6458 22.7943 88.5833 23.1562 87.2344 23.1562C85.9062 23.1562 84.8516 22.8047 84.0703 22.1016C83.2891 21.3984 82.8906 20.4323 82.875 19.2031V11.625H85.2188V19.1328C85.2188 19.8776 85.3958 20.4219 85.75 20.7656C86.1094 21.1042 86.6042 21.2734 87.2344 21.2734C88.5521 21.2734 89.2214 20.5807 89.2422 19.1953V11.625H91.5938ZM96.5781 11.625L99.5 19.875L102.406 11.625H105.484V23H103.133V19.8906L103.367 14.5234L100.297 23H98.6875L95.625 14.5312L95.8594 19.8906V23H93.5156V11.625H96.5781ZM107.969 25.8516L106.789 25.2344L107.07 24.7266C107.419 24.0911 107.599 23.4583 107.609 22.8281V21.0781H109.516L109.508 22.6406C109.503 23.2188 109.357 23.8021 109.07 24.3906C108.784 24.9792 108.417 25.4661 107.969 25.8516ZM124.422 21.5625C124 22.0677 123.404 22.4609 122.633 22.7422C121.862 23.0182 121.008 23.1562 120.07 23.1562C119.086 23.1562 118.221 22.9427 117.477 22.5156C116.737 22.0833 116.164 21.4583 115.758 20.6406C115.357 19.8229 115.151 18.862 115.141 17.7578V16.9844C115.141 15.849 115.331 14.8672 115.711 14.0391C116.096 13.2057 116.648 12.5703 117.367 12.1328C118.091 11.6901 118.938 11.4688 119.906 11.4688C121.255 11.4688 122.31 11.7917 123.07 12.4375C123.831 13.0781 124.281 14.013 124.422 15.2422H122.141C122.036 14.5911 121.805 14.1146 121.445 13.8125C121.091 13.5104 120.602 13.3594 119.977 13.3594C119.18 13.3594 118.573 13.6589 118.156 14.2578C117.74 14.8568 117.529 15.7474 117.523 16.9297V17.6562C117.523 18.849 117.75 19.75 118.203 20.3594C118.656 20.9688 119.32 21.2734 120.195 21.2734C121.076 21.2734 121.703 21.0859 122.078 20.7109V18.75H119.945V17.0234H124.422V21.5625ZM133.172 18.0703H128.672V21.1172H133.953V23H126.328V11.625H133.938V13.5234H128.672V16.2344H133.172V18.0703ZM144.578 23H142.234L137.672 15.5156V23H135.328V11.625H137.672L142.242 19.125V11.625H144.578V23ZM154.953 13.5234H151.469V23H149.125V13.5234H145.688V11.625H154.953V13.5234Z" fill="white"/>
<g clip-path="url(#clip0)">
<path fill-rule="evenodd" clip-rule="evenodd" d="M14 12.0001C14.0001 11.0379 14.2778 10.0962 14.7999 9.28789C15.3219 8.4796 16.0661 7.83911 16.9431 7.44328C17.8202 7.04745 18.7928 6.91309 19.7443 7.05632C20.6958 7.19955 21.5857 7.61429 22.3074 8.25077C23.029 8.88725 23.5517 9.71843 23.8126 10.6446C24.0736 11.5707 24.0617 12.5525 23.7786 13.4721C23.4954 14.3917 22.9529 15.2101 22.2161 15.829C21.4794 16.4479 20.5797 16.8411 19.625 16.9614V23.8751C19.625 24.0409 19.5592 24.1999 19.4419 24.3171C19.3247 24.4343 19.1658 24.5001 19 24.5001C18.8342 24.5001 18.6753 24.4343 18.5581 24.3171C18.4408 24.1999 18.375 24.0409 18.375 23.8751V16.9626C17.1662 16.8104 16.0546 16.2219 15.249 15.3079C14.4434 14.3939 13.9993 13.2172 14 11.9989V12.0001ZM17.1163 22.7176C17.1434 22.8811 17.1045 23.0486 17.0081 23.1834C16.9118 23.3181 16.7659 23.4091 16.6025 23.4364C15.7125 23.5839 15.0025 23.8051 14.5338 24.0526C14.3616 24.1354 14.2051 24.2475 14.0713 24.3839C14.041 24.4169 14.0169 24.455 14 24.4964V24.5001L14.0025 24.5101C14.0074 24.5247 14.0141 24.5385 14.0225 24.5514C14.0718 24.6237 14.1331 24.6871 14.2038 24.7389C14.41 24.9014 14.7475 25.0764 15.22 25.2326C16.1587 25.5451 17.495 25.7501 19 25.7501C20.505 25.7501 21.8413 25.5464 22.78 25.2326C23.2525 25.0751 23.59 24.9014 23.7962 24.7389C23.8673 24.6872 23.929 24.6238 23.9787 24.5514C23.9867 24.5385 23.993 24.5246 23.9975 24.5101L24 24.5001V24.4951C23.9831 24.4537 23.959 24.4156 23.9287 24.3826C23.7949 24.2467 23.6384 24.135 23.4662 24.0526C22.9962 23.8051 22.2875 23.5839 21.3975 23.4364C21.3146 23.4252 21.2348 23.3974 21.1628 23.3548C21.0908 23.3121 21.0282 23.2554 20.9785 23.1881C20.9288 23.1208 20.8932 23.0442 20.8737 22.9628C20.8541 22.8815 20.8512 22.797 20.8649 22.7145C20.8786 22.632 20.9088 22.5531 20.9536 22.4824C20.9984 22.4117 21.0569 22.3508 21.1257 22.3032C21.1945 22.2556 21.2721 22.2222 21.354 22.2052C21.4359 22.1881 21.5204 22.1877 21.6025 22.2039C22.565 22.3626 23.4175 22.6139 24.0487 22.9464C24.625 23.2501 25.25 23.7501 25.25 24.5001C25.25 25.0326 24.925 25.4401 24.57 25.7214C24.2075 26.0064 23.72 26.2376 23.175 26.4189C22.0775 26.7851 20.6013 27.0001 19 27.0001C17.3987 27.0001 15.9225 26.7851 14.825 26.4189C14.28 26.2376 13.7925 26.0064 13.43 25.7214C13.075 25.4401 12.75 25.0326 12.75 24.5001C12.75 23.7514 13.375 23.2501 13.9512 22.9464C14.5825 22.6139 15.435 22.3626 16.3975 22.2039C16.5609 22.1768 16.7284 22.2157 16.8632 22.312C16.998 22.4083 17.089 22.5542 17.1163 22.7176Z" fill="white"/>
</g>
<defs>
<clipPath id="clip0">
<rect width="20" height="20" fill="white" transform="translate(9 7)"/>
</clipPath>
</defs>
</svg>
