<svg width="170" height="30" viewBox="0 0 170 30" fill="none" xmlns="http://www.w3.org/2000/svg">
<rect width="170" height="30" fill="#007EC6"/>
<path d="M63.7295 15.7437V19H61.8252V9.75781H65.4307C66.1247 9.75781 66.734 9.88477 67.2588 10.1387C67.7878 10.3926 68.194 10.7544 68.4775 11.2241C68.7611 11.6896 68.9028 12.2207 68.9028 12.8174C68.9028 13.723 68.5918 14.4382 67.9697 14.9629C67.3519 15.4834 66.495 15.7437 65.3989 15.7437H63.7295ZM63.7295 14.2012H65.4307C65.9342 14.2012 66.3172 14.0827 66.5796 13.8457C66.8462 13.6087 66.9795 13.2702 66.9795 12.8301C66.9795 12.3773 66.8462 12.0112 66.5796 11.7319C66.313 11.4526 65.9448 11.3088 65.4751 11.3003H63.7295V14.2012ZM77.8086 14.5884C77.8086 15.4982 77.6478 16.2959 77.3262 16.9814C77.0046 17.667 76.5433 18.196 75.9424 18.5684C75.3457 18.9408 74.6602 19.127 73.8857 19.127C73.1198 19.127 72.4364 18.9429 71.8354 18.5747C71.2345 18.2065 70.769 17.6818 70.439 17.0005C70.1089 16.3149 69.9417 15.5278 69.9375 14.6392V14.1821C69.9375 13.2723 70.1004 12.4725 70.4263 11.7827C70.7563 11.0887 71.2197 10.5576 71.8164 10.1895C72.4173 9.81706 73.1029 9.63086 73.873 9.63086C74.6432 9.63086 75.3267 9.81706 75.9233 10.1895C76.5243 10.5576 76.9876 11.0887 77.3135 11.7827C77.6436 12.4725 77.8086 13.2702 77.8086 14.1758V14.5884ZM75.8789 14.1694C75.8789 13.2004 75.7054 12.464 75.3584 11.9604C75.0114 11.4569 74.5163 11.2051 73.873 11.2051C73.234 11.2051 72.741 11.4548 72.394 11.9541C72.047 12.4492 71.8714 13.1771 71.8672 14.1377V14.5884C71.8672 15.5321 72.0407 16.2642 72.3877 16.7847C72.7347 17.3052 73.234 17.5654 73.8857 17.5654C74.5247 17.5654 75.0156 17.3158 75.3584 16.8164C75.7012 16.3128 75.8747 15.5807 75.8789 14.6201V14.1694ZM82.6138 15.6167H81.0967V19H79.1924V9.75781H82.6265C83.7183 9.75781 84.5604 10.0011 85.1528 10.4878C85.7453 10.9744 86.0415 11.6621 86.0415 12.5508C86.0415 13.1813 85.904 13.7082 85.6289 14.1313C85.3581 14.5503 84.9455 14.8846 84.3911 15.1343L86.3906 18.9111V19H84.3467L82.6138 15.6167ZM81.0967 14.0742H82.6328C83.111 14.0742 83.4813 13.9536 83.7437 13.7124C84.006 13.467 84.1372 13.1305 84.1372 12.7031C84.1372 12.2673 84.0124 11.9245 83.7627 11.6748C83.5173 11.4251 83.1385 11.3003 82.6265 11.3003H81.0967V14.0742ZM94.1348 11.3003H91.3037V19H89.3994V11.3003H86.6064V9.75781H94.1348V11.3003ZM100.787 15.2231H97.1309V19H95.2266V9.75781H101.244V11.3003H97.1309V13.687H100.787V15.2231ZM109.94 14.5884C109.94 15.4982 109.78 16.2959 109.458 16.9814C109.136 17.667 108.675 18.196 108.074 18.5684C107.478 18.9408 106.792 19.127 106.018 19.127C105.252 19.127 104.568 18.9429 103.967 18.5747C103.366 18.2065 102.901 17.6818 102.571 17.0005C102.241 16.3149 102.074 15.5278 102.069 14.6392V14.1821C102.069 13.2723 102.232 12.4725 102.558 11.7827C102.888 11.0887 103.352 10.5576 103.948 10.1895C104.549 9.81706 105.235 9.63086 106.005 9.63086C106.775 9.63086 107.458 9.81706 108.055 10.1895C108.656 10.5576 109.119 11.0887 109.445 11.7827C109.775 12.4725 109.94 13.2702 109.94 14.1758V14.5884ZM108.011 14.1694C108.011 13.2004 107.837 12.464 107.49 11.9604C107.143 11.4569 106.648 11.2051 106.005 11.2051C105.366 11.2051 104.873 11.4548 104.526 11.9541C104.179 12.4492 104.003 13.1771 103.999 14.1377V14.5884C103.999 15.5321 104.173 16.2642 104.52 16.7847C104.867 17.3052 105.366 17.5654 106.018 17.5654C106.657 17.5654 107.147 17.3158 107.49 16.8164C107.833 16.3128 108.007 15.5807 108.011 14.6201V14.1694ZM113.229 17.4702H117.272V19H111.324V9.75781H113.229V17.4702ZM120.395 19H118.491V9.75781H120.395V19ZM129.758 14.5884C129.758 15.4982 129.597 16.2959 129.275 16.9814C128.954 17.667 128.493 18.196 127.892 18.5684C127.295 18.9408 126.609 19.127 125.835 19.127C125.069 19.127 124.386 18.9429 123.785 18.5747C123.184 18.2065 122.718 17.6818 122.388 17.0005C122.058 16.3149 121.891 15.5278 121.887 14.6392V14.1821C121.887 13.2723 122.05 12.4725 122.375 11.7827C122.706 11.0887 123.169 10.5576 123.766 10.1895C124.367 9.81706 125.052 9.63086 125.822 9.63086C126.592 9.63086 127.276 9.81706 127.873 10.1895C128.473 10.5576 128.937 11.0887 129.263 11.7827C129.593 12.4725 129.758 13.2702 129.758 14.1758V14.5884ZM127.828 14.1694C127.828 13.2004 127.655 12.464 127.308 11.9604C126.961 11.4569 126.465 11.2051 125.822 11.2051C125.183 11.2051 124.69 11.4548 124.343 11.9541C123.996 12.4492 123.821 13.1771 123.816 14.1377V14.5884C123.816 15.5321 123.99 16.2642 124.337 16.7847C124.684 17.3052 125.183 17.5654 125.835 17.5654C126.474 17.5654 126.965 17.3158 127.308 16.8164C127.65 16.3128 127.824 15.5807 127.828 14.6201V14.1694Z" fill="white"/>
<path fill-rule="evenodd" clip-rule="evenodd" d="M36 15C36 12.3478 37.0536 9.8043 38.9289 7.92893C40.8043 6.05357 43.3478 5 46 5C48.6522 5 51.1957 6.05357 53.0711 7.92893C54.9464 9.8043 56 12.3478 56 15C56 17.6522 54.9464 20.1957 53.0711 22.0711C51.1957 23.9464 48.6522 25 46 25C43.3478 25 40.8043 23.9464 38.9289 22.0711C37.0536 20.1957 36 17.6522 36 15V15ZM45.375 6.34625C44.5375 6.60125 43.7062 7.37125 43.0162 8.665C42.8375 9 42.6712 9.365 42.5225 9.755C43.4037 9.95125 44.3625 10.0763 45.375 10.1138V6.34625ZM41.3113 9.42375C40.797 9.25853 40.2964 9.05375 39.8138 8.81125C40.628 7.99714 41.5948 7.35151 42.6588 6.91125C42.3783 7.27834 42.1287 7.668 41.9125 8.07625C41.6827 8.51198 41.4823 8.96256 41.3125 9.425L41.3113 9.42375ZM40.3863 14.375H37.2712C37.3876 12.7122 37.979 11.1178 38.975 9.78125C39.5625 10.1038 40.2187 10.3838 40.9312 10.615C40.6071 11.8436 40.4239 13.105 40.385 14.375H40.3863ZM42.1362 10.9487C43.1462 11.1825 44.2375 11.325 45.375 11.3638V14.375H41.6375C41.6813 13.1413 41.8575 11.9825 42.1362 10.9487ZM46.625 11.3625V14.375H50.3625C50.3253 13.2178 50.158 12.0685 49.8637 10.9487C48.8537 11.1825 47.7625 11.325 46.625 11.3638V11.3625ZM41.6375 15.625H45.375V18.6363C44.2375 18.6738 43.1462 18.8175 42.1362 19.0513C41.8416 17.9315 41.6738 16.7822 41.6362 15.625H41.6375ZM46.625 15.625V18.6363C47.7625 18.6738 48.8537 18.8175 49.8637 19.0513C50.1425 18.0175 50.3188 16.8587 50.3638 15.625H46.625ZM42.5225 20.245C43.4605 20.0393 44.4153 19.9197 45.375 19.8875V23.655C44.5375 23.4 43.7062 22.63 43.0162 21.3363C42.8294 20.9834 42.6645 20.6194 42.5225 20.2462V20.245ZM42.66 23.09C42.379 22.7226 42.129 22.3325 41.9125 21.9237C41.6823 21.4881 41.4814 21.0375 41.3113 20.575C40.797 20.7403 40.2964 20.945 39.8138 21.1875C40.6278 22.0025 41.5946 22.649 42.6588 23.09H42.66ZM40.9312 19.385C40.2545 19.6011 39.5996 19.8802 38.975 20.2188C37.9794 18.8821 37.3885 17.2877 37.2725 15.625H40.385C40.4235 16.895 40.6067 18.1565 40.9312 19.385V19.385ZM49.3413 23.09C50.4049 22.6493 51.3712 22.0032 52.185 21.1888C51.7028 20.9463 51.2025 20.7415 50.6888 20.5763C50.5185 21.0383 50.3177 21.4885 50.0875 21.9237C49.8714 22.3325 49.6218 22.7226 49.3413 23.09V23.09ZM46.625 19.8863C47.6375 19.9238 48.5962 20.0488 49.4775 20.245C49.3275 20.635 49.1625 21 48.9838 21.335C48.2938 22.6287 47.4613 23.3975 46.625 23.6538V19.8875V19.8863ZM51.0688 19.385C51.7813 19.6163 52.4375 19.8963 53.025 20.2188C54.0206 18.8821 54.6115 17.2877 54.7275 15.625H51.615C51.5765 16.895 51.3933 18.1565 51.0688 19.385V19.385ZM54.7275 14.375H51.615C51.5765 13.105 51.3933 11.8435 51.0688 10.615C51.7454 10.3986 52.4003 10.1195 53.025 9.78125C54.0206 11.1179 54.6115 12.7123 54.7275 14.375V14.375ZM50.0875 8.07625C50.3088 8.49375 50.5112 8.94375 50.69 9.42375C51.2034 9.25843 51.7032 9.05365 52.185 8.81125C51.3711 7.99728 50.4048 7.35165 49.3413 6.91125C49.6138 7.265 49.8638 7.6575 50.0875 8.07625V8.07625ZM49.4775 9.755C48.5962 9.95125 47.6363 10.0763 46.625 10.1138V6.34625C47.4625 6.60125 48.2938 7.37125 48.9838 8.665C49.1625 9 49.3287 9.365 49.4775 9.755Z" fill="white"/>
</svg>
