<svg width="170" height="35" viewBox="0 0 170 35" fill="none" xmlns="http://www.w3.org/2000/svg">
<rect width="170" height="35" fill="#007EC6"/>
<path d="M55.7793 19.4912V24H53.1426V11.2031H58.1348C59.0957 11.2031 59.9395 11.3789 60.666 11.7305C61.3984 12.082 61.9609 12.583 62.3535 13.2334C62.7461 13.8779 62.9424 14.6133 62.9424 15.4395C62.9424 16.6934 62.5117 17.6836 61.6504 18.4102C60.7949 19.1309 59.6084 19.4912 58.0908 19.4912H55.7793ZM55.7793 17.3555H58.1348C58.832 17.3555 59.3623 17.1914 59.7256 16.8633C60.0947 16.5352 60.2793 16.0664 60.2793 15.457C60.2793 14.8301 60.0947 14.3232 59.7256 13.9365C59.3564 13.5498 58.8467 13.3506 58.1963 13.3389H55.7793V17.3555ZM75.2734 17.8916C75.2734 19.1514 75.0508 20.2559 74.6055 21.2051C74.1602 22.1543 73.5215 22.8867 72.6895 23.4023C71.8633 23.918 70.9141 24.1758 69.8418 24.1758C68.7812 24.1758 67.835 23.9209 67.0029 23.4111C66.1709 22.9014 65.5264 22.1748 65.0693 21.2314C64.6123 20.2822 64.3809 19.1924 64.375 17.9619V17.3291C64.375 16.0693 64.6006 14.9619 65.0518 14.0068C65.5088 13.0459 66.1504 12.3105 66.9766 11.8008C67.8086 11.2852 68.7578 11.0273 69.8242 11.0273C70.8906 11.0273 71.8369 11.2852 72.6631 11.8008C73.4951 12.3105 74.1367 13.0459 74.5879 14.0068C75.0449 14.9619 75.2734 16.0664 75.2734 17.3203V17.8916ZM72.6016 17.3115C72.6016 15.9697 72.3613 14.9502 71.8809 14.2529C71.4004 13.5557 70.7148 13.207 69.8242 13.207C68.9395 13.207 68.2568 13.5527 67.7764 14.2441C67.2959 14.9297 67.0527 15.9375 67.0469 17.2676V17.8916C67.0469 19.1982 67.2871 20.2119 67.7676 20.9326C68.248 21.6533 68.9395 22.0137 69.8418 22.0137C70.7266 22.0137 71.4062 21.668 71.8809 20.9766C72.3555 20.2793 72.5957 19.2656 72.6016 17.9355V17.3115ZM81.9268 19.3154H79.8262V24H77.1895V11.2031H81.9443C83.4561 11.2031 84.6221 11.54 85.4424 12.2139C86.2627 12.8877 86.6729 13.8398 86.6729 15.0703C86.6729 15.9434 86.4824 16.6729 86.1016 17.2588C85.7266 17.8389 85.1553 18.3018 84.3877 18.6475L87.1562 23.877V24H84.3262L81.9268 19.3154ZM79.8262 17.1797H81.9531C82.6152 17.1797 83.1279 17.0127 83.4912 16.6787C83.8545 16.3389 84.0361 15.873 84.0361 15.2812C84.0361 14.6777 83.8633 14.2031 83.5176 13.8574C83.1777 13.5117 82.6533 13.3389 81.9443 13.3389H79.8262V17.1797ZM97.8789 13.3389H93.959V24H91.3223V13.3389H87.4551V11.2031H97.8789V13.3389ZM107.09 18.7705H102.027V24H99.3906V11.2031H107.723V13.3389H102.027V16.6436H107.09V18.7705ZM119.764 17.8916C119.764 19.1514 119.541 20.2559 119.096 21.2051C118.65 22.1543 118.012 22.8867 117.18 23.4023C116.354 23.918 115.404 24.1758 114.332 24.1758C113.271 24.1758 112.325 23.9209 111.493 23.4111C110.661 22.9014 110.017 22.1748 109.56 21.2314C109.103 20.2822 108.871 19.1924 108.865 17.9619V17.3291C108.865 16.0693 109.091 14.9619 109.542 14.0068C109.999 13.0459 110.641 12.3105 111.467 11.8008C112.299 11.2852 113.248 11.0273 114.314 11.0273C115.381 11.0273 116.327 11.2852 117.153 11.8008C117.985 12.3105 118.627 13.0459 119.078 14.0068C119.535 14.9619 119.764 16.0664 119.764 17.3203V17.8916ZM117.092 17.3115C117.092 15.9697 116.852 14.9502 116.371 14.2529C115.891 13.5557 115.205 13.207 114.314 13.207C113.43 13.207 112.747 13.5527 112.267 14.2441C111.786 14.9297 111.543 15.9375 111.537 17.2676V17.8916C111.537 19.1982 111.777 20.2119 112.258 20.9326C112.738 21.6533 113.43 22.0137 114.332 22.0137C115.217 22.0137 115.896 21.668 116.371 20.9766C116.846 20.2793 117.086 19.2656 117.092 17.9355V17.3115ZM124.316 21.8818H129.915V24H121.68V11.2031H124.316V21.8818ZM134.239 24H131.603V11.2031H134.239V24ZM147.203 17.8916C147.203 19.1514 146.98 20.2559 146.535 21.2051C146.09 22.1543 145.451 22.8867 144.619 23.4023C143.793 23.918 142.844 24.1758 141.771 24.1758C140.711 24.1758 139.765 23.9209 138.933 23.4111C138.101 22.9014 137.456 22.1748 136.999 21.2314C136.542 20.2822 136.311 19.1924 136.305 17.9619V17.3291C136.305 16.0693 136.53 14.9619 136.981 14.0068C137.438 13.0459 138.08 12.3105 138.906 11.8008C139.738 11.2852 140.688 11.0273 141.754 11.0273C142.82 11.0273 143.767 11.2852 144.593 11.8008C145.425 12.3105 146.066 13.0459 146.518 14.0068C146.975 14.9619 147.203 16.0664 147.203 17.3203V17.8916ZM144.531 17.3115C144.531 15.9697 144.291 14.9502 143.811 14.2529C143.33 13.5557 142.645 13.207 141.754 13.207C140.869 13.207 140.187 13.5527 139.706 14.2441C139.226 14.9297 138.982 15.9375 138.977 17.2676V17.8916C138.977 19.1982 139.217 20.2119 139.697 20.9326C140.178 21.6533 140.869 22.0137 141.771 22.0137C142.656 22.0137 143.336 21.668 143.811 20.9766C144.285 20.2793 144.525 19.2656 144.531 17.9355V17.3115Z" fill="white"/>
<path fill-rule="evenodd" clip-rule="evenodd" d="M22 17C22 14.3478 23.0536 11.8043 24.9289 9.92893C26.8043 8.05357 29.3478 7 32 7C34.6522 7 37.1957 8.05357 39.0711 9.92893C40.9464 11.8043 42 14.3478 42 17C42 19.6522 40.9464 22.1957 39.0711 24.0711C37.1957 25.9464 34.6522 27 32 27C29.3478 27 26.8043 25.9464 24.9289 24.0711C23.0536 22.1957 22 19.6522 22 17V17ZM31.375 8.34625C30.5375 8.60125 29.7062 9.37125 29.0162 10.665C28.8375 11 28.6712 11.365 28.5225 11.755C29.4037 11.9512 30.3625 12.0763 31.375 12.1138V8.34625ZM27.3113 11.4238C26.797 11.2585 26.2964 11.0538 25.8138 10.8113C26.628 9.99714 27.5948 9.35151 28.6588 8.91125C28.3783 9.27834 28.1287 9.668 27.9125 10.0762C27.6827 10.512 27.4823 10.9626 27.3125 11.425L27.3113 11.4238ZM26.3863 16.375H23.2712C23.3876 14.7122 23.979 13.1178 24.975 11.7813C25.5625 12.1038 26.2187 12.3838 26.9312 12.615C26.6071 13.8436 26.4239 15.105 26.385 16.375H26.3863ZM28.1362 12.9487C29.1462 13.1825 30.2375 13.325 31.375 13.3638V16.375H27.6375C27.6813 15.1413 27.8575 13.9825 28.1362 12.9487ZM32.625 13.3625V16.375H36.3625C36.3253 15.2178 36.158 14.0685 35.8637 12.9487C34.8537 13.1825 33.7625 13.325 32.625 13.3638V13.3625ZM27.6375 17.625H31.375V20.6363C30.2375 20.6738 29.1462 20.8175 28.1362 21.0513C27.8416 19.9315 27.6738 18.7822 27.6362 17.625H27.6375ZM32.625 17.625V20.6363C33.7625 20.6738 34.8537 20.8175 35.8637 21.0513C36.1425 20.0175 36.3188 18.8587 36.3638 17.625H32.625ZM28.5225 22.245C29.4605 22.0393 30.4153 21.9197 31.375 21.8875V25.655C30.5375 25.4 29.7062 24.63 29.0162 23.3363C28.8294 22.9834 28.6645 22.6194 28.5225 22.2462V22.245ZM28.66 25.09C28.379 24.7226 28.129 24.3325 27.9125 23.9237C27.6823 23.4881 27.4814 23.0375 27.3113 22.575C26.797 22.7403 26.2964 22.945 25.8138 23.1875C26.6278 24.0025 27.5946 24.649 28.6588 25.09H28.66ZM26.9312 21.385C26.2545 21.6011 25.5996 21.8802 24.975 22.2188C23.9794 20.8821 23.3885 19.2877 23.2725 17.625H26.385C26.4235 18.895 26.6067 20.1565 26.9312 21.385V21.385ZM35.3413 25.09C36.4049 24.6493 37.3712 24.0032 38.185 23.1888C37.7028 22.9463 37.2025 22.7415 36.6888 22.5763C36.5185 23.0383 36.3177 23.4885 36.0875 23.9237C35.8714 24.3325 35.6218 24.7226 35.3413 25.09V25.09ZM32.625 21.8863C33.6375 21.9238 34.5962 22.0488 35.4775 22.245C35.3275 22.635 35.1625 23 34.9838 23.335C34.2938 24.6287 33.4613 25.3975 32.625 25.6538V21.8875V21.8863ZM37.0688 21.385C37.7813 21.6163 38.4375 21.8963 39.025 22.2188C40.0206 20.8821 40.6115 19.2877 40.7275 17.625H37.615C37.5765 18.895 37.3933 20.1565 37.0688 21.385V21.385ZM40.7275 16.375H37.615C37.5765 15.105 37.3933 13.8435 37.0688 12.615C37.7454 12.3986 38.4003 12.1195 39.025 11.7813C40.0206 13.1179 40.6115 14.7123 40.7275 16.375V16.375ZM36.0875 10.0762C36.3088 10.4937 36.5112 10.9438 36.69 11.4238C37.2034 11.2584 37.7032 11.0537 38.185 10.8113C37.3711 9.99728 36.4048 9.35165 35.3413 8.91125C35.6138 9.265 35.8638 9.6575 36.0875 10.0762V10.0762ZM35.4775 11.755C34.5962 11.9512 33.6363 12.0763 32.625 12.1138V8.34625C33.4625 8.60125 34.2938 9.37125 34.9838 10.665C35.1625 11 35.3287 11.365 35.4775 11.755Z" fill="white"/>
</svg>
