<svg width="170" height="35" viewBox="0 0 170 35" fill="none" xmlns="http://www.w3.org/2000/svg">
<rect width="170" height="35" fill="#1DA1F2"/>
<path d="M51.688 19.2109C51.5994 20.4349 51.1463 21.3984 50.3286 22.1016C49.5161 22.8047 48.4432 23.1562 47.1099 23.1562C45.6515 23.1562 44.5031 22.6667 43.6646 21.6875C42.8312 20.7031 42.4146 19.3542 42.4146 17.6406V16.9453C42.4146 15.8516 42.6073 14.888 42.9927 14.0547C43.3781 13.2214 43.9276 12.5833 44.6411 12.1406C45.3599 11.6927 46.1932 11.4688 47.1411 11.4688C48.4536 11.4688 49.5109 11.8203 50.313 12.5234C51.1151 13.2266 51.5786 14.2135 51.7036 15.4844H49.3599C49.3026 14.75 49.0968 14.2188 48.7427 13.8906C48.3937 13.5573 47.8599 13.3906 47.1411 13.3906C46.3599 13.3906 45.7739 13.6719 45.3833 14.2344C44.9979 14.7917 44.8 15.6589 44.7896 16.8359V17.6953C44.7896 18.9245 44.9744 19.8229 45.3442 20.3906C45.7192 20.9583 46.3078 21.2422 47.1099 21.2422C47.8338 21.2422 48.3729 21.0781 48.7271 20.75C49.0864 20.4167 49.2922 19.9036 49.3442 19.2109H51.688ZM59.6489 20.6562H55.5396L54.7583 23H52.2661L56.5005 11.625H58.6724L62.9302 23H60.438L59.6489 20.6562ZM56.1724 18.7578H59.0161L57.5864 14.5L56.1724 18.7578ZM69.8911 20.0156C69.8911 19.5729 69.7349 19.2344 69.4224 19C69.1099 18.7604 68.5474 18.5104 67.7349 18.25C66.9224 17.9844 66.2791 17.724 65.8052 17.4688C64.5135 16.7708 63.8677 15.8307 63.8677 14.6484C63.8677 14.0339 64.0396 13.487 64.3833 13.0078C64.7323 12.5234 65.2297 12.1458 65.8755 11.875C66.5265 11.6042 67.2557 11.4688 68.063 11.4688C68.8755 11.4688 69.5994 11.6172 70.2349 11.9141C70.8703 12.2057 71.3625 12.6198 71.7114 13.1562C72.0656 13.6927 72.2427 14.3021 72.2427 14.9844H69.8989C69.8989 14.4635 69.7349 14.0599 69.4067 13.7734C69.0786 13.4818 68.6177 13.3359 68.0239 13.3359C67.451 13.3359 67.0057 13.4583 66.688 13.7031C66.3703 13.9427 66.2114 14.2604 66.2114 14.6562C66.2114 15.026 66.3963 15.3359 66.7661 15.5859C67.1411 15.8359 67.6906 16.0703 68.4146 16.2891C69.7479 16.6901 70.7192 17.1875 71.3286 17.7812C71.938 18.375 72.2427 19.1146 72.2427 20C72.2427 20.9844 71.8703 21.7578 71.1255 22.3203C70.3807 22.8776 69.3781 23.1562 68.1177 23.1562C67.2427 23.1562 66.4458 22.9974 65.7271 22.6797C65.0083 22.3568 64.4588 21.9167 64.0786 21.3594C63.7036 20.8021 63.5161 20.1562 63.5161 19.4219H65.8677C65.8677 20.6771 66.6177 21.3047 68.1177 21.3047C68.675 21.3047 69.1099 21.1927 69.4224 20.9688C69.7349 20.7396 69.8911 20.4219 69.8911 20.0156ZM76.1802 18.9922V23H73.8364V11.625H78.2739C79.1281 11.625 79.8781 11.7812 80.5239 12.0938C81.175 12.4062 81.675 12.8516 82.0239 13.4297C82.3729 14.0026 82.5474 14.6562 82.5474 15.3906C82.5474 16.5052 82.1646 17.3854 81.3989 18.0312C80.6385 18.6719 79.5838 18.9922 78.2349 18.9922H76.1802ZM76.1802 17.0938H78.2739C78.8937 17.0938 79.3651 16.9479 79.688 16.6562C80.0161 16.3646 80.1802 15.9479 80.1802 15.4062C80.1802 14.849 80.0161 14.3984 79.688 14.0547C79.3599 13.7109 78.9067 13.5339 78.3286 13.5234H76.1802V17.0938ZM91.0083 18.0703H86.5083V21.1172H91.7896V23H84.1646V11.625H91.7739V13.5234H86.5083V16.2344H91.0083V18.0703ZM97.3755 18.8359H95.5083V23H93.1646V11.625H97.3911C98.7349 11.625 99.7713 11.9245 100.5 12.5234C101.23 13.1224 101.594 13.9688 101.594 15.0625C101.594 15.8385 101.425 16.487 101.086 17.0078C100.753 17.5234 100.245 17.9349 99.563 18.2422L102.024 22.8906V23H99.5083L97.3755 18.8359ZM95.5083 16.9375H97.3989C97.9875 16.9375 98.4432 16.7891 98.7661 16.4922C99.089 16.1901 99.2505 15.776 99.2505 15.25C99.2505 14.7135 99.0968 14.2917 98.7896 13.9844C98.4875 13.6771 98.0213 13.5234 97.3911 13.5234H95.5083V16.9375ZM108.625 23H106.368V14.2969L103.672 15.1328V13.2969L108.383 11.6094H108.625V23ZM120.125 23H112.329V21.4531L116.008 17.5312C116.514 16.9792 116.886 16.4974 117.125 16.0859C117.37 15.6745 117.493 15.2839 117.493 14.9141C117.493 14.4089 117.365 14.013 117.11 13.7266C116.855 13.4349 116.49 13.2891 116.016 13.2891C115.506 13.2891 115.102 13.4661 114.805 13.8203C114.514 14.1693 114.368 14.6302 114.368 15.2031H112.102C112.102 14.5104 112.266 13.8776 112.594 13.3047C112.928 12.7318 113.396 12.2839 114 11.9609C114.605 11.6328 115.29 11.4688 116.055 11.4688C117.227 11.4688 118.136 11.75 118.782 12.3125C119.433 12.875 119.758 13.6693 119.758 14.6953C119.758 15.2578 119.612 15.8307 119.321 16.4141C119.029 16.9974 118.529 17.6771 117.821 18.4531L115.235 21.1797H120.125V23ZM128.196 18.7188H129.485V20.5391H128.196V23H125.938V20.5391H121.274L121.172 19.1172L125.915 11.625H128.196V18.7188ZM123.422 18.7188H125.938V14.7031L125.79 14.9609L123.422 18.7188ZM131.04 17.4062L131.696 11.625H138.071V13.5078H133.547L133.266 15.9531C133.803 15.6667 134.373 15.5234 134.977 15.5234C136.06 15.5234 136.909 15.8594 137.524 16.5312C138.139 17.2031 138.446 18.1432 138.446 19.3516C138.446 20.0859 138.29 20.7448 137.977 21.3281C137.67 21.9062 137.227 22.3568 136.649 22.6797C136.071 22.9974 135.389 23.1562 134.602 23.1562C133.915 23.1562 133.277 23.0182 132.688 22.7422C132.099 22.4609 131.633 22.0677 131.29 21.5625C130.951 21.0573 130.771 20.4818 130.75 19.8359H132.985C133.032 20.3099 133.196 20.6797 133.477 20.9453C133.764 21.2057 134.136 21.3359 134.594 21.3359C135.105 21.3359 135.498 21.1536 135.774 20.7891C136.05 20.4193 136.188 19.8984 136.188 19.2266C136.188 18.5807 136.029 18.0859 135.711 17.7422C135.394 17.3984 134.943 17.2266 134.36 17.2266C133.823 17.2266 133.389 17.3672 133.055 17.6484L132.836 17.8516L131.04 17.4062ZM147.625 12.8906L143.227 23H140.844L145.25 13.4531H139.594V11.625H147.625V12.8906ZM156.493 14.6484C156.493 15.2005 156.355 15.6901 156.079 16.1172C155.803 16.5443 155.422 16.8854 154.938 17.1406C155.49 17.4062 155.928 17.7734 156.25 18.2422C156.573 18.7057 156.735 19.2526 156.735 19.8828C156.735 20.8932 156.391 21.6927 155.704 22.2812C155.016 22.8646 154.081 23.1562 152.899 23.1562C151.717 23.1562 150.779 22.862 150.086 22.2734C149.394 21.6849 149.047 20.888 149.047 19.8828C149.047 19.2526 149.209 18.7031 149.532 18.2344C149.855 17.7656 150.29 17.401 150.836 17.1406C150.352 16.8854 149.972 16.5443 149.696 16.1172C149.425 15.6901 149.29 15.2005 149.29 14.6484C149.29 13.6797 149.612 12.9089 150.258 12.3359C150.904 11.7578 151.782 11.4688 152.891 11.4688C153.995 11.4688 154.87 11.7552 155.516 12.3281C156.167 12.8958 156.493 13.6693 156.493 14.6484ZM154.469 19.7188C154.469 19.224 154.326 18.8281 154.04 18.5312C153.753 18.2344 153.368 18.0859 152.883 18.0859C152.404 18.0859 152.021 18.2344 151.735 18.5312C151.448 18.8229 151.305 19.2188 151.305 19.7188C151.305 20.2031 151.446 20.5938 151.727 20.8906C152.008 21.1875 152.399 21.3359 152.899 21.3359C153.389 21.3359 153.771 21.1927 154.047 20.9062C154.329 20.6198 154.469 20.224 154.469 19.7188ZM154.235 14.7578C154.235 14.3151 154.118 13.9609 153.883 13.6953C153.649 13.4245 153.318 13.2891 152.891 13.2891C152.469 13.2891 152.141 13.4193 151.907 13.6797C151.672 13.9401 151.555 14.2995 151.555 14.7578C151.555 15.2109 151.672 15.5755 151.907 15.8516C152.141 16.1276 152.472 16.2656 152.899 16.2656C153.326 16.2656 153.654 16.1276 153.883 15.8516C154.118 15.5755 154.235 15.2109 154.235 14.7578Z" fill="white"/>
<g clip-path="url(#clip0)">
<path d="M30.1084 14.0482C30.1205 14.2259 30.1205 14.4036 30.1205 14.5812C30.1205 20 26.1781 26.2436 18.9726 26.2436C16.7527 26.2436 14.6905 25.571 12.9559 24.4036C13.2713 24.4416 13.5745 24.4543 13.902 24.4543C15.7337 24.4543 17.4199 23.8071 18.7664 22.703C17.0438 22.665 15.6003 21.4848 15.1029 19.8604C15.3456 19.8984 15.5882 19.9238 15.8429 19.9238C16.1947 19.9238 16.5465 19.873 16.874 19.7843C15.0787 19.4035 13.7322 17.7538 13.7322 15.7614V15.7107C14.2538 16.0152 14.8604 16.2056 15.5032 16.2309C14.4479 15.4949 13.7565 14.2386 13.7565 12.8172C13.7565 12.0558 13.9505 11.3579 14.2902 10.7487C16.2189 13.236 19.1181 14.8604 22.3691 15.038C22.3084 14.7335 22.272 14.4162 22.272 14.099C22.272 11.8401 24.0188 10 26.1902 10C27.3183 10 28.3373 10.4949 29.053 11.2944C29.9385 11.1168 30.7876 10.7741 31.5397 10.3046C31.2485 11.2564 30.6299 12.0559 29.8172 12.5634C30.6057 12.4746 31.3699 12.2462 32.0734 11.9289C31.5398 12.7411 30.8726 13.4644 30.1084 14.0482Z" fill="white"/>
</g>
<defs>
<clipPath id="clip0">
<rect width="19.1176" height="20" fill="white" transform="translate(12 7)"/>
</clipPath>
</defs>
</svg>
