<svg width="170" height="30" viewBox="0 0 170 30" fill="none" xmlns="http://www.w3.org/2000/svg">
<rect width="170" height="30" fill="#1DA1F2"/>
<path d="M55.01 16.6846C54.9326 17.7555 54.5361 18.5986 53.8206 19.2139C53.1096 19.8291 52.1708 20.1367 51.0042 20.1367C49.7281 20.1367 48.7232 19.7083 47.9895 18.8516C47.2604 17.9902 46.8958 16.8099 46.8958 15.3105V14.7021C46.8958 13.7451 47.0644 12.902 47.4016 12.1729C47.7389 11.4437 48.2197 10.8854 48.844 10.498C49.4729 10.1061 50.2021 9.91016 51.0315 9.91016C52.18 9.91016 53.1051 10.2178 53.8069 10.833C54.5087 11.4482 54.9143 12.3118 55.0237 13.4238H52.9729C52.9228 12.7812 52.7428 12.3164 52.4329 12.0293C52.1275 11.7376 51.6604 11.5918 51.0315 11.5918C50.3479 11.5918 49.8352 11.8379 49.4934 12.3301C49.1562 12.8177 48.983 13.5765 48.9739 14.6064V15.3584C48.9739 16.4339 49.1357 17.2201 49.4592 17.7168C49.7874 18.2135 50.3023 18.4619 51.0042 18.4619C51.6376 18.4619 52.1093 18.3184 52.4192 18.0312C52.7337 17.7396 52.9137 17.2907 52.9592 16.6846H55.01ZM61.9758 17.9492H58.3801L57.6966 20H55.5159L59.221 10.0469H61.1214L64.8469 20H62.6663L61.9758 17.9492ZM58.9339 16.2881H61.4221L60.1712 12.5625L58.9339 16.2881ZM70.9378 17.3887C70.9378 17.0013 70.801 16.7051 70.5276 16.5C70.2542 16.2904 69.762 16.0716 69.051 15.8438C68.3401 15.6113 67.7773 15.3835 67.3626 15.1602C66.2324 14.5495 65.6673 13.7269 65.6673 12.6924C65.6673 12.1546 65.8176 11.6761 66.1184 11.2568C66.4238 10.833 66.859 10.5026 67.4241 10.2656C67.9938 10.0286 68.6318 9.91016 69.3382 9.91016C70.0491 9.91016 70.6826 10.04 71.2385 10.2998C71.7945 10.555 72.2252 10.9173 72.5305 11.3867C72.8404 11.8561 72.9954 12.3893 72.9954 12.9863H70.9446C70.9446 12.5306 70.801 12.1774 70.5139 11.9268C70.2268 11.6715 69.8235 11.5439 69.304 11.5439C68.8027 11.5439 68.413 11.651 68.135 11.8652C67.857 12.0749 67.718 12.3529 67.718 12.6992C67.718 13.0228 67.8798 13.2939 68.2034 13.5127C68.5315 13.7314 69.0123 13.9365 69.6458 14.1279C70.8124 14.4788 71.6624 14.9141 72.1956 15.4336C72.7288 15.9531 72.9954 16.6003 72.9954 17.375C72.9954 18.2363 72.6695 18.9131 72.0178 19.4053C71.3661 19.8929 70.4889 20.1367 69.386 20.1367C68.6204 20.1367 67.9231 19.9977 67.2942 19.7197C66.6653 19.4372 66.1845 19.0521 65.8518 18.5645C65.5237 18.0768 65.3596 17.5117 65.3596 16.8691H67.4173C67.4173 17.9674 68.0735 18.5166 69.386 18.5166C69.8736 18.5166 70.2542 18.4186 70.5276 18.2227C70.801 18.0221 70.9378 17.7441 70.9378 17.3887ZM76.4407 16.4932V20H74.3899V10.0469H78.2727C79.0201 10.0469 79.6764 10.1836 80.2415 10.457C80.8111 10.7305 81.2486 11.1201 81.554 11.626C81.8593 12.1273 82.012 12.6992 82.012 13.3418C82.012 14.3171 81.677 15.0872 81.0071 15.6523C80.3417 16.2129 79.4189 16.4932 78.2385 16.4932H76.4407ZM76.4407 14.832H78.2727C78.815 14.832 79.2275 14.7044 79.51 14.4492C79.7971 14.194 79.9407 13.8294 79.9407 13.3555C79.9407 12.8678 79.7971 12.4736 79.51 12.1729C79.2229 11.8721 78.8264 11.7171 78.3206 11.708H76.4407V14.832ZM89.4153 15.6865H85.4778V18.3525H90.0989V20H83.427V10.0469H90.0852V11.708H85.4778V14.0801H89.4153V15.6865ZM94.9866 16.3564H93.3528V20H91.302V10.0469H95.0003C96.176 10.0469 97.0829 10.3089 97.721 10.833C98.359 11.3571 98.678 12.0977 98.678 13.0547C98.678 13.7337 98.5299 14.3011 98.2337 14.7568C97.942 15.208 97.4977 15.568 96.9007 15.8369L99.054 19.9043V20H96.8528L94.9866 16.3564ZM93.3528 14.6953H95.0071C95.5221 14.6953 95.9208 14.5654 96.2034 14.3057C96.4859 14.0413 96.6272 13.679 96.6272 13.2188C96.6272 12.7493 96.4928 12.3802 96.2239 12.1113C95.9596 11.8424 95.5517 11.708 95.0003 11.708H93.3528V14.6953ZM104.83 20H102.855V12.3848L100.496 13.1162V11.5098L104.618 10.0332H104.83V20ZM114.893 20H108.071V18.6465L111.29 15.2148C111.732 14.7318 112.058 14.3102 112.268 13.9502C112.482 13.5902 112.589 13.2484 112.589 12.9248C112.589 12.4827 112.477 12.1364 112.254 11.8857C112.031 11.6305 111.712 11.5029 111.297 11.5029C110.851 11.5029 110.497 11.6579 110.238 11.9678C109.982 12.2731 109.855 12.6764 109.855 13.1777H107.872C107.872 12.5716 108.016 12.0179 108.303 11.5166C108.595 11.0153 109.005 10.6234 109.533 10.3408C110.062 10.0537 110.661 9.91016 111.331 9.91016C112.357 9.91016 113.152 10.1562 113.717 10.6484C114.287 11.1406 114.572 11.8356 114.572 12.7334C114.572 13.2256 114.444 13.7269 114.189 14.2373C113.934 14.7477 113.496 15.3424 112.876 16.0215L110.614 18.4072H114.893V20ZM121.954 16.2539H123.082V17.8467H121.954V20H119.979V17.8467H115.898L115.809 16.6025L119.958 10.0469H121.954V16.2539ZM117.778 16.2539H119.979V12.7402L119.849 12.9658L117.778 16.2539ZM124.443 15.1055L125.017 10.0469H130.595V11.6943H126.637L126.391 13.834C126.86 13.5833 127.359 13.458 127.888 13.458C128.836 13.458 129.579 13.752 130.116 14.3398C130.654 14.9277 130.923 15.7503 130.923 16.8076C130.923 17.4502 130.786 18.0267 130.513 18.5371C130.244 19.043 129.857 19.4372 129.351 19.7197C128.845 19.9977 128.248 20.1367 127.56 20.1367C126.958 20.1367 126.4 20.016 125.885 19.7744C125.37 19.5283 124.962 19.1842 124.661 18.7422C124.365 18.3001 124.208 17.7965 124.19 17.2314H126.145C126.186 17.6462 126.329 17.9697 126.575 18.2021C126.826 18.43 127.152 18.5439 127.553 18.5439C128 18.5439 128.344 18.3844 128.585 18.0654C128.827 17.7419 128.948 17.2861 128.948 16.6982C128.948 16.1331 128.809 15.7002 128.531 15.3994C128.253 15.0986 127.858 14.9482 127.348 14.9482C126.879 14.9482 126.498 15.0713 126.206 15.3174L126.015 15.4951L124.443 15.1055ZM138.955 11.1543L135.107 20H133.022L136.877 11.6465H131.928V10.0469H138.955V11.1543ZM146.714 12.6924C146.714 13.1755 146.593 13.6038 146.352 13.9775C146.11 14.3512 145.778 14.6497 145.354 14.873C145.837 15.1055 146.22 15.4268 146.502 15.8369C146.785 16.2425 146.926 16.721 146.926 17.2725C146.926 18.1566 146.625 18.8561 146.024 19.3711C145.422 19.8815 144.604 20.1367 143.57 20.1367C142.535 20.1367 141.715 19.8792 141.109 19.3643C140.503 18.8493 140.199 18.152 140.199 17.2725C140.199 16.721 140.341 16.2402 140.623 15.8301C140.906 15.4199 141.286 15.1009 141.765 14.873C141.341 14.6497 141.008 14.3512 140.767 13.9775C140.53 13.6038 140.411 13.1755 140.411 12.6924C140.411 11.8447 140.694 11.1702 141.259 10.6689C141.824 10.1631 142.592 9.91016 143.563 9.91016C144.529 9.91016 145.295 10.1608 145.86 10.6621C146.429 11.1589 146.714 11.8356 146.714 12.6924ZM144.944 17.1289C144.944 16.696 144.818 16.3496 144.568 16.0898C144.317 15.8301 143.98 15.7002 143.556 15.7002C143.137 15.7002 142.802 15.8301 142.551 16.0898C142.3 16.3451 142.175 16.6914 142.175 17.1289C142.175 17.5527 142.298 17.8945 142.544 18.1543C142.79 18.4141 143.132 18.5439 143.57 18.5439C143.998 18.5439 144.333 18.4186 144.574 18.168C144.821 17.9173 144.944 17.571 144.944 17.1289ZM144.739 12.7881C144.739 12.4007 144.636 12.0908 144.431 11.8584C144.226 11.6214 143.936 11.5029 143.563 11.5029C143.194 11.5029 142.907 11.6169 142.701 11.8447C142.496 12.0726 142.394 12.387 142.394 12.7881C142.394 13.1846 142.496 13.5036 142.701 13.7451C142.907 13.9867 143.196 14.1074 143.57 14.1074C143.943 14.1074 144.23 13.9867 144.431 13.7451C144.636 13.5036 144.739 13.1846 144.739 12.7881Z" fill="white"/>
<g clip-path="url(#clip0)">
<path d="M38.1084 12.0482C38.1205 12.2259 38.1205 12.4036 38.1205 12.5812C38.1205 18 34.1781 24.2436 26.9726 24.2436C24.7527 24.2436 22.6905 23.571 20.9559 22.4036C21.2713 22.4416 21.5745 22.4543 21.902 22.4543C23.7337 22.4543 25.4199 21.8071 26.7664 20.703C25.0438 20.665 23.6003 19.4848 23.1029 17.8604C23.3456 17.8984 23.5882 17.9238 23.8429 17.9238C24.1947 17.9238 24.5465 17.873 24.874 17.7843C23.0787 17.4035 21.7322 15.7538 21.7322 13.7614V13.7107C22.2538 14.0152 22.8604 14.2056 23.5032 14.2309C22.4479 13.4949 21.7565 12.2386 21.7565 10.8172C21.7565 10.0558 21.9505 9.35785 22.2902 8.74871C24.2189 11.236 27.1181 12.8604 30.3691 13.038C30.3084 12.7335 30.272 12.4162 30.272 12.099C30.272 9.84008 32.0188 8 34.1902 8C35.3183 8 36.3373 8.49492 37.053 9.29441C37.9385 9.11676 38.7876 8.7741 39.5397 8.30457C39.2485 9.25637 38.6299 10.0559 37.8172 10.5634C38.6057 10.4746 39.3699 10.2462 40.0734 9.92894C39.5398 10.7411 38.8726 11.4644 38.1084 12.0482Z" fill="white"/>
</g>
<defs>
<clipPath id="clip0">
<rect width="19.1176" height="20" fill="white" transform="translate(20 5)"/>
</clipPath>
</defs>
</svg>
