<svg width="170" height="30" viewBox="0 0 170 30" fill="none" xmlns="http://www.w3.org/2000/svg">
<rect width="170" height="30" fill="#1DA1F2"/>
<path d="M53.5615 17.6846C53.484 18.7555 53.0876 19.5986 52.3721 20.2139C51.6611 20.8291 50.7223 21.1367 49.5557 21.1367C48.2796 21.1367 47.2747 20.7083 46.541 19.8516C45.8118 18.9902 45.4473 17.8099 45.4473 16.3105V15.7021C45.4473 14.7451 45.6159 13.902 45.9531 13.1729C46.2904 12.4437 46.7712 11.8854 47.3955 11.498C48.0244 11.1061 48.7536 10.9102 49.583 10.9102C50.7314 10.9102 51.6566 11.2178 52.3584 11.833C53.0602 12.4482 53.4658 13.3118 53.5752 14.4238H51.5244C51.4743 13.7812 51.2943 13.3164 50.9844 13.0293C50.679 12.7376 50.2119 12.5918 49.583 12.5918C48.8994 12.5918 48.3867 12.8379 48.0449 13.3301C47.7077 13.8177 47.5345 14.5765 47.5254 15.6064V16.3584C47.5254 17.4339 47.6872 18.2201 48.0107 18.7168C48.3389 19.2135 48.8538 19.4619 49.5557 19.4619C50.1891 19.4619 50.6608 19.3184 50.9707 19.0312C51.2852 18.7396 51.4652 18.2907 51.5107 17.6846H53.5615ZM60.5273 18.9492H56.9316L56.248 21H54.0674L57.7725 11.0469H59.6729L63.3984 21H61.2178L60.5273 18.9492ZM57.4854 17.2881H59.9736L58.7227 13.5625L57.4854 17.2881ZM69.4893 18.3887C69.4893 18.0013 69.3525 17.7051 69.0791 17.5C68.8057 17.2904 68.3135 17.0716 67.6025 16.8438C66.8916 16.6113 66.3288 16.3835 65.9141 16.1602C64.7839 15.5495 64.2188 14.7269 64.2188 13.6924C64.2188 13.1546 64.3691 12.6761 64.6699 12.2568C64.9753 11.833 65.4105 11.5026 65.9756 11.2656C66.5452 11.0286 67.1833 10.9102 67.8896 10.9102C68.6006 10.9102 69.234 11.04 69.79 11.2998C70.346 11.555 70.7767 11.9173 71.082 12.3867C71.3919 12.8561 71.5469 13.3893 71.5469 13.9863H69.4961C69.4961 13.5306 69.3525 13.1774 69.0654 12.9268C68.7783 12.6715 68.375 12.5439 67.8555 12.5439C67.3542 12.5439 66.9645 12.651 66.6865 12.8652C66.4085 13.0749 66.2695 13.3529 66.2695 13.6992C66.2695 14.0228 66.4313 14.2939 66.7549 14.5127C67.083 14.7314 67.5638 14.9365 68.1973 15.1279C69.3639 15.4788 70.2139 15.9141 70.7471 16.4336C71.2803 16.9531 71.5469 17.6003 71.5469 18.375C71.5469 19.2363 71.221 19.9131 70.5693 20.4053C69.9176 20.8929 69.0404 21.1367 67.9375 21.1367C67.1719 21.1367 66.4746 20.9977 65.8457 20.7197C65.2168 20.4372 64.736 20.0521 64.4033 19.5645C64.0752 19.0768 63.9111 18.5117 63.9111 17.8691H65.9688C65.9688 18.9674 66.625 19.5166 67.9375 19.5166C68.4251 19.5166 68.8057 19.4186 69.0791 19.2227C69.3525 19.0221 69.4893 18.7441 69.4893 18.3887ZM74.9922 17.4932V21H72.9414V11.0469H76.8242C77.5716 11.0469 78.2279 11.1836 78.793 11.457C79.3626 11.7305 79.8001 12.1201 80.1055 12.626C80.4108 13.1273 80.5635 13.6992 80.5635 14.3418C80.5635 15.3171 80.2285 16.0872 79.5586 16.6523C78.8932 17.2129 77.9704 17.4932 76.79 17.4932H74.9922ZM74.9922 15.832H76.8242C77.3665 15.832 77.779 15.7044 78.0615 15.4492C78.3486 15.194 78.4922 14.8294 78.4922 14.3555C78.4922 13.8678 78.3486 13.4736 78.0615 13.1729C77.7744 12.8721 77.3779 12.7171 76.8721 12.708H74.9922V15.832ZM87.9668 16.6865H84.0293V19.3525H88.6504V21H81.9785V11.0469H88.6367V12.708H84.0293V15.0801H87.9668V16.6865ZM93.5381 17.3564H91.9043V21H89.8535V11.0469H93.5518C94.7275 11.0469 95.6344 11.3089 96.2725 11.833C96.9105 12.3571 97.2295 13.0977 97.2295 14.0547C97.2295 14.7337 97.0814 15.3011 96.7852 15.7568C96.4935 16.208 96.0492 16.568 95.4521 16.8369L97.6055 20.9043V21H95.4043L93.5381 17.3564ZM91.9043 15.6953H93.5586C94.0736 15.6953 94.4723 15.5654 94.7549 15.3057C95.0374 15.0413 95.1787 14.679 95.1787 14.2188C95.1787 13.7493 95.0443 13.3802 94.7754 13.1113C94.5111 12.8424 94.1032 12.708 93.5518 12.708H91.9043V15.6953ZM103.382 21H101.406V13.3848L99.0479 14.1162V12.5098L103.17 11.0332H103.382V21ZM113.444 21H106.622V19.6465L109.842 16.2148C110.284 15.7318 110.61 15.3102 110.819 14.9502C111.034 14.5902 111.141 14.2484 111.141 13.9248C111.141 13.4827 111.029 13.1364 110.806 12.8857C110.582 12.6305 110.263 12.5029 109.849 12.5029C109.402 12.5029 109.049 12.6579 108.789 12.9678C108.534 13.2731 108.406 13.6764 108.406 14.1777H106.424C106.424 13.5716 106.567 13.0179 106.854 12.5166C107.146 12.0153 107.556 11.6234 108.085 11.3408C108.614 11.0537 109.213 10.9102 109.883 10.9102C110.908 10.9102 111.703 11.1562 112.269 11.6484C112.838 12.1406 113.123 12.8356 113.123 13.7334C113.123 14.2256 112.995 14.7269 112.74 15.2373C112.485 15.7477 112.048 16.3424 111.428 17.0215L109.165 19.4072H113.444V21ZM120.506 17.2539H121.634V18.8467H120.506V21H118.53V18.8467H114.449L114.36 17.6025L118.51 11.0469H120.506V17.2539ZM116.329 17.2539H118.53V13.7402L118.4 13.9658L116.329 17.2539ZM122.994 16.1055L123.568 11.0469H129.146V12.6943H125.188L124.942 14.834C125.412 14.5833 125.911 14.458 126.439 14.458C127.387 14.458 128.13 14.752 128.668 15.3398C129.206 15.9277 129.475 16.7503 129.475 17.8076C129.475 18.4502 129.338 19.0267 129.064 19.5371C128.796 20.043 128.408 20.4372 127.902 20.7197C127.396 20.9977 126.799 21.1367 126.111 21.1367C125.51 21.1367 124.951 21.016 124.437 20.7744C123.922 20.5283 123.514 20.1842 123.213 19.7422C122.917 19.3001 122.759 18.7965 122.741 18.2314H124.696C124.737 18.6462 124.881 18.9697 125.127 19.2021C125.378 19.43 125.703 19.5439 126.104 19.5439C126.551 19.5439 126.895 19.3844 127.137 19.0654C127.378 18.7419 127.499 18.2861 127.499 17.6982C127.499 17.1331 127.36 16.7002 127.082 16.3994C126.804 16.0986 126.41 15.9482 125.899 15.9482C125.43 15.9482 125.049 16.0713 124.758 16.3174L124.566 16.4951L122.994 16.1055ZM137.507 12.1543L133.658 21H131.573L135.429 12.6465H130.479V11.0469H137.507V12.1543ZM145.266 13.6924C145.266 14.1755 145.145 14.6038 144.903 14.9775C144.662 15.3512 144.329 15.6497 143.905 15.873C144.388 16.1055 144.771 16.4268 145.054 16.8369C145.336 17.2425 145.478 17.721 145.478 18.2725C145.478 19.1566 145.177 19.8561 144.575 20.3711C143.974 20.8815 143.156 21.1367 142.121 21.1367C141.087 21.1367 140.266 20.8792 139.66 20.3643C139.054 19.8493 138.751 19.152 138.751 18.2725C138.751 17.721 138.892 17.2402 139.175 16.8301C139.457 16.4199 139.838 16.1009 140.316 15.873C139.893 15.6497 139.56 15.3512 139.318 14.9775C139.081 14.6038 138.963 14.1755 138.963 13.6924C138.963 12.8447 139.245 12.1702 139.811 11.6689C140.376 11.1631 141.144 10.9102 142.114 10.9102C143.08 10.9102 143.846 11.1608 144.411 11.6621C144.981 12.1589 145.266 12.8356 145.266 13.6924ZM143.495 18.1289C143.495 17.696 143.37 17.3496 143.119 17.0898C142.868 16.8301 142.531 16.7002 142.107 16.7002C141.688 16.7002 141.353 16.8301 141.103 17.0898C140.852 17.3451 140.727 17.6914 140.727 18.1289C140.727 18.5527 140.85 18.8945 141.096 19.1543C141.342 19.4141 141.684 19.5439 142.121 19.5439C142.549 19.5439 142.884 19.4186 143.126 19.168C143.372 18.9173 143.495 18.571 143.495 18.1289ZM143.29 13.7881C143.29 13.4007 143.188 13.0908 142.982 12.8584C142.777 12.6214 142.488 12.5029 142.114 12.5029C141.745 12.5029 141.458 12.6169 141.253 12.8447C141.048 13.0726 140.945 13.387 140.945 13.7881C140.945 14.1846 141.048 14.5036 141.253 14.7451C141.458 14.9867 141.747 15.1074 142.121 15.1074C142.495 15.1074 142.782 14.9867 142.982 14.7451C143.188 14.5036 143.29 14.1846 143.29 13.7881Z" fill="white"/>
<g clip-path="url(#clip0)">
<path d="M34.9441 12.0482C34.9568 12.2259 34.9568 12.4036 34.9568 12.5812C34.9568 18 30.8325 24.2436 23.2944 24.2436C20.9721 24.2436 18.8147 23.571 17 22.4036C17.33 22.4416 17.6472 22.4543 17.9898 22.4543C19.9061 22.4543 21.67 21.8071 23.0787 20.703C21.2766 20.665 19.7665 19.4848 19.2462 17.8604C19.5 17.8984 19.7538 17.9238 20.0203 17.9238C20.3883 17.9238 20.7564 17.873 21.099 17.7843C19.2208 17.4035 17.8121 15.7538 17.8121 13.7614V13.7107C18.3578 14.0152 18.9924 14.2056 19.6649 14.2309C18.5609 13.4949 17.8375 12.2386 17.8375 10.8172C17.8375 10.0558 18.0405 9.35785 18.3959 8.74871C20.4137 11.236 23.4467 12.8604 26.8477 13.038C26.7842 12.7335 26.7461 12.4162 26.7461 12.099C26.7461 9.84008 28.5736 8 30.8451 8C32.0253 8 33.0913 8.49492 33.84 9.29441C34.7664 9.11676 35.6547 8.7741 36.4416 8.30457C36.137 9.25637 35.4898 10.0559 34.6395 10.5634C35.4644 10.4746 36.2639 10.2462 36.9999 9.92894C36.4416 10.7411 35.7436 11.4644 34.9441 12.0482Z" fill="white"/>
</g>
<defs>
<clipPath id="clip0">
<rect width="20" height="20" fill="white" transform="translate(16 5)"/>
</clipPath>
</defs>
</svg>
